<?xml version="1.0" encoding="utf-8"?>
<!-- Generator: Adobe Illustrator 26.0.2, SVG Export Plug-In . SVG Version: 6.00 Build 0)  -->
<svg version="1.2" baseProfile="tiny" xmlns="http://www.w3.org/2000/svg" xmlns:xlink="http://www.w3.org/1999/xlink" x="0px"
	 y="0px" viewBox="0 0 138.8 137.2" overflow="visible" xml:space="preserve">
<g id="Layer_1">
	<g id="Слой_2">
		<g id="Слой_1-2">
			<path fill="none" stroke="#000000" stroke-width="8" stroke-linejoin="round" stroke-miterlimit="10" d="M114.5,89.9l8,13
				l-15.9-1.6c-3.1,3.3-6.6,6.2-10.5,8.6l-0.5,15.4l-12.2-10c-4,1.1-8.1,1.6-12.5,1.6c-1.7,0-3.4-0.1-5.1-0.3l-11.7,13.7l-3.9-18.1
				c-3.7-1.7-7.1-3.9-10.2-6.5c0,0,0,0,0,0l-16.6,4.9l6.4-16.5c-2.6-4.1-4.5-8.5-5.8-13.3l-17.1-7l15.6-9c0.3-4.4,1.2-8.6,2.6-12.5
				L15,37.5l17.6,1c3.4-4.4,7.5-8.1,12.2-11.1l1.2-15.9l11.4,10.2c4.3-1.2,8.8-1.9,13.5-1.9c0.4,0,0.7,0,1.1,0L82,6.9l4.1,15.3
				c6.7,2.2,12.8,5.8,17.9,10.5l13.6-3.3l-5.7,12.8c2.7,4.2,4.8,8.9,6.1,13.9l13.9,5l-12.4,8C119.4,76.5,117.6,83.6,114.5,89.9z"/>
		</g>
	</g>
	<ellipse display="none" fill="none" stroke="#000000" stroke-miterlimit="10" cx="85.6" cy="53.8" rx="12.2" ry="18.1"/>
	<ellipse display="none" fill="none" stroke="#000000" stroke-miterlimit="10" cx="53.2" cy="53.8" rx="12.2" ry="18.1"/>
	
		<path display="none" stroke="#000000" stroke-width="2" stroke-linecap="round" stroke-linejoin="round" stroke-miterlimit="10" d="
		M71.4,80.7h-2.1c-3.7,0-6.1,1.7-6.1,3.9s1.9,3.5,4.6,3.5c2,0,4-0.6,5.8-1.7l1.1,2.7c-2.4,1.5-5.2,2.2-8,2.2c-3.7,0-8.1-1.6-8.1-6.3
		c0-3,2.7-4.9,5.4-5.4v-0.1c-3.6-0.3-6.5-2.5-6.5-6c0-5.2,5.3-7.1,10.3-7.1c2.7,0,5.4,0.7,7.8,1.9l-1.1,2.9c-1.9-1-4.1-1.6-6.3-1.6
		c-3.6,0-5.9,1.7-5.9,4.1c0,3.2,3.4,4.1,7,4.1h2.2L71.4,80.7z"/>
</g>
<g id="Layer_2">
	<path fill="none" stroke="#000000" stroke-width="8" stroke-linecap="round" stroke-linejoin="round" stroke-miterlimit="10" d="
		M39,88.3c1.1-9.2,12.3-45.7,62.6-43.4"/>
</g>
</svg>
