<svg xmlns="http://www.w3.org/2000/svg" xmlns:xlink="http://www.w3.org/1999/xlink" viewBox="0 0 460 460"><defs><linearGradient id="a" y1="230" x2="460" y2="230" gradientUnits="userSpaceOnUse"><stop offset="0" stop-color="#b794ff"/><stop offset="1" stop-color="#34007f"/></linearGradient><linearGradient id="b" x1="70" y1="230" x2="390" y2="230" gradientUnits="userSpaceOnUse"><stop offset="0" stop-color="#fff" stop-opacity="0.8"/><stop offset="1" stop-color="#8995e1" stop-opacity="0"/></linearGradient></defs><circle cx="230" cy="230" r="230" style="fill:url(#a)"/><circle cx="230" cy="230" r="160" style="fill:url(#b)"/><path d="M438.0225,157.345l-18.648,18.648a180.8823,180.8823,0,0,0-43.047-58.986,181.2894,181.2894,0,0,1,61.695,40.338Z" transform="translate(-70 -70)" style="fill:#efc2a6"/><path d="M481.4065,220.778l-41.976,17.496a183.2547,183.2547,0,0,0-15.507-56.88l18.648-18.648A179.0992,179.0992,0,0,1,481.4065,220.778Z" transform="translate(-70 -70)" style="fill:#efb198"/><path d="M439.0785,296.1515a182.4579,182.4579,0,0,0,1.881-51.777l41.976-17.496a180.7957,180.7957,0,0,1,13.896,69.273Z" transform="translate(-70 -70)" style="fill:#ef9e89"/><path d="M480.3655,378.0435a182.96,182.96,0,0,1-10.593,21.501,180.22,180.22,0,0,1-28.575,37.314l-43.893-43.893a181.2529,181.2529,0,0,0,17.379-24.921q3.996-6.8985,7.317-14.013Z" transform="translate(-70 -70)" style="fill:#ef8474"/><path d="M437.07,441.1785a179.3014,179.3014,0,0,1-58.041,38.826l-20.979-50.31a181.3542,181.3542,0,0,0,35.127-32.409Z" transform="translate(-70 -70)" style="fill:#ef786a"/><path d="M373.1215,482.5765a180.787,180.787,0,0,1-69.273,13.887v-39.951a183.2528,183.2528,0,0,0,48.294-24.246Z" transform="translate(-70 -70)" style="fill:#f48072"/><path d="M496.0445,303.8055a178.91,178.91,0,0,1-13.554,68.499l-58.365-24.012a180.4026,180.4026,0,0,0,14.166-44.487Z" transform="translate(-70 -70)" style="fill:#ef8b79"/><path d="M296.1945,457.86v39.951a179.0681,179.0681,0,0,1-68.499-13.545l7.101-17.271A182.5452,182.5452,0,0,0,296.1945,457.86Z" transform="translate(-70 -70)" style="fill:#f98e7f"/><path d="M228.9475,466.2735l-7.101,17.271a183.0257,183.0257,0,0,1-43.884-25.839A180.9635,180.9635,0,0,0,228.9475,466.2735Z" transform="translate(-70 -70)" style="fill:#fe9b8b"/><circle cx="166" cy="134" r="8" style="fill:#fff"/><circle cx="183.5" cy="190.5" r="6.5" style="fill:#fff"/><circle cx="290" cy="262" r="6" style="fill:#fff"/><circle cx="290" cy="319" r="6" style="fill:#fff"/><circle cx="183.5" cy="254.5" r="6.5" style="fill:#fff"/><g style="opacity:0.5"><circle cx="100" cy="205" r="8" style="fill:#fff"/><circle cx="140.5" cy="136.5" r="5.5" style="fill:#fff"/><circle cx="263.5" cy="283.5" r="4.5" style="fill:#fff"/><circle cx="212.5" cy="229.5" r="4.5" style="fill:#fff"/><circle cx="306.5" cy="168.5" r="7.5" style="fill:#fff"/><circle cx="273.5" cy="117.5" r="5.5" style="fill:#fff"/><circle cx="341" cy="238" r="4" style="fill:#fff"/><circle cx="158" cy="325" r="4" style="fill:#fff"/><circle cx="123" cy="279" r="6" style="fill:#fff"/><circle cx="230" cy="344" r="4" style="fill:#fff"/><circle cx="222.5" cy="140.5" r="3.5" style="fill:#fff"/><circle cx="263" cy="202" r="3" style="fill:#fff"/></g></svg>