<svg xmlns="http://www.w3.org/2000/svg" viewBox="0 0 256 256"><defs><style>.cls-1{fill:#ff6f77;}.cls-2{fill:#fff;}.cls-3,.cls-4,.cls-7{fill:#9fe4eb;}.cls-3{opacity:0.74;}.cls-4{opacity:0.55;}.cls-5{fill:#ff4378;}.cls-5,.cls-6{opacity:0.68;}.cls-6{fill:#ff8aa4;}.cls-7{opacity:0.83;}.cls-8{fill:#faffcf;}.cls-9{fill:#f0ff8f;}.cls-10{fill:#ffe4eb;}</style></defs><g id="фон"><rect class="cls-1" width="256" height="256"/></g><g id="Слой_25" data-name="Слой 25"><path class="cls-2" d="M171.93,243.22c-1.5,3.46-18.12,1.78-33.15-4.56A89.24,89.24,0,0,1,108,216.27c-18.23-20.19-27.35-48.78-22.09-67.33.7-2.48,2.89-9.09,6-16.53a168.7,168.7,0,0,1,8.43-17.64c.59-1,1.14-2.06,1.69-3a16.86,16.86,0,0,1-2.79-.54C89.41,108.94,79,100.37,76.33,88.48s3.85-21.54,6.24-25c8.81-12.9,22.75-16.19,25.65-16.81,14-3,31.18.83,41.35,13,2.05,2.45,10.55,12.66,8,26.37-1.83,9.57-9.25,18.72-17.46,22.34l-.63.27c.29,3.24,9.93,14,12.51,17.73,4.6,6.66,12.58,19.89,14.48,32.43.84,5.51,3.71,24.48-6.43,40.59-3.1,4.94-8.13,10.73-6.6,17.69.47,2.17,1.41,3.66,4.3,7.48C168.17,238.43,172.79,241.23,171.93,243.22Z"/><path class="cls-2" d="M95.3,126.49c-.16-2.43-.52-5.95-3.08-8.59-2.85-3-7-3.33-9.59-3.43-19.25-.72-39,7.47-39,7.47C23.17,130.4,13,134.62,12.44,141.25c-.49,6.4,7.07,11.61,16.38,18,9,6.23,25.6,17.63,44.31,12.66A30.88,30.88,0,0,0,86.61,165C97.13,155.37,96.22,141,95.3,126.49Z"/><path class="cls-2" d="M144.78,119c-.54-2.35-1.18-5.81.5-9,1.88-3.61,5.71-5.13,8.16-6,18.12-6.11,39.26-3.9,39.26-3.9,21.83,2.28,32.75,3.43,35.1,9.59,2.27,6-3.46,13-10.51,21.77-6.86,8.48-19.39,24-38.6,24.54a30.58,30.58,0,0,1-14.79-2.8C151.18,147,148,133.08,144.78,119Z"/><path class="cls-3" d="M95.33,126.5c-.15-2.36-.51-5.77-3-8.34-2.76-2.86-6.77-3.22-9.3-3.32-18.68-.7-37.87,7.24-37.87,7.24C25.35,130.29,15.44,134.39,15,140.81c-.47,6.21,6.86,11.27,15.89,17.48,8.78,6.05,24.83,17.11,43,12.28a29.82,29.82,0,0,0,13.08-6.72C97.1,154.52,96.22,140.6,95.33,126.5Z"/><path class="cls-3" d="M144.94,119.26c-.52-2.28-1.15-5.63.49-8.77,1.82-3.51,5.54-5,7.91-5.79,17.58-5.93,38.08-3.78,38.08-3.78,21.18,2.21,31.77,3.32,34.05,9.3,2.2,5.78-3.35,12.65-10.19,21.12-6.65,8.23-18.81,23.28-37.45,23.8a29.48,29.48,0,0,1-14.34-2.71C151.15,146.43,148.06,132.94,144.94,119.26Z"/><path class="cls-4" d="M169.07,241.06c-1.42,3.4-17.27,1.76-31.58-4.46a84.82,84.82,0,0,1-29.29-22c-17.36-19.82-26-47.91-21-66.13.67-2.45,2.76-8.95,5.7-16.26a170.29,170.29,0,0,1,8-17.34c.56-1,1.1-2,1.62-3a16.4,16.4,0,0,1-2.66-.53c-9.35-2.23-19.27-10.64-21.79-22.32s3.68-21.16,6-24.61c8.41-12.69,21.7-15.93,24.46-16.54,13.35-2.94,29.72.79,39.4,12.78,1.95,2.41,10,12.44,7.55,25.91-1.75,9.4-8.83,18.4-16.66,22l-.6.26c.27,3.19,9.45,13.74,11.91,17.41,4.38,6.55,12,19.54,13.77,31.86.79,5.41,3.51,24.05-6.17,39.89-3,4.85-7.76,10.55-6.31,17.39.45,2.13,1.34,3.59,4.09,7.34C165.5,236.35,169.9,239.09,169.07,241.06Z"/><path class="cls-5" d="M120.8,132.75c-3.17-5.62-8.3-8.5-11.79-7.36-4.62,1.51-5.62,9.84-3.67,15.3,2.45,6.84,10.2,11.1,17.35,10.42,9.54-.91,16.81-10.5,15.9-18.52-.43-3.73-2.86-9.19-7.19-9.78C127.29,122.25,122.28,126.16,120.8,132.75Z"/><path class="cls-6" d="M120.84,134c-2.87-5.08-7.5-7.68-10.66-6.66-4.17,1.37-5.07,8.9-3.31,13.83,2.21,6.18,9.21,10,15.68,9.41,8.62-.82,15.19-9.48,14.36-16.73-.38-3.37-2.58-8.31-6.5-8.84C126.7,124.48,122.18,128,120.84,134Z"/><path class="cls-2" d="M131.85,48.53c1.48-2.47,12.05-20.19,18.2-18,6.59,2.31,8.13,27.52-.79,31.66-6.11,2.84-18.15-3.77-18.5-10A6.35,6.35,0,0,1,131.85,48.53Z"/><path class="cls-2" d="M95.5,53c-1.75-2.29-14.28-18.67-20.14-15.82-6.29,3-4.93,28.27,4.39,31.36,6.4,2.12,17.61-5.82,17.24-12A6.27,6.27,0,0,0,95.5,53Z"/><path class="cls-7" d="M132.2,50.08c1.34-2.28,10.94-18.59,16.52-16.6,6,2.13,7.36,25.34-.73,29.15-5.54,2.61-16.46-3.46-16.78-9.19A5.9,5.9,0,0,1,132.2,50.08Z"/><path class="cls-7" d="M95.6,54.47c-1.59-2.08-13-16.94-18.27-14.36-5.7,2.77-4.47,25.65,4,28.46,5.8,1.92,16-5.28,15.64-10.93A5.74,5.74,0,0,0,95.6,54.47Z"/><ellipse class="cls-2" cx="106.65" cy="79.97" rx="8.86" ry="6.48" transform="translate(10.87 172.67) rotate(-80.93)"/><ellipse class="cls-2" cx="126.51" cy="78.55" rx="6.48" ry="8.86" transform="translate(-7.82 14.29) rotate(-6.27)"/><ellipse cx="107.83" cy="77.96" rx="6.08" ry="4.44" transform="translate(13.85 172.15) rotate(-80.93)"/><ellipse cx="125.48" cy="76.92" rx="4.44" ry="6.08" transform="translate(-7.65 14.17) rotate(-6.27)"/><circle cx="110.89" cy="78.05" r="2.22"/><circle class="cls-2" cx="110.69" cy="78.24" r="2.02"/><circle cx="130.55" cy="77.02" r="2.22"/><circle class="cls-2" cx="130.34" cy="77.21" r="2.02"/><path class="cls-8" d="M141.28,17.83c-.05-.16-.12-.3-.17-.44L141,17.2c-2.05-4.81-15.07-8.33-30.75-8s-28.54,4.31-30.47,9.22c-.47.21-.66,5.09.74,7.73,1.59,5,14.86,8.72,30.94,8.4,15.06-.29,27.55-4,30.19-8.64a3.47,3.47,0,0,0,.4-.92,1.8,1.8,0,0,0,.1-.4A13.49,13.49,0,0,0,141.28,17.83ZM110.63,29.08c-13.54.25-25.07-2.33-29.32-6.15a1.35,1.35,0,0,1-.11-.09.55.55,0,0,1,.07-.09c3.26-4.41,15.32-7.84,29.81-8.12,13.65-.27,25.27,2.38,29.43,6.24C137.34,25.3,125.22,28.79,110.63,29.08Z"/><path class="cls-9" d="M140.73,18.68a4.48,4.48,0,0,0-.18-.44,1.62,1.62,0,0,0-.1-.18c-2-4.73-14.82-8.2-30.23-7.9s-28.07,4.24-30,9.07c-.46.2-.65,5,.73,7.59,1.57,4.94,14.62,8.58,30.42,8.27,14.81-.29,27.09-3.94,29.69-8.5a3.25,3.25,0,0,0,.39-.91,1.72,1.72,0,0,0,.1-.39A13.37,13.37,0,0,0,140.73,18.68ZM110.59,29.74c-13.31.24-24.65-2.29-28.83-6a1.35,1.35,0,0,1-.11-.09.55.55,0,0,1,.07-.09c3.21-4.33,15.06-7.7,29.31-8,13.43-.27,24.84,2.33,28.94,6.14C136.85,26,124.93,29.45,110.59,29.74Z"/><path class="cls-10" d="M84.6,25.68a.52.52,0,0,1-.11-.08l.06-.08C84.56,25.58,84.59,25.63,84.6,25.68Z"/></g></svg>