<svg xmlns="http://www.w3.org/2000/svg" viewBox="0 0 256 256"><defs><style>.cls-1{fill:#9598ff;}.cls-2,.cls-3,.cls-6,.cls-7{fill:#fff;}.cls-2{opacity:0.83;}.cls-3,.cls-4{opacity:0.85;}.cls-4{fill:#fc7563;}.cls-5{fill:#ffb867;}.cls-6{opacity:0.14;}</style></defs><g id="фон"><rect class="cls-1" width="256" height="256"/></g><g id="Слой_19" data-name="Слой 19"><path class="cls-2" d="M76.94,130.36c-4-2.2-16.81-9.93-23-26-6.33-16.36-1.68-30.77.3-36.59C62.88,42.28,86.28,31.37,91.49,29c33.2-15.48,64.78-.24,67.78,1.28,7.75,3.9,32.27,16.25,38.06,44.05,4.93,23.66-5.23,48.54-13,51-.73.23-5.33,1.93-4,2.43,2.8,1.08,5.27,3.47,6.94,4.57,7.51,4.94,10.73,16.63,7.5,17.45-7,1.77-12.76-2.27-25.93-8.76-2.5,4.3-6.67,9.8-12.83,11-11.09,2.06-17.46-12.06-29.19-10.29-9.8,1.48-12.26,12.38-20.5,11.28-6-.81-6.34-6.85-12.24-7.77-10.24-1.6-18.21,15.14-22.83,12.91-3.23-1.57-2.07-11.13-.32-16.76A31.41,31.41,0,0,1,76.94,130.36Z"/><path class="cls-3" d="M89.87,121.16c-4,8.14-2,13.24-3,21.19-.38,3-2.69,18.18-14.87,26.39-10,6.74-21.22,5.1-24,4.7-4.07-.59-12.34-1.8-14.84-7.18-2.8-6,3.14-14.07,2.55-14.35-.42-.2-3.77,3.82-5.71,9.69-.73,2.22-4.89,14.84,2.73,26.48,7.23,11,20.31,14,20.83,13.2.22-.33-1.61-1.51-3-4.64-.32-.72-1.56-3.57-.74-4.22s3.46,1.61,6,3.08c8.91,5.23,21.86,3,22.53.13.16-.71-.57-.93-1.93-3.14s-3.77-7.09-2.31-8.87c1.15-1.42,3.84.25,8.92.49,1.61.07,12.17.4,15.59-5.31,2.21-3.68.57-8.42.09-9.8-2.1-6.06-6.68-7-6.52-10.55.14-3.42,4.31-3.44,7.63-8.1,3.6-5,2.85-11.28,1.36-23.78a47.73,47.73,0,0,0-2.29-9c-1-3.34-1.5-4-2.15-4.2C94.73,112.82,91.55,117.68,89.87,121.16Z"/><path class="cls-3" d="M173.81,128.36c2.48,21.51,4,23.12,4.67,25,1,2.67,5.46,14.5,16.76,17.9,1.12.34,9.8,2.81,16.75-1.73,9.17-6,8.16-19.5,10-19.36s4.07,12.33.39,25.35c-1.92,6.8-4.87,17.26-12.92,20.24-10.92,4.06-25-7.93-27.06-5.11-1.16,1.61,3.28,5.7,2,7.28-1.17,1.42-6.6.39-9.69-3-4.33-4.73-2.48-12.34-4-12.5-.78-.08-1.79,1.85-2.16,3.37-.6,2.47.45,4-.16,4.46-.89.69-4.8-1.09-6.73-4.2-4.69-7.55,4.16-20,2.1-21.12-.74-.4-2.38.93-3.21,1.88-2.36,2.7-1.43,6.09-2.32,6.28s-3.45-2.92-3.46-6.59c0-5.08,4.86-5.88,7.05-12.12,1.87-5.3.39-10.56-.64-14.19-2-7.15-4.84-7.78-4.62-11.71.42-7.31,10.72-14.51,15.18-12.41C173.7,117,172.76,119.16,173.81,128.36Z"/><path class="cls-3" d="M117.2,123.09a125.14,125.14,0,0,0-9.64,23.08c-2.08,6.75-3.12,10.12-3.4,14-.63,8.72,2.06,10.64,3.21,22.93.8,8.62,1.24,13.33-.89,18.72-3.33,8.42-10.58,12.54-12.51,13.64-5.45,3.1-9.87,3.09-9.84,3.79s6,2,12-.07,14.4-8,17.26-18-.57-20.49-2.53-26.64c-1.25-3.9-2.18-5.38-2.44-9-.25-3.43.17-7.89,4.59-17.79,5.26-11.79,7.71-12.29,10.67-20.92,2.41-7,3.83-15.57,2.39-16.3C124.46,109.72,119.55,118.76,117.2,123.09Z"/><path class="cls-3" d="M124.3,117.8c.22,9.94-2,13.82-2.08,20.11,0,7.18,2.86,11.26,4.52,15.92,9,25.36-18.72,67.92-14,81.08a13.53,13.53,0,0,0,3.8,5.83c3.26,2.55,6.89,1.53,6.93,1.95s-5.55,3.48-10.09.52c-5.18-3.38-5-13-5-16,0-2.89.41-6,3.31-14.69,3.93-11.78,5.13-11.92,7.6-19.94,1.72-5.6,3.81-12.6,3.82-22a87.09,87.09,0,0,0-1.66-15.75c-1.34-7.51-2.09-7.43-3.24-13.91-1.07-6-2.41-14,0-22.19,1.17-4.09,3.48-8.94,4.82-8.52S124.24,115.14,124.3,117.8Z"/><path class="cls-3" d="M129.76,125.72c-1.87,11.24-2.46,10.7-3,15.33-.76,6.79.25,10.15,6.28,37.42,2.72,12.32,3.37,15.51,2.22,20.24-1.9,7.8-7.52,14.94-8,15.59-3.88,4.85-7.31,7-6.85,7.81.57,1,6.62-.62,11.29-4.53,8.12-6.8,9.05-18.08,9.21-20.1.68-8.24-1.84-15.29-5-24-1.66-4.65-2-4.51-3.08-8.11a60,60,0,0,1-2.08-20.05c.33-5.43.68-11.09,3.47-17.67,2.37-5.6,5.14-8.62,4.08-12.79-.7-2.77-3-5.5-4.57-5.18C131.76,110.07,131.53,115.07,129.76,125.72Z"/><path class="cls-3" d="M144.65,131.3a144.09,144.09,0,0,1,8.58,26c1.74,7.55,2.62,11.32,2.67,15.54.13,9.6-2.78,11.5-4.73,24.88-1.36,9.39-2.1,14.51-.22,20.58,2.94,9.46,10.21,14.52,12.14,15.86,5.46,3.8,10,4.12,10,4.89s-6.32,1.69-12.44-1a30.31,30.31,0,0,1-16.81-21c-2.34-11,1.84-22.41,4.25-29,1.54-4.18,2.59-5.73,3.09-9.65.47-3.75.3-8.66-3.67-19.83-4.74-13.31-7.25-14-9.8-23.71-2.07-7.89-3-17.35-1.47-18C137.93,116.11,142.47,126.38,144.65,131.3Z"/><path class="cls-4" d="M91.29,122.18c-3.76,7.93-1.89,12.89-2.86,20.63-.37,2.9-2.57,17.7-14.18,25.69-9.52,6.57-20.2,5-22.82,4.6-3.87-.58-11.74-1.74-14.12-7-2.66-5.87,3-13.7,2.44-14-.4-.19-3.59,3.72-5.44,9.43-.7,2.17-4.66,14.45,2.58,25.78,6.87,10.74,19.32,13.58,19.82,12.83.21-.32-1.53-1.47-2.84-4.52-.29-.7-1.48-3.47-.7-4.1s3.3,1.56,5.69,3c8.48,5.07,20.81,2.86,21.44.11.17-.7-.53-.91-1.82-3.06s-3.59-6.9-2.2-8.64c1.1-1.37,3.65.25,8.5.47,1.52.08,11.58.39,14.84-5.17,2.1-3.58.54-8.2.08-9.54-2-5.9-6.35-6.77-6.2-10.27.15-3.32,4.11-3.35,7.28-7.88,3.42-4.91,2.72-11,1.31-23.15a47.54,47.54,0,0,0-2.18-8.8c-1-3.25-1.42-3.93-2-4.09C95.92,114.06,92.9,118.8,91.29,122.18Z"/><path class="cls-4" d="M174.6,129.15c2.34,20.93,3.76,22.49,4.42,24.3,1,2.61,5.19,14.12,15.94,17.42,1.07.33,9.34,2.73,15.95-1.69,8.73-5.84,7.78-19,9.54-18.86s3.87,12,.36,24.68c-1.83,6.62-4.65,16.8-12.32,19.71-10.39,3.95-23.8-7.7-25.75-5-1.11,1.57,3.12,5.55,1.87,7.09-1.12,1.38-6.28.38-9.22-2.9-4.12-4.6-2.36-12-3.8-12.17-.74-.08-1.7,1.8-2.05,3.28-.58,2.41.42,3.88-.16,4.34-.85.67-4.57-1-6.41-4.08-4.45-7.35,4-19.45,2-20.56-.71-.39-2.27.91-3.06,1.83-2.25,2.64-1.36,5.93-2.21,6.12s-3.28-2.84-3.29-6.41c0-4.95,4.63-5.73,6.72-11.8,1.78-5.17.37-10.28-.6-13.82-1.91-6.95-4.61-7.56-4.39-11.4.4-7.11,10.21-14.12,14.46-12.08C174.5,118.09,173.6,120.19,174.6,129.15Z"/><path class="cls-4" d="M115.67,125.57A123.72,123.72,0,0,0,106.49,148c-2,6.56-3,9.85-3.25,13.58-.61,8.48,2,10.35,3,22.31.76,8.39,1.17,13-.86,18.22-3.17,8.2-10.08,12.22-11.92,13.29-5.19,3-9.4,3-9.37,3.7s5.69,1.89,11.42-.08A26.8,26.8,0,0,0,112,201.56c2.7-9.6-.53-19.95-2.4-25.93-1.18-3.8-2.06-5.24-2.31-8.73s.17-7.68,4.38-17.32c5-11.48,7.35-12,10.17-20.37,2.3-6.85,3.65-15.16,2.28-15.87C122.59,112.54,117.92,121.35,115.67,125.57Z"/><path class="cls-4" d="M123.61,120.39c.21,9.67-2,13.45-2,19.57,0,7,2.72,11,4.29,15.49,8.57,24.68-17.86,66.13-13.42,78.93a13.18,13.18,0,0,0,3.61,5.67c3.11,2.48,6.56,1.49,6.6,1.9s-5.28,3.39-9.61.51c-4.92-3.29-4.79-12.65-4.77-15.61,0-2.81.39-5.81,3.16-14.3,3.75-11.46,4.9-11.61,7.25-19.41,1.64-5.46,3.64-12.27,3.65-21.38a87.32,87.32,0,0,0-1.57-15.33c-1.27-7.31-2-7.23-3.08-13.54-1-5.87-2.28-13.61,0-21.59,1.12-4,3.32-8.71,4.6-8.3S123.56,117.8,123.61,120.39Z"/><path class="cls-4" d="M130.62,128.21c-1.79,10.94-2.34,10.42-2.83,14.92-.73,6.61.23,9.88,6,36.42,2.58,12,3.2,15.1,2.1,19.7-1.81,7.59-7.17,14.55-7.67,15.18-3.69,4.72-7,6.82-6.52,7.6.54.95,6.31-.6,10.75-4.41,7.74-6.63,8.62-17.6,8.78-19.57.65-8-1.74-14.88-4.7-23.36-1.57-4.53-1.92-4.4-2.92-7.9a59.22,59.22,0,0,1-2-19.51c.31-5.29.64-10.8,3.31-17.21,2.26-5.45,4.89-8.38,3.89-12.44-.67-2.7-2.81-5.36-4.34-5C132.54,113,132.32,117.84,130.62,128.21Z"/><path class="cls-4" d="M145.51,133.58a147.36,147.36,0,0,1,7.91,25.31c1.62,7.35,2.42,11,2.48,15.13.14,9.34-2.52,11.19-4.28,24.2-1.23,9.13-1.9,14.12-.16,20a29.76,29.76,0,0,0,11.16,15.47c5,3.71,9.22,4,9.15,4.78s-5.78,1.63-11.4-1-13.26-9.63-15.45-20.44,1.64-21.8,3.84-28.2c1.4-4.07,2.36-5.58,2.81-9.39.42-3.64.26-8.43-3.41-19.31-4.37-13-6.67-13.67-9-23.09-1.91-7.68-2.8-16.88-1.39-17.56C139.32,118.78,143.5,128.78,145.51,133.58Z"/><path class="cls-5" d="M78.21,129.32c-3.89-2.14-16.37-9.67-22.41-25.29-6.16-15.93-1.63-30,.29-35.63C64.52,43.57,87.3,33,92.36,30.59c32.33-15.07,63.07-.22,66,1.25,7.55,3.8,31.41,15.82,37.05,42.88,4.8,23-5.1,47.25-12.61,49.6-.72.23-5.2,1.88-3.94,2.37,2.73,1,5.14,3.37,6.76,4.44,7.31,4.81,10.45,16.19,7.3,17-6.78,1.72-12.42-2.2-25.24-8.53-2.44,4.19-6.49,9.54-12.49,10.66-10.8,2-17-11.73-28.42-10-9.54,1.44-11.93,12-20,11-5.86-.78-6.17-6.66-11.92-7.55-10-1.56-17.72,14.73-22.22,12.56-3.14-1.52-2-10.83-.31-16.31A30.39,30.39,0,0,1,78.21,129.32Z"/><path class="cls-6" d="M78.21,129.32c-3.89-2.14-16.37-9.67-22.41-25.29-6.16-15.93-1.63-30,.29-35.63C64.52,43.57,87.3,33,92.36,30.59c32.33-15.07,63.07-.22,66,1.25,7.55,3.8,31.41,15.82,37.05,42.88,4.8,23-5.1,47.25-12.61,49.6-.72.23-5.2,1.88-3.94,2.37,2.73,1,5.14,3.37,6.76,4.44,7.31,4.81,10.45,16.19,7.3,17-6.78,1.72-12.42-2.2-25.24-8.53-2.44,4.19-6.49,9.54-12.49,10.66-10.8,2-17-11.73-28.42-10-9.54,1.44-11.93,12-20,11-5.86-.78-6.17-6.66-11.92-7.55-10-1.56-17.72,14.73-22.22,12.56-3.14-1.52-2-10.83-.31-16.31A30.39,30.39,0,0,1,78.21,129.32Z"/><path class="cls-7" d="M60.58,107c1.93,3.16,1.45,4.54,3.3,6.55,2.64,2.88,7.63,4.45,10.59,2.73,2.32-1.34,1.55-3.61,4-5s4.24,0,8.11-.11a19,19,0,0,0,9.3-3c4.85-2.88,3.57-5,10.09-10.54,2.8-2.36,5-4.22,8.5-5.35,2.37-.77,3.32-.55,5-1.6a10.27,10.27,0,0,0,4.66-7.58c.3-5-4.49-5.67-6.76-13.29-1.38-4.62-.31-6.67-2.33-8.18-3-2.25-9.37-.66-9.37-.66h0a9.17,9.17,0,0,1-1.61-1.34c-1.11-1.47,1.62-3.82.91-5.68-1-2.52-7.64-2.8-9.67-2.89s-3.15.12-4-.68c-1.52-1.39-1.14-4.42-.54-6.27.7-2.14,1.61-2.4,5.59-7.75,1.69-2.27,2.7-3.8,2.18-5.09a2.73,2.73,0,0,0-1.43-1.33c-4.84-2.27-17.62,8-19.66,9.63A65.69,65.69,0,0,0,66.76,49.65a63.19,63.19,0,0,0-8.48,13.66,55.55,55.55,0,0,0-5.14,16.78A52.33,52.33,0,0,0,54.75,101,19.69,19.69,0,0,1,60.58,107Z"/><path class="cls-7" d="M137.28,28.46c-1.94,1.68-3.6,3.12-4.41,5.52-.38,1.11-1,2.94-.14,4.42s2.58,1.55,2.68,2.66-1.77,1.83-1.56,2.53c.27.89,3.3-.23,5.67,1.28,2,1.3,1.34,3.11,3.18,4.34,2.51,1.68,6.56.18,8.7-1.2,2.57-1.66,3.74-4,4.79-6.11a14.54,14.54,0,0,0,1.64-5.11c.17-1.52.41-3.69-.61-5.5-.39-.68-.85-.89-8.65-3.33-1.26-.39-3-.93-5.31-1.52-1-.24-1.81-.43-2.43-.57A25.32,25.32,0,0,0,137.28,28.46Z"/><path class="cls-7" d="M195.16,101.63c-1.37,1.52-2.95,3.26-4.73,5.16-2.29,2.46-3,3.1-4.16,3.37a6.55,6.55,0,0,1-5.12-1.17c-1.24-.95-1.36-1.88-2.51-2.11a3.79,3.79,0,0,0-2.79.83c-1.41,1-1,1.85-2.11,2.61s-1.79.15-5.17.57a6,6,0,0,0-2.69.65c-1.66,1.28-1.32,4.22-1.18,5.4a10.64,10.64,0,0,0,2.13,5.22,11.38,11.38,0,0,0,5,3.57,13.21,13.21,0,0,0,5.31.9,5.78,5.78,0,0,0,1.59-.33,9.27,9.27,0,0,0,1.94-1.14,8.83,8.83,0,0,1,2.62-1c2.45-.73,4.77-4.41,5.83-6.09a41.87,41.87,0,0,0,4.71-11C194.46,104.78,194.9,102.9,195.16,101.63Z"/><path class="cls-7" d="M128.79,131.37a10.84,10.84,0,0,0,2.86-3.22,11.05,11.05,0,0,0,1.31-6.5c-.11-1.78-.18-2.93-1-3.44-1.16-.73-2.43.69-4.61,0-.14,0-2-.62-2.16-1.72-.08-.65.5-.88,1.28-2.36.55-1,1-1.9.73-2.74a2.76,2.76,0,0,0-1.52-1.43,5.35,5.35,0,0,0-3.68-.3c-1.51.4-1.45,1-3.76,2.37-2.08,1.2-2.62,1-3.37,1.92a5.15,5.15,0,0,0-.94,3.47c.24,2,1.65,2.36,1.71,4.38a4.23,4.23,0,0,1-.54,2.29c-.84,1.39-2.19,1.36-2.37,2.32s1.08,2,1.4,2.25c1.62,1.3,2.85.58,4,1.78.92,1,.39,1.74,1.3,2.44.65.5,1.78.4,4,.22a10.38,10.38,0,0,0,3.14-.55A8.38,8.38,0,0,0,128.79,131.37Z"/><path class="cls-7" d="M181.6,48.49a12.33,12.33,0,0,0-1.24,3.93c-.44,3,.55,4.39-.4,6.62a5.65,5.65,0,0,1-2.67,3,5.11,5.11,0,0,1-4.79-.06c-1.14-.72-1.28-1.73-2-1.72s-1.35,1.4-1.93,2.8c-2.87,7-2.93,6.44-3.39,8.36-.73,3-1.09,4.56-.47,6.16.5,1.29,1.21,1.73,1.2,2.89,0,1.78-1.73,3.12-2.61,3.79-3.32,2.52-5.21,1.14-7.09,2.9-2.28,2.14.1,4.54-2,10.62-1,3-2.18,4-2.53,7.29-.19,1.74-.37,3.72.94,5.19a4.8,4.8,0,0,0,4.47,1.43c2.47-.59,3.8-3.5,4.78-5.65,1.3-2.85,1.32-4.77,2.46-5,.57-.11.81.32,2.63,1.37s2.82,1.63,3.63,1.59c.41,0,1.68-.22,4.2-4.84s2-5.87,3.83-7.43,2.8-.57,5.6-2.5,2.32-3.39,4.74-4.36c1.17-.47,1.61-.26,5.57-1.21.67-.16,1.53,0,2-.49s.08-1.61-.23-2.63c-.61-2,0-1.41-.81-5.32a54.85,54.85,0,0,0-2.28-8.09,53.33,53.33,0,0,0-3.9-8.27,55.35,55.35,0,0,0-4.77-6.93C183.42,50.49,182.4,49.34,181.6,48.49Z"/><ellipse cx="106.79" cy="91.13" rx="12.5" ry="25.3" transform="matrix(1, -0.08, 0.08, 1, -6.81, 8.65)"/><ellipse cx="141.21" cy="90.86" rx="25.3" ry="12.5" transform="translate(41.65 226.08) rotate(-86.39)"/><ellipse class="cls-7" cx="107.56" cy="91.66" rx="11.95" ry="24.17" transform="matrix(1, -0.08, 0.08, 1, -6.85, 8.71)"/><ellipse class="cls-7" cx="140.46" cy="91.41" rx="24.17" ry="11.95" transform="translate(40.4 225.85) rotate(-86.39)"/><ellipse cx="113.74" cy="94.13" rx="5.26" ry="10.64" transform="translate(-7.03 9.2) rotate(-4.49)"/><ellipse cx="134.39" cy="94.21" rx="10.64" ry="5.26" transform="translate(31.92 222.42) rotate(-86.39)"/><circle cx="115.36" cy="83.99" r="2.08"/><circle class="cls-7" cx="115.33" cy="84.21" r="1.94"/><circle cx="137.87" cy="84.17" r="2.08"/><circle class="cls-7" cx="137.85" cy="84.39" r="1.94"/></g></svg>