<svg xmlns="http://www.w3.org/2000/svg" viewBox="0 0 256 256"><defs><style>.cls-1{fill:#ffb867;}.cls-2{fill:#ba3f2b;}.cls-3{fill:#c59690;opacity:0.71;}.cls-4{fill:#050505;}.cls-5{fill:#bc0101;}.cls-6{fill:#fff;}</style></defs><g id="фон"><rect class="cls-1" width="256" height="256"/></g><g id="Слой_20" data-name="Слой 20"><path d="M71.43,151.88c-1.54-4.69-10.08-5.54-18.29-6.36-5.41-.53-8.11-.8-10.52,0C30.23,150,28.93,173.34,30.24,173.75s5.33-18.4,13.8-18.86c1.4-.07,1.66.42,7.05,2.75,8.18,3.52,12.33,5.27,15.11,4.17C69.82,160.39,72.56,155.3,71.43,151.88Z"/><path d="M78.19,159c-6-2.74-14.63,4.67-18.57,9.54-14,17.35-4.75,47.6-1.63,47.56,3.34,0,6.84-34.65,5.92-34.83a1.42,1.42,0,0,0-.38,1.56c1.33,1.92,17.63-1.43,19.61-11.64C84,166.72,82.2,160.79,78.19,159Z"/><path d="M177.37,142c.19-4.93,8.17-8.1,15.84-11.14,5-2,7.58-3,10.13-2.85,13.12.81,20.79,23,19.65,23.7s-10.19-16.22-18.45-14.34c-1.37.31-1.48.86-6,4.58-6.89,5.64-10.4,8.45-13.38,8.16C181.26,149.74,177.23,145.6,177.37,142Z"/><path d="M190.58,148.86c4.43-4.86,15.29-1.43,20.82,1.52,19.68,10.48,23,41.94,20.1,43.13-3.08,1.28-19.84-29.22-19.07-29.74.14-.1,1.09.67,1,1.28-.47,2.3-16.78,5.59-22.6-3C188.27,158.27,187.61,152.11,190.58,148.86Z"/><path class="cls-2" d="M70.83,149c-1.51-4.61-9.9-5.44-18-6.24-5.32-.53-8-.8-10.34,0-12.18,4.3-13.45,27.29-12.17,27.69s5.25-18.08,13.57-18.53c1.37-.08,1.62.41,6.92,2.7,8,3.46,12.12,5.17,14.85,4.1C69.25,157.34,71.94,152.34,70.83,149Z"/><path class="cls-2" d="M77.47,155.93c-5.88-2.68-14.37,4.6-18.24,9.39-13.77,17-4.68,46.76-1.6,46.73,3.28,0,6.71-34.06,5.81-34.24a1.42,1.42,0,0,0-.37,1.54c1.3,1.89,17.32-1.4,19.27-11.44C83.18,163.56,81.41,157.73,77.47,155.93Z"/><path class="cls-2" d="M177,139.4c.19-4.85,8-8,15.56-10.94,5-2,7.46-3,10-2.8,12.89.79,20.43,22.54,19.31,23.28s-10-15.94-18.13-14.09c-1.35.31-1.46.85-5.92,4.5-6.78,5.54-10.23,8.31-13.15,8C180.77,147,176.81,142.94,177,139.4Z"/><path class="cls-2" d="M189.93,146.14c4.36-4.77,15-1.4,20.46,1.5,19.34,10.3,22.59,41.2,19.75,42.38-3,1.25-19.5-28.72-18.74-29.23.14-.1,1.07.66.95,1.26-.47,2.26-16.5,5.49-22.21-3C187.66,155.39,187,149.34,189.93,146.14Z"/><path d="M95.1,173.49c13.44,3.12,23.74,2.33,38.58,1.19a141.59,141.59,0,0,0,37.2-7.45c11.79-4.15,16.45-7.69,19.54-10.7,2-1.93,12.38-12.07,10.1-21.1-1.33-5.28-6.89-9.74-24.85-14.61,0,0-51.92-14.08-98.48,4.94-4.61,1.88-10.87,4.93-14.16,11.46-4.05,8.06-1.06,16.49-.87,17C66.88,166.94,83.75,170.86,95.1,173.49Z"/><path d="M183.17,151c2.93,4.13,10.86-1.24,11.73-1.83,4.48-3,6.78-7.31,9.75-12.81A79.19,79.19,0,0,0,212.72,113a89.28,89.28,0,0,0,1.18-9.76,2.8,2.8,0,0,0,1.47-.73c1.94-1.82,1.06-5.85,2.17-9.29,1.06-3.28,3.35-4.26,4.67-5.26,7.87-5.91,7.66-32,5.78-32.85-1.54-.71-5.43,14.76-13.17,23.43-1.27,1.43-3.36,3.47-5.59,2.55-1.85-.77-3-3.23-3.63-4.65-1.65-3.6-1.19-5.7-2.74-12.75-.86-4-1.36-6.19-2.09-6.34-1.21-.24-2.68,5.21-2.9,10.37-.11,2.53-.15,10.65,3.74,18,2,3.79,3.47,4.36,4.29,7.87.53,2.24.57,4.72-.43,9.48-1.16,5.49-2.5,8.26-4.6,13.68-4.77,12.27-4.6,15.31-7.58,16.91s-4.39-.72-7,1.18C182.25,137.81,180.69,147.46,183.17,151Z"/><path class="cls-2" d="M185.21,149c2.86,4,10.63-1.22,11.48-1.8,4.39-3,6.64-7.15,9.55-12.54a77.69,77.69,0,0,0,7.9-22.88,89.5,89.5,0,0,0,1.16-9.55,2.76,2.76,0,0,0,1.43-.72c1.91-1.78,1-5.72,2.13-9.09,1-3.22,3.28-4.18,4.57-5.15,7.7-5.78,7.5-31.31,5.66-32.16-1.5-.7-5.32,14.45-12.9,22.94-1.24,1.39-3.28,3.39-5.47,2.49-1.81-.75-2.92-3.16-3.55-4.55-1.62-3.53-1.17-5.58-2.68-12.49-.85-3.9-1.34-6.06-2.06-6.2-1.18-.24-2.62,5.1-2.83,10.15-.1,2.48-.15,10.43,3.66,17.63,2,3.72,3.4,4.27,4.21,7.71.51,2.19.55,4.62-.43,9.28-1.13,5.38-2.45,8.1-4.51,13.4-4.66,12-4.5,15-7.42,16.55s-4.3-.69-6.81,1.16C184.31,136.15,182.78,145.6,185.21,149Z"/><path class="cls-2" d="M96.35,172.53c13,3,22.91,2.24,37.22,1.14a136.42,136.42,0,0,0,35.9-7.18c11.38-4,15.87-7.42,18.85-10.33,1.91-1.86,11.94-11.64,9.75-20.36-1.29-5.09-6.65-9.39-24-14.09,0,0-50.1-13.59-95,4.76-4.44,1.82-10.49,4.76-13.66,11.06-3.91,7.78-1,15.91-.84,16.4C69.13,166.2,85.4,170,96.35,172.53Z"/><path class="cls-3" d="M63.65,143.05c-1.94,2.17-.51,6.33.31,8.71,3.29,9.61,12.76,14.25,18,16.74,8,3.78,14.72,4.61,22.44,5.48,11.25,1.28,19.8.55,29.15-.31a173.53,173.53,0,0,0,29.39-5.1c10.33-2.75,15.54-5.21,20.06-8.25a43.61,43.61,0,0,0,10-9.42c4.82-6.25,5.2-10.35,5.27-11.5.08-1.32.34-5.69-2-7.19-2-1.23-3.49-.65-6.38-.38-4.37.41-8.37,1.73-10.51,1.49-2-.23-6.11-8.4-8.64-5.71-1.52,1.63-1,4.74-4.9,10.56,0,0-17.18,5.44-31,5.2a14.55,14.55,0,0,1-7.76-2,11.27,11.27,0,0,1-3.09-2.74c-1.88-2.43-1.33-3.92-3-5.34-1.24-1.05-3.42-1.82-4.9-1.06s-1.16,2.92-2.85,6.28a21.55,21.55,0,0,1-3.37,4.52c-4,4.28-13.48,4.2-21.61,3.24C73.1,144.41,66.43,139.93,63.65,143.05Z"/><path class="cls-4" d="M113,108.75a85.78,85.78,0,0,0-1.32-10.36c-.76-4.5-1.64-9-2.6-13.45a15.8,15.8,0,0,1-.37-3.57,2.66,2.66,0,0,1,1.14-2.29,20,20,0,0,1,6-2.73,45.45,45.45,0,0,1,13-1.83,70.29,70.29,0,0,1,10.66.38,21.54,21.54,0,0,1,7.95,2.54c1.82,1,2.27,2,1.94,4.13-1,6.69-1.55,13.43-1.87,20.19-.09,2.06-.09,4.12-.18,6.18a2.7,2.7,0,0,0-.41.08c-1.2.53-2.37,1.11-3.56,1.65A23.77,23.77,0,0,1,139,111.1a43.91,43.91,0,0,1-9.62,1.2,52.15,52.15,0,0,1-10.86-1.21A11.09,11.09,0,0,1,113,108.75Z"/><path class="cls-4" d="M147.44,109.93a19.24,19.24,0,0,1,6.16,1.18c3.4,1.36,3.89,5,1,7.34a22.9,22.9,0,0,1-6.46,3.47,54.92,54.92,0,0,1-16.2,3,65.32,65.32,0,0,1-18.34-1.39,23.65,23.65,0,0,1-6.51-2.32,10.21,10.21,0,0,1-1.06-.7,4.13,4.13,0,0,1,.37-7,16.3,16.3,0,0,1,5.48-2l1.11-.22c0,.9.09,1.79.13,2.68a1.51,1.51,0,0,0,.86,1.37,12.72,12.72,0,0,0,1.94.83A43.18,43.18,0,0,0,122,117.5a51.68,51.68,0,0,0,10.25.38,41.11,41.11,0,0,0,11-2,9,9,0,0,0,3.58-2,1.91,1.91,0,0,0,.62-1.65A8.92,8.92,0,0,1,147.44,109.93Z"/><path class="cls-5" d="M147.44,109.93a8.92,8.92,0,0,0,0,2.25,1.91,1.91,0,0,1-.62,1.65,9,9,0,0,1-3.58,2,41.11,41.11,0,0,1-11,2A51.68,51.68,0,0,1,122,117.5a43.18,43.18,0,0,1-6.07-1.32,12.72,12.72,0,0,1-1.94-.83,1.51,1.51,0,0,1-.86-1.37c0-.89-.09-1.78-.13-2.68s0-1.7,0-2.55a11.09,11.09,0,0,0,5.5,2.34,52.15,52.15,0,0,0,10.86,1.21,43.91,43.91,0,0,0,9.62-1.2,23.77,23.77,0,0,0,4.32-1.43c1.19-.54,2.36-1.12,3.56-1.65a2.7,2.7,0,0,1,.41-.08C147.5,108.59,147.15,109.29,147.44,109.93Z"/><path d="M80.72,165.89c-4.24,3.33-15.36-3.75-16.58-4.52-6.29-4-9.46-8.69-13.54-14.73a72.88,72.88,0,0,1-10.92-24.57,64,64,0,0,1-1.46-9.76,5.46,5.46,0,0,1-2.06-1c-2.72-2.22-1.37-5.92-2.87-9.53-1.43-3.43-4.66-4.92-6.51-6.19-11-7.58-10.15-32.85-7.46-33.25,2.19-.34,7.37,15.6,18.15,25.83,1.77,1.68,4.68,4.15,7.86,3.78,2.64-.31,4.3-2.44,5.25-3.66C53,85.13,52.4,83,54.74,76.49c1.32-3.66,2.07-5.69,3.11-5.66,1.72,0,3.68,5.69,3.88,10.75.09,2.48,0,10.38-5.7,16.61-2.94,3.22-5,3.42-6.26,6.64-.79,2-.91,4.45.4,9.3,1.52,5.61,3.36,8.62,6.23,14.37,6.48,13,6.17,15.94,10.36,18.19s6.24.34,9.84,2.78C82.31,153.35,84.31,163.08,80.72,165.89Z"/><path class="cls-2" d="M79,164.42c-4,3.23-14.36-3.49-15.5-4.23-5.86-3.79-8.78-8.27-12.56-14.05a69.88,69.88,0,0,1-10.05-23.53,65.61,65.61,0,0,1-1.29-9.37,5.15,5.15,0,0,1-1.92-1c-2.53-2.12-1.24-5.69-2.62-9.14-1.31-3.29-4.32-4.7-6.05-5.91C18.73,90,19.73,65.71,22.25,65.29,24.31,65,29,80.24,39.06,90c1.64,1.6,4.35,4,7.34,3.57,2.47-.31,4-2.37,4.94-3.55,2.29-3,1.74-5.07,4-11.33,1.27-3.53,2-5.48,3-5.46,1.61,0,3.41,5.44,3.55,10.3.07,2.38-.1,10-5.46,16-2.78,3.11-4.73,3.33-5.92,6.43-.75,2-.88,4.28.31,8.94,1.38,5.37,3.09,8.25,5.72,13.76,6,12.48,5.67,15.28,9.58,17.41s5.84.28,9.18,2.59C80.57,152.35,82.36,161.69,79,164.42Z"/><ellipse class="cls-6" cx="118.08" cy="137.05" rx="4.78" ry="6.32" transform="translate(-18.73 18.69) rotate(-8.39)"/><ellipse class="cls-6" cx="172.39" cy="132.03" rx="4.78" ry="6.32" transform="translate(-17.42 26.57) rotate(-8.39)"/><ellipse cx="118.51" cy="136.24" rx="3.61" ry="4.77" transform="matrix(0.99, -0.15, 0.15, 0.99, -18.61, 18.75)"/><ellipse cx="172.26" cy="131.19" rx="3.61" ry="4.77" transform="translate(-17.3 26.54) rotate(-8.39)"/><circle cx="119.32" cy="132.89" r="1.64"/><circle class="cls-6" cx="119.04" cy="132.88" r="1.36"/><circle cx="173.51" cy="127.86" r="1.64"/><circle class="cls-6" cx="173.24" cy="127.85" r="1.36"/></g></svg>