<svg xmlns="http://www.w3.org/2000/svg" viewBox="0 0 359.24 89.562"><path d="M0,87.92V2.18H13.48q11.73,0,17.16,1.51A23.06,23.06,0,0,1,42.9,11.27a20,20,0,0,1,4.58,13.04,19.005,19.005,0,0,1-2.1,8.87,22.63,22.63,0,0,1-6.73,7.5q7.83,3.68,11.43,9.2a23.267,23.267,0,0,1,3.61,13,24.25,24.25,0,0,1-3.74,13.17,23.783,23.783,0,0,1-9.63,8.89q-5.88,3-16.28,2.95Zm16.32-70.2V35.8h3.57c4,0,6.93-.84,8.87-2.51a8.541,8.541,0,0,0,2.89-6.82,8,8,0,0,0-2.75-6.38q-2.74-2.37-8.37-2.37Zm0,32.65v22h4.09q10.17,0,13.71-2.56a8.638,8.638,0,0,0,3.54-7.46,10.479,10.479,0,0,0-4.18-8.77q-4.159-3.21-13.8-3.21Z"/><path d="M61.48,24.49H77.57V55.04q0,8.91,1.23,12.39a10.815,10.815,0,0,0,3.94,5.39,11.29,11.29,0,0,0,6.74,1.92,11.713,11.713,0,0,0,6.75-1.89,11.154,11.154,0,0,0,4.13-5.57q1-2.749,1-11.72V24.49h15.92V51.36q0,16.62-2.63,22.74a24.831,24.831,0,0,1-9.44,11.46q-6.24,4-15.86,4-10.44,0-16.88-4.66a24.673,24.673,0,0,1-9.07-13q-1.86-5.771-1.86-21Z"/><path d="M143.02,0V31.48a30,30,0,0,1,9.33-6.47,27,27,0,0,1,10.73-2.15,27.681,27.681,0,0,1,21.1,9.38q8.69,9.39,8.69,24.08,0,14.16-9,23.7t-21.28,9.53a26.4,26.4,0,0,1-10.2-2A31.011,31.011,0,0,1,143,81.16v6.71H127.2V0Zm16.73,37.55a16.6,16.6,0,0,0-12.47,5.13q-5,5.13-5,13.41,0,8.45,5,13.67a16.461,16.461,0,0,0,12.47,5.22,16.162,16.162,0,0,0,12.27-5.31,18.913,18.913,0,0,0,5-13.52q0-8.22-4.9-13.38a16.209,16.209,0,0,0-12.37-5.22Z"/><path d="M215.87,0V31.48a30.139,30.139,0,0,1,9.33-6.47,27,27,0,0,1,10.73-2.15,27.661,27.661,0,0,1,21.1,9.38q8.681,9.39,8.69,24.08,0,14.16-9,23.7t-21.24,9.53a26.472,26.472,0,0,1-10.2-2,31.011,31.011,0,0,1-9.39-6.39v6.71h-15.8V0ZM232.6,37.55a16.6,16.6,0,0,0-12.47,5.13q-5,5.13-5,13.41,0,8.45,5,13.67a16.461,16.461,0,0,0,12.47,5.22,16.189,16.189,0,0,0,12.28-5.31,18.913,18.913,0,0,0,5-13.52q0-8.22-4.9-13.38a16.208,16.208,0,0,0-12.38-5.22Z"/><path d="M271.18,0h15.91V87.92H271.18Z"/><path d="M359.13,60.81H308a17,17,0,0,0,5.92,10.76q4.8,4,12.27,4a21.2,21.2,0,0,0,15.29-6.25l13.41,6.3a31.563,31.563,0,0,1-12,10.52,37.579,37.579,0,0,1-16.61,3.41q-14.929,0-24.32-9.41t-9.38-23.59q0-14.5,9.36-24.1t23.54-9.59q15,0,24.37,9.59t9.39,25.33ZM343.21,48.27a15.917,15.917,0,0,0-6.22-8.62,18,18,0,0,0-10.77-3.33,19.1,19.1,0,0,0-11.68,3.73q-3.15,2.34-5.84,8.22Z"/></svg>