<svg xmlns="http://www.w3.org/2000/svg" viewBox="0 0 504.71 137.19"><defs><style>.cls-1{fill:#fff;}</style></defs><g id="Слой_2" data-name="Слой 2"><g id="Слой_1-2" data-name="Слой 1"><polygon points="122.86 25.08 104.16 67.35 128.38 106.71 82.41 101.99 52.45 137.19 42.73 92.01 0 74.4 39.97 51.19 43.51 5.11 77.93 35.95 122.86 25.08"/><polygon points="138.77 60.25 99.94 85.32 98.58 131.51 62.73 102.33 18.38 115.31 35.06 72.21 9.01 34.03 55.15 36.57 83.41 0 95.25 44.68 138.77 60.25"/><circle cx="71.12" cy="68.29" r="56.78"/><polygon class="cls-1" points="119.09 28.23 101.72 67.49 124.22 104.05 81.52 99.67 53.69 132.37 44.66 90.39 4.97 74.04 42.1 52.48 45.39 9.68 77.36 38.33 119.09 28.23"/><polygon class="cls-1" points="133.87 60.89 97.8 84.18 96.53 127.09 63.24 99.98 22.04 112.04 37.53 72 13.33 36.54 56.2 38.9 82.45 4.93 93.45 46.43 133.87 60.89"/><circle class="cls-1" cx="71.03" cy="68.37" r="52.74"/><ellipse class="cls-1" cx="53.18" cy="53.8" rx="12.23" ry="18.09"/><ellipse cx="53.18" cy="53.8" rx="8.2" ry="14.15"/><path d="M69.07,67.54c-19.77,0-37.24,8.53-47.83,21.59a54.27,54.27,0,0,0,98.09,3.25C109.13,77.51,90.44,67.54,69.07,67.54Z"/><path class="cls-1" d="M69.11,68.29c-19.22,0-36.21,8.3-46.5,21A52.78,52.78,0,0,0,118,92.45C108.05,78,89.88,68.29,69.11,68.29Z"/><path d="M71.38,80.73H69.3c-3.66,0-6.13,1.68-6.13,3.91s1.93,3.46,4.65,3.46a11.5,11.5,0,0,0,5.78-1.68l1.09,2.67a15.21,15.21,0,0,1-8,2.17c-3.66,0-8.11-1.63-8.11-6.28,0-3,2.72-4.89,5.39-5.44v-.09c-3.56-.3-6.53-2.48-6.53-6,0-5.19,5.29-7.12,10.34-7.12a16.33,16.33,0,0,1,7.76,1.93l-1.14,2.92a13.78,13.78,0,0,0-6.33-1.63c-3.6,0-5.88,1.73-5.88,4.1,0,3.21,3.36,4.1,7,4.1h2.18Z"/><ellipse cx="85.59" cy="54.02" rx="12.74" ry="18.85"/><ellipse class="cls-1" cx="85.59" cy="53.8" rx="12.23" ry="18.09"/><ellipse cx="85.59" cy="53.8" rx="8.2" ry="14.15"/><circle class="cls-1" cx="90.76" cy="44.4" r="4.31"/><ellipse cx="53.02" cy="53.8" rx="12.74" ry="18.85"/><ellipse class="cls-1" cx="53.02" cy="53.58" rx="12.23" ry="18.09"/><ellipse cx="53.02" cy="53.58" rx="8.2" ry="14.15"/><circle class="cls-1" cx="58.19" cy="44.19" r="4.31"/><path d="M145.52,111.86V26.1H159q11.73,0,17.16,1.51a23.06,23.06,0,0,1,12.26,7.58A20,20,0,0,1,193,48.25a19,19,0,0,1-2.07,8.89,22.63,22.63,0,0,1-6.73,7.5Q192,68.3,195.6,73.82a23.27,23.27,0,0,1,3.61,13A24.25,24.25,0,0,1,195.47,100a23.79,23.79,0,0,1-9.63,8.89q-5.88,3-16.28,3Zm16.32-70.2V59.74h3.57c4,0,6.93-.84,8.87-2.51a8.54,8.54,0,0,0,2.89-6.82A8,8,0,0,0,174.42,44q-2.74-2.37-8.37-2.37Zm0,32.65v22h4.09q10.17,0,13.71-2.56a8.65,8.65,0,0,0,3.54-7.47A10.47,10.47,0,0,0,179,77.52q-4.16-3.21-13.8-3.21Z"/><path d="M207,48.43h16.09V79q0,8.91,1.23,12.39a10.82,10.82,0,0,0,3.94,5.39A11.29,11.29,0,0,0,235,98.68a11.71,11.71,0,0,0,6.75-1.89,11.15,11.15,0,0,0,4.13-5.57q1-2.75,1-11.72V48.43h15.92V75.3q0,16.62-2.63,22.74a24.83,24.83,0,0,1-9.44,11.46q-6.24,4-15.86,4-10.44,0-16.88-4.66a24.67,24.67,0,0,1-9.07-13q-1.86-5.77-1.86-21Z"/><path d="M288.54,23.94V55.42A30,30,0,0,1,297.87,49,27,27,0,0,1,308.6,46.8a27.68,27.68,0,0,1,21.1,9.38q8.69,9.39,8.69,24.08,0,14.16-9,23.7t-21.28,9.53a26.4,26.4,0,0,1-10.2-1.95,31,31,0,0,1-9.39-6.39v6.71h-15.8V23.94Zm16.73,37.55a16.6,16.6,0,0,0-12.47,5.13q-5,5.13-5,13.41,0,8.44,5,13.67a16.46,16.46,0,0,0,12.47,5.22,16.16,16.16,0,0,0,12.27-5.31q5-5.31,5-13.53t-4.9-13.38A16.24,16.24,0,0,0,305.27,61.49Z"/><path d="M361.39,23.94V55.42A30.14,30.14,0,0,1,370.72,49a27,27,0,0,1,10.73-2.15,27.66,27.66,0,0,1,21.1,9.38q8.68,9.39,8.69,24.08,0,14.16-9,23.7T381,113.49a26.47,26.47,0,0,1-10.2-1.95,31,31,0,0,1-9.39-6.39v6.71h-15.8V23.94Zm16.73,37.55a16.6,16.6,0,0,0-12.47,5.13q-5,5.13-5,13.41,0,8.44,5,13.67a16.46,16.46,0,0,0,12.47,5.22,16.19,16.19,0,0,0,12.28-5.31,19,19,0,0,0,5-13.53q0-8.16-4.9-13.38A16.24,16.24,0,0,0,378.12,61.49Z"/><path d="M416.7,23.94h15.91v87.92H416.7Z"/><path d="M504.65,84.75H453.52a17,17,0,0,0,5.92,10.76q4.8,4,12.27,4A21.2,21.2,0,0,0,487,93.26l13.41,6.3a31.56,31.56,0,0,1-12,10.52,37.58,37.58,0,0,1-16.61,3.41q-14.93,0-24.32-9.41t-9.38-23.59q0-14.51,9.36-24.1T471,46.8q15,0,24.37,9.59t9.39,25.33ZM488.73,72.21a15.92,15.92,0,0,0-6.22-8.62,18,18,0,0,0-10.77-3.33A19.1,19.1,0,0,0,460.06,64q-3.15,2.34-5.84,8.22Z"/></g></g></svg>