<svg xmlns="http://www.w3.org/2000/svg" xmlns:xlink="http://www.w3.org/1999/xlink" viewBox="0 0 770 108"><defs><linearGradient id="a" x1="20" y1="71" x2="790" y2="71" gradientUnits="userSpaceOnUse"><stop offset="0" stop-color="#290055"/><stop offset="1" stop-color="#31006a"/></linearGradient><linearGradient id="b" x1="8" y1="53" x2="100" y2="53" gradientUnits="userSpaceOnUse"><stop offset="0" stop-color="#b794ff"/><stop offset="1" stop-color="#34007f"/></linearGradient><linearGradient id="c" x1="22" y1="53" x2="86" y2="53" gradientUnits="userSpaceOnUse"><stop offset="0" stop-color="#fff" stop-opacity="0.8"/><stop offset="1" stop-color="#8995e1" stop-opacity="0"/></linearGradient></defs><path d="M707.59,125H72.9778A52.9778,52.9778,0,0,1,20,72.0222V69.9778A52.9778,52.9778,0,0,1,72.9778,17H766.4543L790,40.5457V42.59Z" transform="translate(-20 -17)" style="fill:url(#a)"/><circle cx="54" cy="53" r="46" style="fill:url(#b)"/><circle cx="54" cy="53" r="32" style="fill:url(#c)"/><path d="M101.6045,41.469l-3.73,3.73a36.1765,36.1765,0,0,0-8.6094-11.7972,36.2579,36.2579,0,0,1,12.339,8.0676Z" transform="translate(-20 -17)" style="fill:#efc2a6"/><path d="M110.2813,54.1556l-8.3952,3.4992a36.6509,36.6509,0,0,0-3.1014-11.376l3.73-3.73A35.82,35.82,0,0,1,110.2813,54.1556Z" transform="translate(-20 -17)" style="fill:#efb198"/><path d="M101.8157,69.23a36.4916,36.4916,0,0,0,.3762-10.3554l8.3952-3.4992A36.1591,36.1591,0,0,1,113.3663,69.23Z" transform="translate(-20 -17)" style="fill:#ef9e89"/><path d="M110.0731,85.6087a36.592,36.592,0,0,1-2.1186,4.3,36.044,36.044,0,0,1-5.715,7.4628l-8.7786-8.7786a36.2506,36.2506,0,0,0,3.4758-4.9842q.7992-1.38,1.4634-2.8026Z" transform="translate(-20 -17)" style="fill:#ef8474"/><path d="M101.414,98.2357a35.86,35.86,0,0,1-11.6082,7.7652L85.61,95.9389a36.2708,36.2708,0,0,0,7.0254-6.4818Z" transform="translate(-20 -17)" style="fill:#ef786a"/><path d="M88.6243,106.5153A36.1574,36.1574,0,0,1,74.77,109.2927v-7.99a36.6506,36.6506,0,0,0,9.6588-4.8492Z" transform="translate(-20 -17)" style="fill:#f48072"/><path d="M113.2089,70.7611a35.782,35.782,0,0,1-2.7108,13.7l-11.673-4.8024a36.0805,36.0805,0,0,0,2.8332-8.8974Z" transform="translate(-20 -17)" style="fill:#ef8b79"/><path d="M73.2389,101.5719v7.99a35.8136,35.8136,0,0,1-13.7-2.709l1.42-3.4542A36.509,36.509,0,0,0,73.2389,101.5719Z" transform="translate(-20 -17)" style="fill:#f98e7f"/><path d="M59.79,103.2547l-1.42,3.4542a36.6051,36.6051,0,0,1-8.7768-5.1678A36.1927,36.1927,0,0,0,59.79,103.2547Z" transform="translate(-20 -17)" style="fill:#fe9b8b"/><circle cx="41.2" cy="33.8" r="1.6" style="fill:#fff"/><circle cx="44.7" cy="45.1" r="1.3" style="fill:#fff"/><circle cx="66" cy="59.4" r="1.2" style="fill:#fff"/><circle cx="66" cy="70.8" r="1.2" style="fill:#fff"/><circle cx="44.7" cy="57.9" r="1.3" style="fill:#fff"/><g style="opacity:0.5"><circle cx="28" cy="48" r="1.6" style="fill:#fff"/><circle cx="36.1" cy="34.3" r="1.1" style="fill:#fff"/><circle cx="60.7" cy="63.7" r="0.9" style="fill:#fff"/><circle cx="50.5" cy="52.9" r="0.9" style="fill:#fff"/><circle cx="69.3" cy="40.7" r="1.5" style="fill:#fff"/><circle cx="62.7" cy="30.5" r="1.1" style="fill:#fff"/><circle cx="76.2" cy="54.6" r="0.8" style="fill:#fff"/><circle cx="39.6" cy="72" r="0.8" style="fill:#fff"/><circle cx="32.6" cy="62.8" r="1.2" style="fill:#fff"/><circle cx="54" cy="75.8" r="0.8" style="fill:#fff"/><circle cx="52.5" cy="35.1" r="0.7" style="fill:#fff"/><circle cx="60.6" cy="47.4" r="0.6" style="fill:#fff"/></g><path d="M139.0239,94.0059l8.9282-48.8877h6.48L167.4639,76.51l13.6079-31.3916h6.48l8.0644,48.8877h-9.5044l-4.32-29.5918-13.1758,30.24h-2.5923l-12.6-30.24-4.896,29.5918Z" transform="translate(-20 -17)" style="fill:#efc2a6"/><path d="M203.5,53.3623a5.2152,5.2152,0,1,1,3.708,1.5479A5.0568,5.0568,0,0,1,203.5,53.3623Zm-.6841,9.4678H211.6V94.0059h-8.7842Z" transform="translate(-20 -17)" style="fill:#efc2a6"/><path d="M243.855,66.8623V40.0781h8.7837V94.0059H243.855V89.9736a11.0969,11.0969,0,0,1-9.5762,5.04A14.8681,14.8681,0,0,1,222.7949,90.19a16.8178,16.8178,0,0,1-4.4282-11.8077,16.8989,16.8989,0,0,1,4.32-11.8076,14.39,14.39,0,0,1,11.16-4.7519Q240.6135,61.8223,243.855,66.8623Zm-1.584,5.2559a8.8664,8.8664,0,0,0-12.3843,0,8.6355,8.6355,0,0,0-2.4477,6.2636,8.7554,8.7554,0,0,0,2.4477,6.3,8.7768,8.7768,0,0,0,12.3843,0,8.76,8.76,0,0,0,2.4478-6.3A8.64,8.64,0,0,0,242.271,72.1182Z" transform="translate(-20 -17)" style="fill:#efc2a6"/><path d="M260.99,94.0059V62.83h8.7842v4.0322a11.2789,11.2789,0,0,1,9.648-5.04q6.1187,0,9.2163,3.8154,2.4462,3.0249,2.4477,8.7842v19.584h-8.7842V77.0137q0-4.39-1.6557-6.12a5.41,5.41,0,0,0-4.104-1.584,6.0327,6.0327,0,0,0-5.4,2.7363,11.2821,11.2821,0,0,0-1.3682,6.0479V94.0059Z" transform="translate(-20 -17)" style="fill:#efc2a6"/><path d="M300.1221,53.3623A5.2152,5.2152,0,1,1,303.83,54.91,5.0569,5.0569,0,0,1,300.1221,53.3623ZM299.438,62.83h8.7847V94.0059H299.438Z" transform="translate(-20 -17)" style="fill:#efc2a6"/><path d="M340.334,66.8623V62.83h8.7832V92.8535q0,2.7363-.1074,4.1768a16.9893,16.9893,0,0,1-.9366,3.8877A13.27,13.27,0,0,1,345.59,105.31q-4.8252,5.4711-13.0322,5.4726a18.2058,18.2058,0,0,1-11.3408-3.5283,13.7682,13.7682,0,0,1-5.4356-9.5762h9.504a6.499,6.499,0,0,0,2.4482,4.14,7.8661,7.8661,0,0,0,4.8955,1.4765,8.0691,8.0691,0,0,0,3.709-.7919,5.96,5.96,0,0,0,3.4551-4.1758,14.2877,14.2877,0,0,0,.4687-2.1963c.0469-.5039.0723-1.044.0723-1.62V89.83a10.7961,10.7961,0,0,1-9.5762,5.1836A14.6751,14.6751,0,0,1,319.3809,90.19a16.8976,16.8976,0,0,1-4.3916-11.8077,17.17,17.17,0,0,1,4.248-11.7,14.2658,14.2658,0,0,1,11.3037-4.8593A10.9649,10.9649,0,0,1,340.334,66.8623Zm-1.44,5.2559a8.8658,8.8658,0,0,0-12.3838,0,8.6339,8.6339,0,0,0-2.4483,6.2636,8.7538,8.7538,0,0,0,2.4483,6.3,8.7762,8.7762,0,0,0,12.3838,0,8.7579,8.7579,0,0,0,2.4482-6.3A8.6379,8.6379,0,0,0,338.8936,72.1182Z" transform="translate(-20 -17)" style="fill:#efc2a6"/><path d="M357.4688,94.0059V40.0781h8.7841V66.8623a11.278,11.278,0,0,1,9.6475-5.04q6.12,0,9.2168,3.8154,2.4462,3.0249,2.4473,8.7842v19.584h-8.7833V77.0137q0-4.39-1.6562-6.12a5.4094,5.4094,0,0,0-4.1035-1.584,6.033,6.033,0,0,0-5.4,2.7363,11.2867,11.2867,0,0,0-1.3682,6.0479V94.0059Z" transform="translate(-20 -17)" style="fill:#efc2a6"/><path d="M410.748,70.3174h-6.0468V94.0059H395.916V70.3174h-3.4551V62.83h3.4551V52.1738h8.7852V62.83h6.0468Z" transform="translate(-20 -17)" style="fill:#efc2a6"/><path d="M459.3467,54.0459h-10.8v39.96h-9.3594v-39.96H428.3867V45.9814h30.96Z" transform="translate(-20 -17)" style="fill:#efc2a6"/><path d="M483.6113,66.8623V62.83h8.7842V94.0059h-8.7842V89.9736a11.0966,11.0966,0,0,1-9.5761,5.04A14.8683,14.8683,0,0,1,462.5508,90.19a16.8215,16.8215,0,0,1-4.4278-11.8077,16.899,16.899,0,0,1,4.32-11.8076,14.3907,14.3907,0,0,1,11.16-4.7519Q480.37,61.8223,483.6113,66.8623Zm-1.584,5.2559a8.8657,8.8657,0,0,0-12.3837,0,8.6335,8.6335,0,0,0-2.4483,6.2636,8.7534,8.7534,0,0,0,2.4483,6.3,8.7761,8.7761,0,0,0,12.3837,0,8.7617,8.7617,0,0,0,2.4483-6.3A8.6416,8.6416,0,0,0,482.0273,72.1182Z" transform="translate(-20 -17)" style="fill:#efc2a6"/><path d="M500.7461,94.0059V62.83H509.53v4.0322a11.2785,11.2785,0,0,1,9.6484-5.04q6.1186,0,9.2158,3.8154,2.4464,3.0249,2.4483,8.7842v19.584h-8.7842V77.0137q0-4.39-1.6563-6.12a5.41,5.41,0,0,0-4.1044-1.584,6.0327,6.0327,0,0,0-5.4,2.7363,11.2868,11.2868,0,0,0-1.3681,6.0479V94.0059Z" transform="translate(-20 -17)" style="fill:#efc2a6"/><path d="M562.9531,66.8623V62.83h8.7842V92.8535q0,2.7363-.1074,4.1768a16.9934,16.9934,0,0,1-.9365,3.8877A13.2734,13.2734,0,0,1,568.21,105.31q-4.8252,5.4711-13.0323,5.4726a18.2009,18.2009,0,0,1-11.34-3.5283,13.7688,13.7688,0,0,1-5.4365-9.5762h9.5039a6.499,6.499,0,0,0,2.4482,4.14,7.8689,7.8689,0,0,0,4.8965,1.4765,8.0674,8.0674,0,0,0,3.708-.7919,5.9645,5.9645,0,0,0,3.4561-4.1758,14.3685,14.3685,0,0,0,.4677-2.1963q.07-.7558.0713-1.62V89.83a10.7922,10.7922,0,0,1-9.5752,5.1836A14.6715,14.6715,0,0,1,542.002,90.19a16.8939,16.8939,0,0,1-4.3926-11.8077,17.17,17.17,0,0,1,4.248-11.7,14.2672,14.2672,0,0,1,11.3037-4.8593A10.9621,10.9621,0,0,1,562.9531,66.8623Zm-1.4394,5.2559a8.8658,8.8658,0,0,0-12.3838,0,8.6339,8.6339,0,0,0-2.4483,6.2636,8.7538,8.7538,0,0,0,2.4483,6.3,8.7762,8.7762,0,0,0,12.3838,0,8.7621,8.7621,0,0,0,2.4482-6.3A8.642,8.642,0,0,0,561.5137,72.1182Z" transform="translate(-20 -17)" style="fill:#efc2a6"/><path d="M602.625,83.998l8.0645,1.2959a13.7843,13.7843,0,0,1-1.3321,2.5557,24.3,24.3,0,0,1-2.5566,3.0967,12.237,12.237,0,0,1-4.68,2.9512,19.0593,19.0593,0,0,1-6.7676,1.1162q-7.3448,0-11.9521-4.3916-4.897-4.607-4.8965-12.168a16.567,16.567,0,0,1,4.7519-12.24q4.4634-4.3917,11.7364-4.3916,7.919,0,12.1679,5.1113,3.7426,4.4649,3.7442,12.24v.72H587.5771a8.7284,8.7284,0,0,0,1.5118,5.2558,7.2811,7.2811,0,0,0,6.2646,2.9522A7.8451,7.8451,0,0,0,602.625,83.998Zm-14.76-9.72h14.76a7.0311,7.0311,0,0,0-2.6279-4.6445,7.6955,7.6955,0,0,0-4.7881-1.62,7.4882,7.4882,0,0,0-4.7158,1.6562A7.1141,7.1141,0,0,0,587.8652,74.2783Z" transform="translate(-20 -17)" style="fill:#efc2a6"/><path d="M617.6719,94.0059V62.83h8.7842v4.68a10.1523,10.1523,0,0,1,3.8877-4.32,9.496,9.496,0,0,1,5.1845-1.3672,11.2035,11.2035,0,0,1,3.7442.72L638.12,70.75a7.9583,7.9583,0,0,0-9.9355,1.3682q-1.7286,2.1591-1.7285,6.9121V94.0059Z" transform="translate(-20 -17)" style="fill:#efc2a6"/><path d="M644.2764,53.3623a5.2152,5.2152,0,1,1,3.708,1.5479A5.0559,5.0559,0,0,1,644.2764,53.3623Zm-.6846,9.4678h8.7842V94.0059h-8.7842Z" transform="translate(-20 -17)" style="fill:#efc2a6"/><path d="M660.7266,94.0059V62.83h8.7841v4.0322a11.2788,11.2788,0,0,1,9.6485-5.04q6.1186,0,9.2158,3.8154,2.4463,3.0249,2.4482,8.7842v19.584h-8.7841V77.0137q0-4.39-1.6563-6.12a5.41,5.41,0,0,0-4.1045-1.584,6.0324,6.0324,0,0,0-5.3994,2.7363,11.2867,11.2867,0,0,0-1.3682,6.0479V94.0059Z" transform="translate(-20 -17)" style="fill:#efc2a6"/><path d="M721.7109,83.998l8.0645,1.2959a13.7837,13.7837,0,0,1-1.332,2.5557,24.3027,24.3027,0,0,1-2.5567,3.0967,12.2362,12.2362,0,0,1-4.68,2.9512,19.0588,19.0588,0,0,1-6.7675,1.1162q-7.3447,0-11.9522-4.3916-4.8969-4.607-4.8965-12.168a16.5667,16.5667,0,0,1,4.752-12.24q4.4634-4.3917,11.7363-4.3916,7.9189,0,12.168,5.1113,3.7426,4.4649,3.7441,12.24v.72H706.6631a8.7284,8.7284,0,0,0,1.5117,5.2558,7.2811,7.2811,0,0,0,6.2647,2.9522A7.8449,7.8449,0,0,0,721.7109,83.998Zm-14.76-9.72h14.76a7.0311,7.0311,0,0,0-2.6279-4.6445,7.6955,7.6955,0,0,0-4.7881-1.62,7.4884,7.4884,0,0,0-4.7158,1.6562A7.114,7.114,0,0,0,706.9512,74.2783Z" transform="translate(-20 -17)" style="fill:#efc2a6"/></svg>