<svg width="61" height="50" viewBox="0 0 61 50" fill="none" xmlns="http://www.w3.org/2000/svg">
<path fill-rule="evenodd" clip-rule="evenodd" d="M60.6167 0H10C4.47715 0 0 4.47715 0 10V40C0 45.5228 4.47715 50 10 50H47.018L60.6167 0Z" fill="#00509D"/>
<path d="M6.2541 14H18.8541C20.9541 14 22.4741 14.48 23.4141 15.44C24.3741 16.38 24.8541 17.9 24.8541 20V22.7C24.8541 24.36 24.5741 25.65 24.0141 26.57C23.4741 27.49 22.6041 28.1 21.4041 28.4L25.1541 35H19.3041L15.8541 28.7H11.6541V35H6.2541V14ZM19.4541 20C19.4541 18.8 18.8541 18.2 17.6541 18.2H11.6541V24.5H17.6541C18.8541 24.5 19.4541 23.9 19.4541 22.7V20ZM41.3459 14H46.7459V29.3C46.7459 31.4 46.2659 32.93 45.3059 33.89C44.3659 34.83 42.8459 35.3 40.7459 35.3H33.8459C31.7459 35.3 30.2159 34.83 29.2559 33.89C28.3159 32.93 27.8459 31.4 27.8459 29.3V14H33.2459V29.3C33.2459 30.5 33.8459 31.1 35.0459 31.1H39.5459C40.7459 31.1 41.3459 30.5 41.3459 29.3V14Z" fill="white"/>
</svg>
