<svg width="423" height="472" viewBox="0 0 423 472" fill="none" xmlns="http://www.w3.org/2000/svg">
<mask id="path-1-inside-1_74_380" fill="white">
<path fill-rule="evenodd" clip-rule="evenodd" d="M188.084 50.6596C190.324 57.4669 187.158 64.7537 180.935 67.8685L184.039 160.02L299.686 121.965C318.047 115.923 337.83 125.91 343.872 144.271L395.635 301.576C401.677 319.938 391.69 339.721 373.329 345.763L346.897 354.46L359.449 392.606C359.634 393.167 359.766 393.732 359.849 394.297L360.135 394.69L359.914 394.851C360.318 399.377 357.578 403.749 353.076 405.231L344.536 408.041C342.09 408.846 339.556 408.655 337.372 407.691C334.838 407.299 332.454 405.939 330.822 403.704L304.954 368.262L187.565 406.89L187.798 450.767C187.813 453.534 186.702 456.045 184.896 457.865C183.712 459.937 181.786 461.596 179.34 462.401L170.8 465.211C166.299 466.692 161.498 464.801 159.135 460.92L158.861 460.921L158.859 460.436C158.59 459.932 158.36 459.398 158.176 458.837L145.623 420.692L119.423 429.313C101.062 435.355 81.2791 425.368 75.2371 407.007L23.474 249.702C17.432 231.34 27.4188 211.557 45.7802 205.515L163.432 166.801L108.955 91.678C101.758 93.4982 94.2766 89.4627 91.9207 82.3032C89.4582 74.8196 93.5285 66.7566 101.012 64.2941C108.496 61.8315 116.559 65.9019 119.021 73.3855C120.351 77.4271 119.776 81.6378 117.786 85.044L173.029 161.222L169.91 68.6143C165.832 67.2139 162.435 63.9886 160.983 59.5773C158.521 52.0937 162.591 44.0307 170.075 41.5682C177.558 39.1056 185.621 43.176 188.084 50.6596Z"/>
</mask>
<path fill-rule="evenodd" clip-rule="evenodd" d="M188.084 50.6596C190.324 57.4669 187.158 64.7537 180.935 67.8685L184.039 160.02L299.686 121.965C318.047 115.923 337.83 125.91 343.872 144.271L395.635 301.576C401.677 319.938 391.69 339.721 373.329 345.763L346.897 354.46L359.449 392.606C359.634 393.167 359.766 393.732 359.849 394.297L360.135 394.69L359.914 394.851C360.318 399.377 357.578 403.749 353.076 405.231L344.536 408.041C342.09 408.846 339.556 408.655 337.372 407.691C334.838 407.299 332.454 405.939 330.822 403.704L304.954 368.262L187.565 406.89L187.798 450.767C187.813 453.534 186.702 456.045 184.896 457.865C183.712 459.937 181.786 461.596 179.34 462.401L170.8 465.211C166.299 466.692 161.498 464.801 159.135 460.92L158.861 460.921L158.859 460.436C158.59 459.932 158.36 459.398 158.176 458.837L145.623 420.692L119.423 429.313C101.062 435.355 81.2791 425.368 75.2371 407.007L23.474 249.702C17.432 231.34 27.4188 211.557 45.7802 205.515L163.432 166.801L108.955 91.678C101.758 93.4982 94.2766 89.4627 91.9207 82.3032C89.4582 74.8196 93.5285 66.7566 101.012 64.2941C108.496 61.8315 116.559 65.9019 119.021 73.3855C120.351 77.4271 119.776 81.6378 117.786 85.044L173.029 161.222L169.91 68.6143C165.832 67.2139 162.435 63.9886 160.983 59.5773C158.521 52.0937 162.591 44.0307 170.075 41.5682C177.558 39.1056 185.621 43.176 188.084 50.6596Z" fill="#843939"/>
<path d="M180.935 67.8685L180.04 66.08L178.893 66.654L178.936 67.9358L180.935 67.8685ZM184.039 160.02L182.04 160.087L182.13 162.753L184.664 161.92L184.039 160.02ZM346.897 354.46L346.272 352.561L344.372 353.186L344.997 355.085L346.897 354.46ZM359.849 394.297L357.87 394.586L357.941 395.077L358.233 395.477L359.849 394.297ZM360.135 394.69L361.314 396.305L362.93 395.126L361.751 393.511L360.135 394.69ZM359.914 394.851L358.735 393.236L357.821 393.903L357.922 395.029L359.914 394.851ZM337.372 407.691L338.181 405.861L337.939 405.755L337.678 405.714L337.372 407.691ZM330.822 403.704L329.207 404.883L330.822 403.704ZM304.954 368.262L306.57 367.083L305.712 365.907L304.329 366.362L304.954 368.262ZM187.565 406.89L186.94 404.991L185.557 405.446L185.565 406.901L187.565 406.89ZM187.798 450.767L189.798 450.757L187.798 450.767ZM184.896 457.865L183.476 456.456L183.29 456.643L183.159 456.873L184.896 457.865ZM159.135 460.92L160.844 459.88L160.256 458.914L159.125 458.92L159.135 460.92ZM158.861 460.921L156.861 460.932L156.872 462.932L158.872 462.921L158.861 460.921ZM158.859 460.436L160.859 460.425L160.856 459.93L160.623 459.493L158.859 460.436ZM158.176 458.837L156.276 459.463L158.176 458.837ZM145.623 420.692L147.523 420.067L146.898 418.167L144.998 418.792L145.623 420.692ZM75.2371 407.007L77.1369 406.382L75.2371 407.007ZM23.474 249.702L21.5742 250.327L23.474 249.702ZM163.432 166.801L164.058 168.7L166.66 167.844L165.051 165.626L163.432 166.801ZM108.955 91.678L110.574 90.5039L109.778 89.4068L108.464 89.7391L108.955 91.678ZM117.786 85.044L116.059 84.0352L115.401 85.1619L116.167 86.2181L117.786 85.044ZM173.029 161.222L171.41 162.396L175.248 167.689L175.028 161.155L173.029 161.222ZM169.91 68.6143L171.909 68.547L171.863 67.1702L170.56 66.7227L169.91 68.6143ZM181.83 69.6569C188.928 66.1046 192.538 57.7979 189.984 50.0344L186.184 51.2847C188.109 57.136 185.389 63.4027 180.04 66.08L181.83 69.6569ZM186.038 159.952L182.934 67.8012L178.936 67.9358L182.04 160.087L186.038 159.952ZM299.061 120.065L183.414 158.12L184.664 161.92L300.311 123.865L299.061 120.065ZM345.772 143.646C339.385 124.235 318.471 113.678 299.061 120.065L300.311 123.865C317.623 118.168 336.276 127.584 341.972 144.896L345.772 143.646ZM397.535 300.951L345.772 143.646L341.972 144.896L393.735 302.201L397.535 300.951ZM373.954 347.662C393.365 341.275 403.922 320.362 397.535 300.951L393.735 302.201C399.432 319.514 390.016 338.166 372.704 343.863L373.954 347.662ZM347.522 356.36L373.954 347.662L372.704 343.863L346.272 352.561L347.522 356.36ZM344.997 355.085L357.55 393.231L361.349 391.981L348.797 353.835L344.997 355.085ZM357.55 393.231C357.698 393.682 357.804 394.135 357.87 394.586L361.828 394.008C361.729 393.33 361.57 392.652 361.349 391.981L357.55 393.231ZM358.233 395.477L358.52 395.869L361.751 393.511L361.464 393.118L358.233 395.477ZM358.956 393.074L358.735 393.236L361.093 396.467L361.314 396.305L358.956 393.074ZM357.922 395.029C358.245 398.649 356.05 402.147 352.451 403.331L353.701 407.13C359.106 405.352 362.391 400.105 361.906 394.673L357.922 395.029ZM352.451 403.331L343.911 406.141L345.161 409.941L353.701 407.13L352.451 403.331ZM343.911 406.141C341.953 406.785 339.929 406.634 338.181 405.861L336.564 409.52C339.183 410.677 342.227 410.906 345.161 409.941L343.911 406.141ZM337.678 405.714C335.647 405.4 333.743 404.313 332.438 402.524L329.207 404.883C331.164 407.564 334.029 409.198 337.067 409.667L337.678 405.714ZM332.438 402.524L306.57 367.083L303.339 369.441L329.207 404.883L332.438 402.524ZM188.19 408.79L305.58 370.162L304.329 366.362L186.94 404.991L188.19 408.79ZM189.798 450.757L189.565 406.88L185.565 406.901L185.798 450.778L189.798 450.757ZM186.316 459.274C188.481 457.092 189.816 454.076 189.798 450.757L185.798 450.778C185.81 452.992 184.924 454.998 183.476 456.456L186.316 459.274ZM179.965 464.3C182.899 463.335 185.213 461.342 186.633 458.857L183.159 456.873C182.211 458.532 180.673 459.856 178.715 460.501L179.965 464.3ZM171.426 467.11L179.965 464.3L178.715 460.501L170.175 463.311L171.426 467.11ZM157.427 461.96C160.262 466.617 166.021 468.889 171.426 467.11L170.175 463.311C166.576 464.495 162.734 462.985 160.844 459.88L157.427 461.96ZM158.872 462.921L159.146 462.92L159.125 458.92L158.851 458.921L158.872 462.921ZM156.859 460.446L156.861 460.932L160.861 460.91L160.859 460.425L156.859 460.446ZM156.276 459.463C156.497 460.134 156.772 460.773 157.095 461.378L160.623 459.493C160.408 459.091 160.224 458.663 160.076 458.212L156.276 459.463ZM143.724 421.317L156.276 459.463L160.076 458.212L147.523 420.067L143.724 421.317ZM120.049 431.213L146.249 422.592L144.998 418.792L118.798 427.413L120.049 431.213ZM73.3373 407.632C79.7246 427.043 100.638 437.6 120.049 431.213L118.798 427.413C101.486 433.11 82.8337 423.694 77.1369 406.382L73.3373 407.632ZM21.5742 250.327L73.3373 407.632L77.1369 406.382L25.3738 249.077L21.5742 250.327ZM45.1551 203.616C25.7445 210.003 15.1869 230.916 21.5742 250.327L25.3738 249.077C19.677 231.764 29.0932 213.112 46.4054 207.415L45.1551 203.616ZM162.807 164.901L45.1551 203.616L46.4054 207.415L164.058 168.7L162.807 164.901ZM107.336 92.8522L161.813 167.975L165.051 165.626L110.574 90.5039L107.336 92.8522ZM90.0209 82.9283C92.7074 91.0924 101.238 95.6928 109.445 93.617L108.464 89.7391C102.279 91.3036 95.8459 87.833 93.8205 81.678L90.0209 82.9283ZM100.387 62.3943C91.8541 65.2021 87.2131 74.3955 90.0209 82.9283L93.8205 81.678C91.7032 75.2437 95.2029 68.3112 101.637 66.1939L100.387 62.3943ZM120.921 72.7603C118.113 64.2275 108.92 59.5865 100.387 62.3943L101.637 66.1939C108.072 64.0765 115.004 67.5762 117.121 74.0106L120.921 72.7603ZM119.513 86.0527C121.779 82.1728 122.438 77.3689 120.921 72.7603L117.121 74.0106C118.265 77.4854 117.772 81.1028 116.059 84.0352L119.513 86.0527ZM174.648 160.048L119.405 83.8698L116.167 86.2181L171.41 162.396L174.648 160.048ZM167.911 68.6816L171.03 161.289L175.028 161.155L171.909 68.547L167.911 68.6816ZM159.084 60.2025C160.739 65.2334 164.616 68.911 169.261 70.5059L170.56 66.7227C167.048 65.5169 164.131 62.7438 162.883 58.9522L159.084 60.2025ZM169.45 39.6684C160.917 42.4762 156.276 51.6696 159.084 60.2025L162.883 58.9522C160.766 52.5178 164.265 45.5853 170.7 43.468L169.45 39.6684ZM189.984 50.0344C187.176 41.5016 177.982 36.8606 169.45 39.6684L170.7 43.468C177.134 41.3507 184.067 44.8503 186.184 51.2847L189.984 50.0344Z" fill="black" mask="url(#path-1-inside-1_74_380)"/>
<rect x="35.1626" y="235.169" width="231.922" height="185.445" rx="35" transform="rotate(-18.2144 35.1626 235.169)" fill="white"/>
<rect x="45.6251" y="238.992" width="214.896" height="172.101" rx="35" transform="rotate(-18.2144 45.6251 238.992)" fill="white" stroke="black" stroke-width="4" stroke-linecap="round" stroke-dasharray="25 25"/>
<circle cx="305.323" cy="176.547" r="20.3577" transform="rotate(-18.2144 305.323 176.547)" fill="#D9D9D9" stroke="black" stroke-width="3"/>
<line x1="283.743" y1="177.951" x2="323.082" y2="165.006" stroke="black" stroke-width="3"/>
<g filter="url(#filter0_d_74_380)">
<line x1="286.188" y1="185.382" x2="325.965" y2="172.293" stroke="black" stroke-width="3"/>
</g>
<circle cx="322.727" cy="229.436" r="20.3577" transform="rotate(-107.122 322.727 229.436)" fill="#D9D9D9" stroke="black" stroke-width="3"/>
<line x1="323.719" y1="251.039" x2="311.526" y2="211.46" stroke="black" stroke-width="3"/>
<g filter="url(#filter1_d_74_380)">
<line x1="331.195" y1="248.736" x2="318.867" y2="208.717" stroke="black" stroke-width="3"/>
</g>
<rect x="305.249" y="271.278" width="12.8845" height="12.8845" rx="6.44227" transform="rotate(-18.2144 305.249 271.278)" fill="#D9D9D9"/>
<rect x="336.72" y="260.922" width="12.8845" height="12.8845" rx="6.44227" transform="rotate(-18.2144 336.72 260.922)" fill="#D9D9D9"/>
<rect x="357.49" y="271.042" width="12.8845" height="12.8845" rx="6.44227" transform="rotate(-18.2144 357.49 271.042)" fill="#D9D9D9"/>
<rect x="341.755" y="276.22" width="12.8845" height="12.8845" rx="6.44227" transform="rotate(-18.2144 341.755 276.22)" fill="#D9D9D9"/>
<rect x="326.019" y="281.399" width="12.8845" height="12.8845" rx="6.44227" transform="rotate(-18.2144 326.019 281.399)" fill="#D9D9D9"/>
<rect x="310.283" y="286.577" width="12.8845" height="12.8845" rx="6.44227" transform="rotate(-18.2144 310.283 286.577)" fill="#D9D9D9"/>
<rect x="352.456" y="255.744" width="12.8845" height="12.8845" rx="6.44227" transform="rotate(-18.2144 352.456 255.744)" fill="#D9D9D9"/>
<rect x="320.985" y="266.1" width="12.8845" height="12.8845" rx="6.44227" transform="rotate(-18.2144 320.985 266.1)" fill="#D9D9D9"/>
<rect x="320.351" y="317.174" width="12.8845" height="12.8845" rx="6.44227" transform="rotate(-18.2144 320.351 317.174)" fill="#D9D9D9"/>
<rect x="351.823" y="306.818" width="12.8845" height="12.8845" rx="6.44227" transform="rotate(-18.2144 351.823 306.818)" fill="#D9D9D9"/>
<rect x="367.559" y="301.64" width="12.8845" height="12.8845" rx="6.44227" transform="rotate(-18.2144 367.559 301.64)" fill="#D9D9D9"/>
<rect x="336.087" y="311.996" width="12.8845" height="12.8845" rx="6.44227" transform="rotate(-18.2144 336.087 311.996)" fill="#D9D9D9"/>
<rect x="315.317" y="301.875" width="12.8845" height="12.8845" rx="6.44227" transform="rotate(-18.2144 315.317 301.875)" fill="#D9D9D9"/>
<rect x="346.789" y="291.519" width="12.8845" height="12.8845" rx="6.44227" transform="rotate(-18.2144 346.789 291.519)" fill="#D9D9D9"/>
<rect x="362.525" y="286.341" width="12.8845" height="12.8845" rx="6.44227" transform="rotate(-18.2144 362.525 286.341)" fill="#D9D9D9"/>
<rect x="331.053" y="296.697" width="12.8845" height="12.8845" rx="6.44227" transform="rotate(-18.2144 331.053 296.697)" fill="#D9D9D9"/>
<defs>
<filter id="filter0_d_74_380" x="281.719" y="168.868" width="48.7144" height="23.9387" filterUnits="userSpaceOnUse" color-interpolation-filters="sRGB">
<feFlood flood-opacity="0" result="BackgroundImageFix"/>
<feColorMatrix in="SourceAlpha" type="matrix" values="0 0 0 0 0 0 0 0 0 0 0 0 0 0 0 0 0 0 127 0" result="hardAlpha"/>
<feOffset dy="2"/>
<feGaussianBlur stdDeviation="2"/>
<feComposite in2="hardAlpha" operator="out"/>
<feColorMatrix type="matrix" values="0 0 0 0 0 0 0 0 0 0 0 0 0 0 0 0 0 0 0.25 0"/>
<feBlend mode="normal" in2="BackgroundImageFix" result="effect1_dropShadow_74_380"/>
<feBlend mode="normal" in="SourceGraphic" in2="effect1_dropShadow_74_380" result="shape"/>
</filter>
<filter id="filter1_d_74_380" x="313.433" y="206.276" width="23.1954" height="48.9021" filterUnits="userSpaceOnUse" color-interpolation-filters="sRGB">
<feFlood flood-opacity="0" result="BackgroundImageFix"/>
<feColorMatrix in="SourceAlpha" type="matrix" values="0 0 0 0 0 0 0 0 0 0 0 0 0 0 0 0 0 0 127 0" result="hardAlpha"/>
<feOffset dy="2"/>
<feGaussianBlur stdDeviation="2"/>
<feComposite in2="hardAlpha" operator="out"/>
<feColorMatrix type="matrix" values="0 0 0 0 0 0 0 0 0 0 0 0 0 0 0 0 0 0 0.25 0"/>
<feBlend mode="normal" in2="BackgroundImageFix" result="effect1_dropShadow_74_380"/>
<feBlend mode="normal" in="SourceGraphic" in2="effect1_dropShadow_74_380" result="shape"/>
</filter>
</defs>
</svg>
