<svg width="387" height="1107" viewBox="0 0 387 1107" fill="none" xmlns="http://www.w3.org/2000/svg">
<g opacity="0.8">
<circle cx="135.565" cy="923.098" r="21.2387" transform="rotate(-76.8703 135.565 923.098)" fill="#0115CB"/>
<circle cx="134.929" cy="923.493" r="20.7096" transform="rotate(-76.8703 134.929 923.493)" fill="#60CFFF" fill-opacity="0.95"/>
<circle cx="134.883" cy="923.522" r="20.6708" transform="rotate(-76.8703 134.883 923.522)" fill="#DEF5FF" fill-opacity="0.53"/>
<circle cx="122.563" cy="923.878" r="5.90594" transform="rotate(-104.668 122.563 923.878)" fill="white" fill-opacity="0.82"/>
<ellipse cx="127.101" cy="933.139" rx="3.06655" ry="2.95297" transform="rotate(-104.668 127.101 933.139)" fill="white" fill-opacity="0.82"/>
<circle cx="244.181" cy="741.082" r="21.2387" transform="rotate(-76.8703 244.181 741.082)" fill="#0115CB"/>
<circle cx="243.545" cy="741.477" r="20.7096" transform="rotate(-76.8703 243.545 741.477)" fill="#60CFFF" fill-opacity="0.95"/>
<circle cx="243.499" cy="741.506" r="20.6708" transform="rotate(-76.8703 243.499 741.506)" fill="#DEF5FF" fill-opacity="0.53"/>
<circle cx="231.179" cy="741.862" r="5.90594" transform="rotate(-104.668 231.179 741.862)" fill="white" fill-opacity="0.82"/>
<ellipse cx="235.716" cy="751.123" rx="3.06655" ry="2.95297" transform="rotate(-104.668 235.716 751.123)" fill="white" fill-opacity="0.82"/>
<circle cx="100.162" cy="759.686" r="21.2387" transform="rotate(-76.8703 100.162 759.686)" fill="#0115CB"/>
<circle cx="99.5271" cy="760.081" r="20.7096" transform="rotate(-76.8703 99.5271 760.081)" fill="#60CFFF" fill-opacity="0.95"/>
<circle cx="99.4805" cy="760.11" r="20.6708" transform="rotate(-76.8703 99.4805 760.11)" fill="#DEF5FF" fill-opacity="0.53"/>
<circle cx="87.1606" cy="760.466" r="5.90594" transform="rotate(-104.668 87.1606 760.466)" fill="white" fill-opacity="0.82"/>
<ellipse cx="91.698" cy="769.727" rx="3.06655" ry="2.95297" transform="rotate(-104.668 91.698 769.727)" fill="white" fill-opacity="0.82"/>
<circle cx="248.923" cy="987.94" r="64.6394" transform="rotate(-10.6416 248.923 987.94)" fill="#0115CB"/>
<circle cx="247.043" cy="986.654" r="63.0292" transform="rotate(-10.6416 247.043 986.654)" fill="#60CFFF" fill-opacity="0.95"/>
<circle cx="247.043" cy="986.654" r="63.0292" transform="rotate(-10.6416 247.043 986.654)" fill="#DEF5FF" fill-opacity="0.53"/>
<circle cx="226.825" cy="940.716" r="11.3867" transform="rotate(-10.6416 226.825 940.716)" fill="white" fill-opacity="0.82"/>
<circle cx="208.33" cy="948.17" r="5.86586" transform="rotate(-10.6416 208.33 948.17)" fill="white" fill-opacity="0.82"/>
<circle cx="166.996" cy="795.886" r="38.7837" transform="rotate(45.8199 166.996 795.886)" fill="#0115CB"/>
<circle cx="167.016" cy="794.52" r="37.8175" transform="rotate(45.8199 167.016 794.52)" fill="#60CFFF" fill-opacity="0.95"/>
<circle cx="167.017" cy="794.419" r="37.7467" transform="rotate(45.8199 167.017 794.419)" fill="#DEF5FF" fill-opacity="0.53"/>
<circle cx="178.621" cy="775.135" r="10.7848" transform="rotate(18.0222 178.621 775.135)" fill="white" fill-opacity="0.82"/>
<ellipse cx="159.913" cy="772.974" rx="5.59978" ry="5.39238" transform="rotate(18.0222 159.913 772.974)" fill="white" fill-opacity="0.82"/>
<circle cx="334.989" cy="875.931" r="38.7837" transform="rotate(66.2789 334.989 875.931)" fill="#0115CB"/>
<circle cx="335.485" cy="874.658" r="37.8175" transform="rotate(66.2789 335.485 874.658)" fill="#60CFFF" fill-opacity="0.95"/>
<circle cx="335.521" cy="874.565" r="37.7467" transform="rotate(66.2789 335.521 874.565)" fill="#DEF5FF" fill-opacity="0.53"/>
<circle cx="353.133" cy="860.552" r="10.7848" transform="rotate(38.4813 353.133 860.552)" fill="white" fill-opacity="0.82"/>
<ellipse cx="336.36" cy="851.988" rx="5.59978" ry="5.39238" transform="rotate(38.4813 336.36 851.988)" fill="white" fill-opacity="0.82"/>
<circle cx="318.277" cy="1082.02" r="21.2387" transform="rotate(-10.6416 318.277 1082.02)" fill="#0115CB"/>
<circle cx="317.659" cy="1081.6" r="20.7096" transform="rotate(-10.6416 317.659 1081.6)" fill="#60CFFF" fill-opacity="0.95"/>
<circle cx="317.614" cy="1081.57" r="20.6708" transform="rotate(-10.6416 317.614 1081.57)" fill="#DEF5FF" fill-opacity="0.53"/>
<circle cx="312.322" cy="1070.44" r="5.90594" transform="rotate(-38.4393 312.322 1070.44)" fill="white" fill-opacity="0.82"/>
<ellipse cx="305.675" cy="1078.32" rx="3.06655" ry="2.95297" transform="rotate(-38.4393 305.675 1078.32)" fill="white" fill-opacity="0.82"/>
<circle cx="100.898" cy="247.647" r="86.3398" transform="rotate(-10.6416 100.898 247.647)" fill="#0115CB"/>
<circle cx="98.3867" cy="245.93" r="84.189" transform="rotate(-10.6416 98.3867 245.93)" fill="#60CFFF" fill-opacity="0.95"/>
<circle cx="98.3867" cy="245.93" r="84.189" transform="rotate(-10.6416 98.3867 245.93)" fill="#DEF5FF" fill-opacity="0.53"/>
<circle cx="71.3819" cy="184.569" r="15.2093" transform="rotate(-10.6416 71.3819 184.569)" fill="white" fill-opacity="0.82"/>
<circle cx="46.6785" cy="194.525" r="7.83511" transform="rotate(-10.6416 46.6785 194.525)" fill="white" fill-opacity="0.82"/>
<circle cx="158.482" cy="46.5618" r="38.7837" transform="rotate(-10.6416 158.482 46.5618)" fill="#0115CB"/>
<circle cx="157.354" cy="45.7907" r="37.8175" transform="rotate(-10.6416 157.354 45.7907)" fill="#60CFFF" fill-opacity="0.95"/>
<circle cx="157.271" cy="45.7341" r="37.7467" transform="rotate(-10.6416 157.271 45.7341)" fill="#DEF5FF" fill-opacity="0.53"/>
<circle cx="147.608" cy="25.4079" r="10.7848" transform="rotate(-38.4393 147.608 25.4079)" fill="white" fill-opacity="0.82"/>
<ellipse cx="135.471" cy="39.8075" rx="5.59978" ry="5.39238" transform="rotate(-38.4393 135.471 39.8075)" fill="white" fill-opacity="0.82"/>
<circle cx="202.194" cy="134.186" r="38.7837" transform="rotate(66.2789 202.194 134.186)" fill="#0115CB"/>
<circle cx="202.69" cy="132.912" r="37.8175" transform="rotate(66.2789 202.69 132.912)" fill="#60CFFF" fill-opacity="0.95"/>
<circle cx="202.726" cy="132.819" r="37.7467" transform="rotate(66.2789 202.726 132.819)" fill="#DEF5FF" fill-opacity="0.53"/>
<circle cx="220.338" cy="118.807" r="10.7848" transform="rotate(38.4813 220.338 118.807)" fill="white" fill-opacity="0.82"/>
<ellipse cx="203.566" cy="110.243" rx="5.59978" ry="5.39238" transform="rotate(38.4813 203.566 110.243)" fill="white" fill-opacity="0.82"/>
<circle cx="185.482" cy="340.275" r="21.2387" transform="rotate(-10.6416 185.482 340.275)" fill="#0115CB"/>
<circle cx="184.865" cy="339.853" r="20.7096" transform="rotate(-10.6416 184.865 339.853)" fill="#60CFFF" fill-opacity="0.95"/>
<circle cx="184.819" cy="339.822" r="20.6708" transform="rotate(-10.6416 184.819 339.822)" fill="#DEF5FF" fill-opacity="0.53"/>
<circle cx="179.528" cy="328.691" r="5.90594" transform="rotate(-38.4393 179.528 328.691)" fill="white" fill-opacity="0.82"/>
<ellipse cx="172.881" cy="336.576" rx="3.06655" ry="2.95297" transform="rotate(-38.4393 172.881 336.576)" fill="white" fill-opacity="0.82"/>
<circle cx="264.323" cy="24.7955" r="21.2387" transform="rotate(-10.6416 264.323 24.7955)" fill="#0115CB"/>
<circle cx="263.705" cy="24.3732" r="20.7096" transform="rotate(-10.6416 263.705 24.3732)" fill="#60CFFF" fill-opacity="0.95"/>
<circle cx="263.66" cy="24.3422" r="20.6708" transform="rotate(-10.6416 263.66 24.3422)" fill="#DEF5FF" fill-opacity="0.53"/>
<circle cx="258.368" cy="13.2113" r="5.90594" transform="rotate(-38.4393 258.368 13.2113)" fill="white" fill-opacity="0.82"/>
<ellipse cx="251.721" cy="21.0966" rx="3.06655" ry="2.95297" transform="rotate(-38.4393 251.721 21.0966)" fill="white" fill-opacity="0.82"/>
<circle cx="79.6588" cy="112.11" r="21.2387" transform="rotate(-10.6416 79.6588 112.11)" fill="#0115CB"/>
<circle cx="79.0412" cy="111.687" r="20.7096" transform="rotate(-10.6416 79.0412 111.687)" fill="#60CFFF" fill-opacity="0.95"/>
<circle cx="78.9959" cy="111.656" r="20.6708" transform="rotate(-10.6416 78.9959 111.656)" fill="#DEF5FF" fill-opacity="0.53"/>
<circle cx="73.7043" cy="100.526" r="5.90594" transform="rotate(-38.4393 73.7043 100.526)" fill="white" fill-opacity="0.82"/>
<ellipse cx="67.0574" cy="108.411" rx="3.06655" ry="2.95297" transform="rotate(-38.4393 67.0574 108.411)" fill="white" fill-opacity="0.82"/>
<circle cx="227.702" cy="622.246" r="69.7312" transform="rotate(-76.8703 227.702 622.246)" fill="#0115CB"/>
<circle cx="225.616" cy="623.543" r="67.9941" transform="rotate(-76.8703 225.616 623.543)" fill="#60CFFF" fill-opacity="0.95"/>
<circle cx="225.616" cy="623.543" r="67.9941" transform="rotate(-76.8703 225.616 623.543)" fill="#DEF5FF" fill-opacity="0.53"/>
<circle cx="171.471" cy="623.527" r="12.2836" transform="rotate(-76.8703 171.471 623.527)" fill="white" fill-opacity="0.82"/>
<circle cx="170.788" cy="645.027" r="6.32792" transform="rotate(-76.8703 170.788 645.027)" fill="white" fill-opacity="0.82"/>
<circle cx="83.1273" cy="489.357" r="38.7837" transform="rotate(-76.8703 83.1273 489.357)" fill="#0115CB"/>
<circle cx="81.967" cy="490.078" r="37.8175" transform="rotate(-76.8703 81.967 490.078)" fill="#60CFFF" fill-opacity="0.95"/>
<circle cx="81.8819" cy="490.131" r="37.7467" transform="rotate(-76.8703 81.8819 490.131)" fill="#DEF5FF" fill-opacity="0.53"/>
<circle cx="59.385" cy="490.781" r="10.7848" transform="rotate(-104.668 59.385 490.781)" fill="white" fill-opacity="0.82"/>
<ellipse cx="67.6704" cy="507.693" rx="5.59978" ry="5.39238" transform="rotate(-104.668 67.6704 507.693)" fill="white" fill-opacity="0.82"/>
<circle cx="180.937" cy="484.673" r="38.7837" transform="rotate(0.0502089 180.937 484.673)" fill="#0115CB"/>
<circle cx="179.971" cy="483.706" r="37.8175" transform="rotate(0.0502089 179.971 483.706)" fill="#60CFFF" fill-opacity="0.95"/>
<circle cx="179.901" cy="483.635" r="37.7467" transform="rotate(0.0502089 179.901 483.635)" fill="#DEF5FF" fill-opacity="0.53"/>
<circle cx="174.176" cy="461.869" r="10.7848" transform="rotate(-27.7474 174.176 461.869)" fill="white" fill-opacity="0.82"/>
<ellipse cx="159.579" cy="473.767" rx="5.59978" ry="5.39238" transform="rotate(-27.7474 159.579 473.767)" fill="white" fill-opacity="0.82"/>
<circle cx="114.544" cy="669.857" r="31.9353" transform="rotate(-76.8703 114.544 669.857)" fill="#0115CB"/>
<circle cx="113.588" cy="670.451" r="31.1398" transform="rotate(-76.8703 113.588 670.451)" fill="#60CFFF" fill-opacity="0.95"/>
<circle cx="113.518" cy="670.495" r="31.0814" transform="rotate(-76.8703 113.518 670.495)" fill="#DEF5FF" fill-opacity="0.53"/>
<circle cx="94.994" cy="671.03" r="8.88041" transform="rotate(-104.668 94.994 671.03)" fill="white" fill-opacity="0.82"/>
<ellipse cx="101.817" cy="684.956" rx="4.61098" ry="4.44021" transform="rotate(-104.668 101.817 684.956)" fill="white" fill-opacity="0.82"/>
<circle cx="228.793" cy="849.206" r="21.2387" transform="rotate(-76.8703 228.793 849.206)" fill="#0115CB"/>
<circle cx="228.158" cy="849.601" r="20.7096" transform="rotate(-76.8703 228.158 849.601)" fill="#60CFFF" fill-opacity="0.95"/>
<circle cx="228.111" cy="849.63" r="20.6708" transform="rotate(-76.8703 228.111 849.63)" fill="#DEF5FF" fill-opacity="0.53"/>
<circle cx="215.791" cy="849.986" r="5.90594" transform="rotate(-104.668 215.791 849.986)" fill="white" fill-opacity="0.82"/>
<ellipse cx="220.329" cy="859.247" rx="3.06655" ry="2.95297" transform="rotate(-104.668 220.329 859.247)" fill="white" fill-opacity="0.82"/>
<circle cx="228.583" cy="848.791" r="21.2387" transform="rotate(-76.8703 228.583 848.791)" fill="#0115CB"/>
<circle cx="227.947" cy="849.186" r="20.7096" transform="rotate(-76.8703 227.947 849.186)" fill="#60CFFF" fill-opacity="0.95"/>
<circle cx="227.9" cy="849.215" r="20.6708" transform="rotate(-76.8703 227.9 849.215)" fill="#DEF5FF" fill-opacity="0.53"/>
<circle cx="215.581" cy="849.571" r="5.90594" transform="rotate(-104.668 215.581 849.571)" fill="white" fill-opacity="0.82"/>
<ellipse cx="220.118" cy="858.832" rx="3.06655" ry="2.95297" transform="rotate(-104.668 220.118 858.832)" fill="white" fill-opacity="0.82"/>
<circle cx="105.871" cy="383.722" r="21.2387" transform="rotate(-76.8703 105.871 383.722)" fill="#0115CB"/>
<circle cx="105.235" cy="384.117" r="20.7096" transform="rotate(-76.8703 105.235 384.117)" fill="#60CFFF" fill-opacity="0.95"/>
<circle cx="105.189" cy="384.146" r="20.6708" transform="rotate(-76.8703 105.189 384.146)" fill="#DEF5FF" fill-opacity="0.53"/>
<circle cx="92.8691" cy="384.502" r="5.90594" transform="rotate(-104.668 92.8691 384.502)" fill="white" fill-opacity="0.82"/>
<ellipse cx="97.4063" cy="393.763" rx="3.06655" ry="2.95297" transform="rotate(-104.668 97.4063 393.763)" fill="white" fill-opacity="0.82"/>
<circle cx="111.342" cy="587.914" r="21.2387" transform="rotate(-76.8703 111.342 587.914)" fill="#0115CB"/>
<circle cx="110.706" cy="588.309" r="20.7096" transform="rotate(-76.8703 110.706 588.309)" fill="#60CFFF" fill-opacity="0.95"/>
<circle cx="110.66" cy="588.338" r="20.6708" transform="rotate(-76.8703 110.66 588.338)" fill="#DEF5FF" fill-opacity="0.53"/>
<circle cx="98.3399" cy="588.694" r="5.90594" transform="rotate(-104.668 98.3399 588.694)" fill="white" fill-opacity="0.82"/>
<ellipse cx="102.877" cy="597.955" rx="3.06655" ry="2.95297" transform="rotate(-104.668 102.877 597.955)" fill="white" fill-opacity="0.82"/>
</g>
</svg>
