<svg width="156" height="916" viewBox="0 0 156 916" fill="none" xmlns="http://www.w3.org/2000/svg">
<g opacity="0.8">
<circle cx="67.5536" cy="294.399" r="6.77353" transform="rotate(-76.8703 67.5536 294.399)" fill="#0115CB"/>
<circle cx="67.3509" cy="294.525" r="6.6048" transform="rotate(-76.8703 67.3509 294.525)" fill="#60CFFF" fill-opacity="0.95"/>
<circle cx="67.3361" cy="294.534" r="6.59242" transform="rotate(-76.8703 67.3361 294.534)" fill="#DEF5FF" fill-opacity="0.53"/>
<circle cx="63.4072" cy="294.648" r="1.88355" transform="rotate(-104.668 63.4072 294.648)" fill="white" fill-opacity="0.82"/>
<ellipse cx="64.8548" cy="297.601" rx="0.977997" ry="0.941775" transform="rotate(-104.668 64.8548 297.601)" fill="white" fill-opacity="0.82"/>
<circle cx="102.194" cy="236.349" r="6.77353" transform="rotate(-76.8703 102.194 236.349)" fill="#0115CB"/>
<circle cx="101.991" cy="236.475" r="6.6048" transform="rotate(-76.8703 101.991 236.475)" fill="#60CFFF" fill-opacity="0.95"/>
<circle cx="101.976" cy="236.484" r="6.59242" transform="rotate(-76.8703 101.976 236.484)" fill="#DEF5FF" fill-opacity="0.53"/>
<circle cx="98.0474" cy="236.598" r="1.88355" transform="rotate(-104.668 98.0474 236.598)" fill="white" fill-opacity="0.82"/>
<ellipse cx="99.4945" cy="239.552" rx="0.977997" ry="0.941775" transform="rotate(-104.668 99.4945 239.552)" fill="white" fill-opacity="0.82"/>
<circle cx="56.2635" cy="242.283" r="6.77353" transform="rotate(-76.8703 56.2635 242.283)" fill="#0115CB"/>
<circle cx="56.0609" cy="242.409" r="6.6048" transform="rotate(-76.8703 56.0609 242.409)" fill="#60CFFF" fill-opacity="0.95"/>
<circle cx="56.046" cy="242.418" r="6.59242" transform="rotate(-76.8703 56.046 242.418)" fill="#DEF5FF" fill-opacity="0.53"/>
<circle cx="52.1165" cy="242.531" r="1.88355" transform="rotate(-104.668 52.1165 242.531)" fill="white" fill-opacity="0.82"/>
<ellipse cx="53.5636" cy="245.485" rx="0.977997" ry="0.941775" transform="rotate(-104.668 53.5636 245.485)" fill="white" fill-opacity="0.82"/>
<circle cx="103.706" cy="315.078" r="20.6151" transform="rotate(-10.6416 103.706 315.078)" fill="#0115CB"/>
<circle cx="103.107" cy="314.668" r="20.1016" transform="rotate(-10.6416 103.107 314.668)" fill="#60CFFF" fill-opacity="0.95"/>
<circle cx="103.107" cy="314.668" r="20.1016" transform="rotate(-10.6416 103.107 314.668)" fill="#DEF5FF" fill-opacity="0.53"/>
<circle cx="96.6581" cy="300.017" r="3.63149" transform="rotate(-10.6416 96.6581 300.017)" fill="white" fill-opacity="0.82"/>
<circle cx="90.7602" cy="302.395" r="1.87077" transform="rotate(-10.6416 90.7602 302.395)" fill="white" fill-opacity="0.82"/>
<circle cx="77.5778" cy="253.827" r="12.3691" transform="rotate(45.8199 77.5778 253.827)" fill="#0115CB"/>
<circle cx="77.5841" cy="253.392" r="12.0609" transform="rotate(45.8199 77.5841 253.392)" fill="#60CFFF" fill-opacity="0.95"/>
<circle cx="77.5845" cy="253.36" r="12.0383" transform="rotate(45.8199 77.5845 253.36)" fill="#DEF5FF" fill-opacity="0.53"/>
<circle cx="81.2852" cy="247.21" r="3.43953" transform="rotate(18.0222 81.2852 247.21)" fill="white" fill-opacity="0.82"/>
<ellipse cx="75.3186" cy="246.52" rx="1.78591" ry="1.71976" transform="rotate(18.0222 75.3186 246.52)" fill="white" fill-opacity="0.82"/>
<circle cx="131.154" cy="279.356" r="12.3691" transform="rotate(66.2789 131.154 279.356)" fill="#0115CB"/>
<circle cx="131.312" cy="278.95" r="12.0609" transform="rotate(66.2789 131.312 278.95)" fill="#60CFFF" fill-opacity="0.95"/>
<circle cx="131.324" cy="278.92" r="12.0383" transform="rotate(66.2789 131.324 278.92)" fill="#DEF5FF" fill-opacity="0.53"/>
<circle cx="136.941" cy="274.451" r="3.43953" transform="rotate(38.4813 136.941 274.451)" fill="white" fill-opacity="0.82"/>
<ellipse cx="131.592" cy="271.72" rx="1.78591" ry="1.71976" transform="rotate(38.4813 131.592 271.72)" fill="white" fill-opacity="0.82"/>
<circle cx="125.825" cy="345.083" r="6.77353" transform="rotate(-10.6416 125.825 345.083)" fill="#0115CB"/>
<circle cx="125.628" cy="344.948" r="6.6048" transform="rotate(-10.6416 125.628 344.948)" fill="#60CFFF" fill-opacity="0.95"/>
<circle cx="125.613" cy="344.938" r="6.59242" transform="rotate(-10.6416 125.613 344.938)" fill="#DEF5FF" fill-opacity="0.53"/>
<circle cx="123.925" cy="341.388" r="1.88355" transform="rotate(-38.4393 123.925 341.388)" fill="white" fill-opacity="0.82"/>
<ellipse cx="121.806" cy="343.903" rx="0.977997" ry="0.941775" transform="rotate(-38.4393 121.806 343.903)" fill="white" fill-opacity="0.82"/>
<circle cx="56.4971" cy="78.9805" r="27.5359" transform="rotate(-10.6416 56.4971 78.9805)" fill="#0115CB"/>
<circle cx="55.6963" cy="78.4331" r="26.8499" transform="rotate(-10.6416 55.6963 78.4331)" fill="#60CFFF" fill-opacity="0.95"/>
<circle cx="55.6963" cy="78.4331" r="26.8499" transform="rotate(-10.6416 55.6963 78.4331)" fill="#DEF5FF" fill-opacity="0.53"/>
<circle cx="47.0846" cy="58.8635" r="4.85063" transform="rotate(-10.6416 47.0846 58.8635)" fill="white" fill-opacity="0.82"/>
<circle cx="39.2054" cy="62.0389" r="2.49881" transform="rotate(-10.6416 39.2054 62.0389)" fill="white" fill-opacity="0.82"/>
<circle cx="74.8626" cy="14.8496" r="12.3691" transform="rotate(-10.6416 74.8626 14.8496)" fill="#0115CB"/>
<circle cx="74.5029" cy="14.6037" r="12.0609" transform="rotate(-10.6416 74.5029 14.6037)" fill="#60CFFF" fill-opacity="0.95"/>
<circle cx="74.4765" cy="14.5857" r="12.0383" transform="rotate(-10.6416 74.4765 14.5857)" fill="#DEF5FF" fill-opacity="0.53"/>
<circle cx="71.3956" cy="8.10316" r="3.43953" transform="rotate(-38.4393 71.3956 8.10316)" fill="white" fill-opacity="0.82"/>
<ellipse cx="67.5239" cy="12.6955" rx="1.78591" ry="1.71976" transform="rotate(-38.4393 67.5239 12.6955)" fill="white" fill-opacity="0.82"/>
<circle cx="88.8037" cy="42.795" r="12.3691" transform="rotate(66.2789 88.8037 42.795)" fill="#0115CB"/>
<circle cx="88.9618" cy="42.389" r="12.0609" transform="rotate(66.2789 88.9618 42.389)" fill="#60CFFF" fill-opacity="0.95"/>
<circle cx="88.9734" cy="42.3592" r="12.0383" transform="rotate(66.2789 88.9734 42.3592)" fill="#DEF5FF" fill-opacity="0.53"/>
<circle cx="94.5898" cy="37.8903" r="3.43953" transform="rotate(38.4813 94.5898 37.8903)" fill="white" fill-opacity="0.82"/>
<ellipse cx="89.2405" cy="35.1591" rx="1.78591" ry="1.71976" transform="rotate(38.4813 89.2405 35.1591)" fill="white" fill-opacity="0.82"/>
<circle cx="83.4735" cy="108.522" r="6.77353" transform="rotate(-10.6416 83.4735 108.522)" fill="#0115CB"/>
<circle cx="83.2766" cy="108.387" r="6.6048" transform="rotate(-10.6416 83.2766 108.387)" fill="#60CFFF" fill-opacity="0.95"/>
<circle cx="83.2621" cy="108.377" r="6.59242" transform="rotate(-10.6416 83.2621 108.377)" fill="#DEF5FF" fill-opacity="0.53"/>
<circle cx="81.5743" cy="104.827" r="1.88355" transform="rotate(-38.4393 81.5743 104.827)" fill="white" fill-opacity="0.82"/>
<ellipse cx="79.455" cy="107.342" rx="0.977997" ry="0.941775" transform="rotate(-38.4393 79.455 107.342)" fill="white" fill-opacity="0.82"/>
<circle cx="108.617" cy="7.90785" r="6.77353" transform="rotate(-10.6416 108.617 7.90785)" fill="#0115CB"/>
<circle cx="108.42" cy="7.77318" r="6.6048" transform="rotate(-10.6416 108.42 7.77318)" fill="#60CFFF" fill-opacity="0.95"/>
<circle cx="108.406" cy="7.7633" r="6.59242" transform="rotate(-10.6416 108.406 7.7633)" fill="#DEF5FF" fill-opacity="0.53"/>
<circle cx="106.718" cy="4.21331" r="1.88355" transform="rotate(-38.4393 106.718 4.21331)" fill="white" fill-opacity="0.82"/>
<ellipse cx="104.598" cy="6.7282" rx="0.977997" ry="0.941775" transform="rotate(-38.4393 104.598 6.7282)" fill="white" fill-opacity="0.82"/>
<circle cx="49.7235" cy="35.7545" r="6.77353" transform="rotate(-10.6416 49.7235 35.7545)" fill="#0115CB"/>
<circle cx="49.5266" cy="35.6198" r="6.6048" transform="rotate(-10.6416 49.5266 35.6198)" fill="#60CFFF" fill-opacity="0.95"/>
<circle cx="49.5121" cy="35.6099" r="6.59242" transform="rotate(-10.6416 49.5121 35.6099)" fill="#DEF5FF" fill-opacity="0.53"/>
<circle cx="47.824" cy="32.06" r="1.88355" transform="rotate(-38.4393 47.824 32.06)" fill="white" fill-opacity="0.82"/>
<ellipse cx="45.7048" cy="34.5749" rx="0.977997" ry="0.941775" transform="rotate(-38.4393 45.7048 34.5749)" fill="white" fill-opacity="0.82"/>
<circle cx="96.9386" cy="198.449" r="22.239" transform="rotate(-76.8703 96.9386 198.449)" fill="#0115CB"/>
<circle cx="96.2732" cy="198.863" r="21.685" transform="rotate(-76.8703 96.2732 198.863)" fill="#60CFFF" fill-opacity="0.95"/>
<circle cx="96.2732" cy="198.863" r="21.685" transform="rotate(-76.8703 96.2732 198.863)" fill="#DEF5FF" fill-opacity="0.53"/>
<circle cx="79.0048" cy="198.858" r="3.91754" transform="rotate(-76.8703 79.0048 198.858)" fill="white" fill-opacity="0.82"/>
<circle cx="78.7868" cy="205.715" r="2.01813" transform="rotate(-76.8703 78.7868 205.715)" fill="white" fill-opacity="0.82"/>
<circle cx="50.83" cy="156.068" r="12.3691" transform="rotate(-76.8703 50.83 156.068)" fill="#0115CB"/>
<circle cx="50.46" cy="156.298" r="12.0609" transform="rotate(-76.8703 50.46 156.298)" fill="#60CFFF" fill-opacity="0.95"/>
<circle cx="50.4328" cy="156.315" r="12.0383" transform="rotate(-76.8703 50.4328 156.315)" fill="#DEF5FF" fill-opacity="0.53"/>
<circle cx="43.2585" cy="156.522" r="3.43953" transform="rotate(-104.668 43.2585 156.522)" fill="white" fill-opacity="0.82"/>
<ellipse cx="45.9012" cy="161.916" rx="1.78591" ry="1.71976" transform="rotate(-104.668 45.9012 161.916)" fill="white" fill-opacity="0.82"/>
<circle cx="82.024" cy="154.574" r="12.3691" transform="rotate(0.0502089 82.024 154.574)" fill="#0115CB"/>
<circle cx="81.7161" cy="154.266" r="12.0609" transform="rotate(0.0502089 81.7161 154.266)" fill="#60CFFF" fill-opacity="0.95"/>
<circle cx="81.6936" cy="154.243" r="12.0383" transform="rotate(0.0502089 81.6936 154.243)" fill="#DEF5FF" fill-opacity="0.53"/>
<circle cx="79.868" cy="147.301" r="3.43953" transform="rotate(-27.7474 79.868 147.301)" fill="white" fill-opacity="0.82"/>
<ellipse cx="75.2125" cy="151.096" rx="1.78591" ry="1.71976" transform="rotate(-27.7474 75.2125 151.096)" fill="white" fill-opacity="0.82"/>
<circle cx="60.8495" cy="213.634" r="10.185" transform="rotate(-76.8703 60.8495 213.634)" fill="#0115CB"/>
<circle cx="60.5448" cy="213.823" r="9.93124" transform="rotate(-76.8703 60.5448 213.823)" fill="#60CFFF" fill-opacity="0.95"/>
<circle cx="60.5224" cy="213.837" r="9.91263" transform="rotate(-76.8703 60.5224 213.837)" fill="#DEF5FF" fill-opacity="0.53"/>
<circle cx="54.6148" cy="214.008" r="2.83218" transform="rotate(-104.668 54.6148 214.008)" fill="white" fill-opacity="0.82"/>
<ellipse cx="56.7903" cy="218.449" rx="1.47056" ry="1.41609" transform="rotate(-104.668 56.7903 218.449)" fill="white" fill-opacity="0.82"/>
<circle cx="97.2865" cy="270.833" r="6.77353" transform="rotate(-76.8703 97.2865 270.833)" fill="#0115CB"/>
<circle cx="97.0838" cy="270.959" r="6.6048" transform="rotate(-76.8703 97.0838 270.959)" fill="#60CFFF" fill-opacity="0.95"/>
<circle cx="97.069" cy="270.968" r="6.59242" transform="rotate(-76.8703 97.069 270.968)" fill="#DEF5FF" fill-opacity="0.53"/>
<circle cx="93.1404" cy="271.081" r="1.88355" transform="rotate(-104.668 93.1404 271.081)" fill="white" fill-opacity="0.82"/>
<ellipse cx="94.5875" cy="274.035" rx="0.977997" ry="0.941775" transform="rotate(-104.668 94.5875 274.035)" fill="white" fill-opacity="0.82"/>
<circle cx="97.2198" cy="270.7" r="6.77353" transform="rotate(-76.8703 97.2198 270.7)" fill="#0115CB"/>
<circle cx="97.0172" cy="270.826" r="6.6048" transform="rotate(-76.8703 97.0172 270.826)" fill="#60CFFF" fill-opacity="0.95"/>
<circle cx="97.0023" cy="270.836" r="6.59242" transform="rotate(-76.8703 97.0023 270.836)" fill="#DEF5FF" fill-opacity="0.53"/>
<circle cx="93.0732" cy="270.949" r="1.88355" transform="rotate(-104.668 93.0732 270.949)" fill="white" fill-opacity="0.82"/>
<ellipse cx="94.5201" cy="273.903" rx="0.977997" ry="0.941775" transform="rotate(-104.668 94.5201 273.903)" fill="white" fill-opacity="0.82"/>
<circle cx="58.0836" cy="122.378" r="6.77353" transform="rotate(-76.8703 58.0836 122.378)" fill="#0115CB"/>
<circle cx="57.8809" cy="122.504" r="6.6048" transform="rotate(-76.8703 57.8809 122.504)" fill="#60CFFF" fill-opacity="0.95"/>
<circle cx="57.8661" cy="122.513" r="6.59242" transform="rotate(-76.8703 57.8661 122.513)" fill="#DEF5FF" fill-opacity="0.53"/>
<circle cx="53.9368" cy="122.627" r="1.88355" transform="rotate(-104.668 53.9368 122.627)" fill="white" fill-opacity="0.82"/>
<ellipse cx="55.3839" cy="125.581" rx="0.977997" ry="0.941775" transform="rotate(-104.668 55.3839 125.581)" fill="white" fill-opacity="0.82"/>
<circle cx="59.8285" cy="187.5" r="6.77353" transform="rotate(-76.8703 59.8285 187.5)" fill="#0115CB"/>
<circle cx="59.6258" cy="187.626" r="6.6048" transform="rotate(-76.8703 59.6258 187.626)" fill="#60CFFF" fill-opacity="0.95"/>
<circle cx="59.611" cy="187.635" r="6.59242" transform="rotate(-76.8703 59.611 187.635)" fill="#DEF5FF" fill-opacity="0.53"/>
<circle cx="55.6814" cy="187.749" r="1.88355" transform="rotate(-104.668 55.6814 187.749)" fill="white" fill-opacity="0.82"/>
<ellipse cx="57.1285" cy="190.703" rx="0.977997" ry="0.941775" transform="rotate(-104.668 57.1285 190.703)" fill="white" fill-opacity="0.82"/>
</g>
<g opacity="0.8">
<circle cx="71.3983" cy="857.012" r="6.77353" transform="rotate(-76.8703 71.3983 857.012)" fill="#0115CB"/>
<circle cx="71.1956" cy="857.138" r="6.6048" transform="rotate(-76.8703 71.1956 857.138)" fill="#60CFFF" fill-opacity="0.95"/>
<circle cx="71.1808" cy="857.147" r="6.59242" transform="rotate(-76.8703 71.1808 857.147)" fill="#DEF5FF" fill-opacity="0.53"/>
<circle cx="67.252" cy="857.26" r="1.88355" transform="rotate(-104.668 67.252 857.26)" fill="white" fill-opacity="0.82"/>
<ellipse cx="68.6996" cy="860.214" rx="0.977997" ry="0.941775" transform="rotate(-104.668 68.6996 860.214)" fill="white" fill-opacity="0.82"/>
<circle cx="106.039" cy="798.962" r="6.77353" transform="rotate(-76.8703 106.039 798.962)" fill="#0115CB"/>
<circle cx="105.836" cy="799.088" r="6.6048" transform="rotate(-76.8703 105.836 799.088)" fill="#60CFFF" fill-opacity="0.95"/>
<circle cx="105.821" cy="799.098" r="6.59242" transform="rotate(-76.8703 105.821 799.098)" fill="#DEF5FF" fill-opacity="0.53"/>
<circle cx="101.892" cy="799.211" r="1.88355" transform="rotate(-104.668 101.892 799.211)" fill="white" fill-opacity="0.82"/>
<ellipse cx="103.339" cy="802.165" rx="0.977997" ry="0.941775" transform="rotate(-104.668 103.339 802.165)" fill="white" fill-opacity="0.82"/>
<circle cx="60.1083" cy="804.896" r="6.77353" transform="rotate(-76.8703 60.1083 804.896)" fill="#0115CB"/>
<circle cx="59.9056" cy="805.022" r="6.6048" transform="rotate(-76.8703 59.9056 805.022)" fill="#60CFFF" fill-opacity="0.95"/>
<circle cx="59.8907" cy="805.031" r="6.59242" transform="rotate(-76.8703 59.8907 805.031)" fill="#DEF5FF" fill-opacity="0.53"/>
<circle cx="55.9612" cy="805.145" r="1.88355" transform="rotate(-104.668 55.9612 805.145)" fill="white" fill-opacity="0.82"/>
<ellipse cx="57.4083" cy="808.098" rx="0.977997" ry="0.941775" transform="rotate(-104.668 57.4083 808.098)" fill="white" fill-opacity="0.82"/>
<circle cx="107.551" cy="877.691" r="20.6151" transform="rotate(-10.6416 107.551 877.691)" fill="#0115CB"/>
<circle cx="106.952" cy="877.281" r="20.1016" transform="rotate(-10.6416 106.952 877.281)" fill="#60CFFF" fill-opacity="0.95"/>
<circle cx="106.952" cy="877.281" r="20.1016" transform="rotate(-10.6416 106.952 877.281)" fill="#DEF5FF" fill-opacity="0.53"/>
<circle cx="100.503" cy="862.63" r="3.63149" transform="rotate(-10.6416 100.503 862.63)" fill="white" fill-opacity="0.82"/>
<circle cx="94.605" cy="865.008" r="1.87077" transform="rotate(-10.6416 94.605 865.008)" fill="white" fill-opacity="0.82"/>
<circle cx="81.4226" cy="816.441" r="12.3691" transform="rotate(45.8199 81.4226 816.441)" fill="#0115CB"/>
<circle cx="81.4288" cy="816.005" r="12.0609" transform="rotate(45.8199 81.4288 816.005)" fill="#60CFFF" fill-opacity="0.95"/>
<circle cx="81.4292" cy="815.973" r="12.0383" transform="rotate(45.8199 81.4292 815.973)" fill="#DEF5FF" fill-opacity="0.53"/>
<circle cx="85.13" cy="809.823" r="3.43953" transform="rotate(18.0222 85.13 809.823)" fill="white" fill-opacity="0.82"/>
<ellipse cx="79.1633" cy="809.134" rx="1.78591" ry="1.71976" transform="rotate(18.0222 79.1633 809.134)" fill="white" fill-opacity="0.82"/>
<circle cx="134.999" cy="841.969" r="12.3691" transform="rotate(66.2789 134.999 841.969)" fill="#0115CB"/>
<circle cx="135.157" cy="841.563" r="12.0609" transform="rotate(66.2789 135.157 841.563)" fill="#60CFFF" fill-opacity="0.95"/>
<circle cx="135.169" cy="841.533" r="12.0383" transform="rotate(66.2789 135.169 841.533)" fill="#DEF5FF" fill-opacity="0.53"/>
<circle cx="140.786" cy="837.064" r="3.43953" transform="rotate(38.4813 140.786 837.064)" fill="white" fill-opacity="0.82"/>
<ellipse cx="135.437" cy="834.333" rx="1.78591" ry="1.71976" transform="rotate(38.4813 135.437 834.333)" fill="white" fill-opacity="0.82"/>
<circle cx="129.669" cy="907.696" r="6.77353" transform="rotate(-10.6416 129.669 907.696)" fill="#0115CB"/>
<circle cx="129.472" cy="907.561" r="6.6048" transform="rotate(-10.6416 129.472 907.561)" fill="#60CFFF" fill-opacity="0.95"/>
<circle cx="129.458" cy="907.551" r="6.59242" transform="rotate(-10.6416 129.458 907.551)" fill="#DEF5FF" fill-opacity="0.53"/>
<circle cx="127.77" cy="904.001" r="1.88355" transform="rotate(-38.4393 127.77 904.001)" fill="white" fill-opacity="0.82"/>
<ellipse cx="125.651" cy="906.516" rx="0.977997" ry="0.941775" transform="rotate(-38.4393 125.651 906.516)" fill="white" fill-opacity="0.82"/>
<circle cx="60.3418" cy="641.594" r="27.5359" transform="rotate(-10.6416 60.3418 641.594)" fill="#0115CB"/>
<circle cx="59.541" cy="641.046" r="26.8499" transform="rotate(-10.6416 59.541 641.046)" fill="#60CFFF" fill-opacity="0.95"/>
<circle cx="59.541" cy="641.046" r="26.8499" transform="rotate(-10.6416 59.541 641.046)" fill="#DEF5FF" fill-opacity="0.53"/>
<circle cx="50.9293" cy="621.477" r="4.85063" transform="rotate(-10.6416 50.9293 621.477)" fill="white" fill-opacity="0.82"/>
<circle cx="43.0501" cy="624.652" r="2.49881" transform="rotate(-10.6416 43.0501 624.652)" fill="white" fill-opacity="0.82"/>
<circle cx="78.7073" cy="577.463" r="12.3691" transform="rotate(-10.6416 78.7073 577.463)" fill="#0115CB"/>
<circle cx="78.3476" cy="577.217" r="12.0609" transform="rotate(-10.6416 78.3476 577.217)" fill="#60CFFF" fill-opacity="0.95"/>
<circle cx="78.3212" cy="577.199" r="12.0383" transform="rotate(-10.6416 78.3212 577.199)" fill="#DEF5FF" fill-opacity="0.53"/>
<circle cx="75.2403" cy="570.716" r="3.43953" transform="rotate(-38.4393 75.2403 570.716)" fill="white" fill-opacity="0.82"/>
<ellipse cx="71.3686" cy="575.309" rx="1.78591" ry="1.71976" transform="rotate(-38.4393 71.3686 575.309)" fill="white" fill-opacity="0.82"/>
<circle cx="92.6484" cy="605.408" r="12.3691" transform="rotate(66.2789 92.6484 605.408)" fill="#0115CB"/>
<circle cx="92.8065" cy="605.002" r="12.0609" transform="rotate(66.2789 92.8065 605.002)" fill="#60CFFF" fill-opacity="0.95"/>
<circle cx="92.8181" cy="604.972" r="12.0383" transform="rotate(66.2789 92.8181 604.972)" fill="#DEF5FF" fill-opacity="0.53"/>
<circle cx="98.4345" cy="600.503" r="3.43953" transform="rotate(38.4813 98.4345 600.503)" fill="white" fill-opacity="0.82"/>
<ellipse cx="93.0852" cy="597.772" rx="1.78591" ry="1.71976" transform="rotate(38.4813 93.0852 597.772)" fill="white" fill-opacity="0.82"/>
<circle cx="87.3183" cy="671.135" r="6.77353" transform="rotate(-10.6416 87.3183 671.135)" fill="#0115CB"/>
<circle cx="87.1213" cy="671" r="6.6048" transform="rotate(-10.6416 87.1213 671)" fill="#60CFFF" fill-opacity="0.95"/>
<circle cx="87.1068" cy="670.991" r="6.59242" transform="rotate(-10.6416 87.1068 670.991)" fill="#DEF5FF" fill-opacity="0.53"/>
<circle cx="85.419" cy="667.441" r="1.88355" transform="rotate(-38.4393 85.419 667.441)" fill="white" fill-opacity="0.82"/>
<ellipse cx="83.2998" cy="669.955" rx="0.977997" ry="0.941775" transform="rotate(-38.4393 83.2998 669.955)" fill="white" fill-opacity="0.82"/>
<circle cx="112.462" cy="570.521" r="6.77353" transform="rotate(-10.6416 112.462 570.521)" fill="#0115CB"/>
<circle cx="112.265" cy="570.386" r="6.6048" transform="rotate(-10.6416 112.265 570.386)" fill="#60CFFF" fill-opacity="0.95"/>
<circle cx="112.251" cy="570.376" r="6.59242" transform="rotate(-10.6416 112.251 570.376)" fill="#DEF5FF" fill-opacity="0.53"/>
<circle cx="110.563" cy="566.826" r="1.88355" transform="rotate(-38.4393 110.563 566.826)" fill="white" fill-opacity="0.82"/>
<ellipse cx="108.443" cy="569.341" rx="0.977997" ry="0.941775" transform="rotate(-38.4393 108.443 569.341)" fill="white" fill-opacity="0.82"/>
<circle cx="53.5683" cy="598.368" r="6.77353" transform="rotate(-10.6416 53.5683 598.368)" fill="#0115CB"/>
<circle cx="53.3713" cy="598.233" r="6.6048" transform="rotate(-10.6416 53.3713 598.233)" fill="#60CFFF" fill-opacity="0.95"/>
<circle cx="53.3568" cy="598.223" r="6.59242" transform="rotate(-10.6416 53.3568 598.223)" fill="#DEF5FF" fill-opacity="0.53"/>
<circle cx="51.6688" cy="594.673" r="1.88355" transform="rotate(-38.4393 51.6688 594.673)" fill="white" fill-opacity="0.82"/>
<ellipse cx="49.5498" cy="597.188" rx="0.977997" ry="0.941775" transform="rotate(-38.4393 49.5498 597.188)" fill="white" fill-opacity="0.82"/>
<circle cx="100.783" cy="761.063" r="22.239" transform="rotate(-76.8703 100.783 761.063)" fill="#0115CB"/>
<circle cx="100.118" cy="761.476" r="21.685" transform="rotate(-76.8703 100.118 761.476)" fill="#60CFFF" fill-opacity="0.95"/>
<circle cx="100.118" cy="761.476" r="21.685" transform="rotate(-76.8703 100.118 761.476)" fill="#DEF5FF" fill-opacity="0.53"/>
<circle cx="82.8496" cy="761.471" r="3.91754" transform="rotate(-76.8703 82.8496 761.471)" fill="white" fill-opacity="0.82"/>
<circle cx="82.6316" cy="768.328" r="2.01813" transform="rotate(-76.8703 82.6316 768.328)" fill="white" fill-opacity="0.82"/>
<circle cx="54.6748" cy="718.681" r="12.3691" transform="rotate(-76.8703 54.6748 718.681)" fill="#0115CB"/>
<circle cx="54.3047" cy="718.911" r="12.0609" transform="rotate(-76.8703 54.3047 718.911)" fill="#60CFFF" fill-opacity="0.95"/>
<circle cx="54.2776" cy="718.928" r="12.0383" transform="rotate(-76.8703 54.2776 718.928)" fill="#DEF5FF" fill-opacity="0.53"/>
<circle cx="47.1032" cy="719.135" r="3.43953" transform="rotate(-104.668 47.1032 719.135)" fill="white" fill-opacity="0.82"/>
<ellipse cx="49.7459" cy="724.529" rx="1.78591" ry="1.71976" transform="rotate(-104.668 49.7459 724.529)" fill="white" fill-opacity="0.82"/>
<circle cx="85.8687" cy="717.187" r="12.3691" transform="rotate(0.0502089 85.8687 717.187)" fill="#0115CB"/>
<circle cx="85.5609" cy="716.879" r="12.0609" transform="rotate(0.0502089 85.5609 716.879)" fill="#60CFFF" fill-opacity="0.95"/>
<circle cx="85.5383" cy="716.856" r="12.0383" transform="rotate(0.0502089 85.5383 716.856)" fill="#DEF5FF" fill-opacity="0.53"/>
<circle cx="83.7127" cy="709.914" r="3.43953" transform="rotate(-27.7474 83.7127 709.914)" fill="white" fill-opacity="0.82"/>
<ellipse cx="79.0572" cy="713.709" rx="1.78591" ry="1.71976" transform="rotate(-27.7474 79.0572 713.709)" fill="white" fill-opacity="0.82"/>
<circle cx="64.6942" cy="776.247" r="10.185" transform="rotate(-76.8703 64.6942 776.247)" fill="#0115CB"/>
<circle cx="64.3895" cy="776.436" r="9.93124" transform="rotate(-76.8703 64.3895 776.436)" fill="#60CFFF" fill-opacity="0.95"/>
<circle cx="64.3671" cy="776.45" r="9.91263" transform="rotate(-76.8703 64.3671 776.45)" fill="#DEF5FF" fill-opacity="0.53"/>
<circle cx="58.4595" cy="776.621" r="2.83218" transform="rotate(-104.668 58.4595 776.621)" fill="white" fill-opacity="0.82"/>
<ellipse cx="60.635" cy="781.062" rx="1.47056" ry="1.41609" transform="rotate(-104.668 60.635 781.062)" fill="white" fill-opacity="0.82"/>
<circle cx="101.131" cy="833.446" r="6.77353" transform="rotate(-76.8703 101.131 833.446)" fill="#0115CB"/>
<circle cx="100.928" cy="833.572" r="6.6048" transform="rotate(-76.8703 100.928 833.572)" fill="#60CFFF" fill-opacity="0.95"/>
<circle cx="100.913" cy="833.581" r="6.59242" transform="rotate(-76.8703 100.913 833.581)" fill="#DEF5FF" fill-opacity="0.53"/>
<circle cx="96.9849" cy="833.695" r="1.88355" transform="rotate(-104.668 96.9849 833.695)" fill="white" fill-opacity="0.82"/>
<ellipse cx="98.432" cy="836.648" rx="0.977997" ry="0.941775" transform="rotate(-104.668 98.432 836.648)" fill="white" fill-opacity="0.82"/>
<circle cx="101.064" cy="833.314" r="6.77353" transform="rotate(-76.8703 101.064 833.314)" fill="#0115CB"/>
<circle cx="100.862" cy="833.44" r="6.6048" transform="rotate(-76.8703 100.862 833.44)" fill="#60CFFF" fill-opacity="0.95"/>
<circle cx="100.847" cy="833.449" r="6.59242" transform="rotate(-76.8703 100.847 833.449)" fill="#DEF5FF" fill-opacity="0.53"/>
<circle cx="96.9177" cy="833.562" r="1.88355" transform="rotate(-104.668 96.9177 833.562)" fill="white" fill-opacity="0.82"/>
<ellipse cx="98.3649" cy="836.516" rx="0.977997" ry="0.941775" transform="rotate(-104.668 98.3649 836.516)" fill="white" fill-opacity="0.82"/>
<circle cx="61.9278" cy="684.991" r="6.77353" transform="rotate(-76.8703 61.9278 684.991)" fill="#0115CB"/>
<circle cx="61.7252" cy="685.117" r="6.6048" transform="rotate(-76.8703 61.7252 685.117)" fill="#60CFFF" fill-opacity="0.95"/>
<circle cx="61.7103" cy="685.127" r="6.59242" transform="rotate(-76.8703 61.7103 685.127)" fill="#DEF5FF" fill-opacity="0.53"/>
<circle cx="57.7812" cy="685.24" r="1.88355" transform="rotate(-104.668 57.7812 685.24)" fill="white" fill-opacity="0.82"/>
<ellipse cx="59.2284" cy="688.194" rx="0.977997" ry="0.941775" transform="rotate(-104.668 59.2284 688.194)" fill="white" fill-opacity="0.82"/>
<circle cx="63.673" cy="750.113" r="6.77353" transform="rotate(-76.8703 63.673 750.113)" fill="#0115CB"/>
<circle cx="63.4703" cy="750.239" r="6.6048" transform="rotate(-76.8703 63.4703 750.239)" fill="#60CFFF" fill-opacity="0.95"/>
<circle cx="63.4554" cy="750.249" r="6.59242" transform="rotate(-76.8703 63.4554 750.249)" fill="#DEF5FF" fill-opacity="0.53"/>
<circle cx="59.5259" cy="750.362" r="1.88355" transform="rotate(-104.668 59.5259 750.362)" fill="white" fill-opacity="0.82"/>
<ellipse cx="60.973" cy="753.316" rx="0.977997" ry="0.941775" transform="rotate(-104.668 60.973 753.316)" fill="white" fill-opacity="0.82"/>
</g>
<g opacity="0.8">
<circle cx="26.0099" cy="26.0099" r="26.0099" transform="matrix(-0.828367 -0.560187 -0.560187 0.828367 134.593 437.6)" fill="#0115CB"/>
<circle cx="25.362" cy="25.362" r="25.362" transform="matrix(-0.828367 -0.560187 -0.560187 0.828367 134.593 437.6)" fill="#60CFFF" fill-opacity="0.95"/>
<circle cx="25.362" cy="25.362" r="25.362" transform="matrix(-0.828367 -0.560187 -0.560187 0.828367 134.593 437.6)" fill="#DEF5FF" fill-opacity="0.53"/>
<circle cx="4.58182" cy="4.58182" r="4.58182" transform="matrix(-0.828367 -0.560187 -0.560187 0.828367 120.552 429.446)" fill="white" fill-opacity="0.82"/>
<circle cx="2.36033" cy="2.36033" r="2.36033" transform="matrix(-0.828367 -0.560187 -0.560187 0.828367 123.104 435.753)" fill="white" fill-opacity="0.82"/>
<circle cx="11.6836" cy="11.6836" r="11.6836" transform="matrix(-0.828367 -0.560187 -0.560187 0.828367 122.867 378.961)" fill="#0115CB"/>
<circle cx="11.3926" cy="11.3926" r="11.3926" transform="matrix(-0.828367 -0.560187 -0.560187 0.828367 122.867 378.961)" fill="#60CFFF" fill-opacity="0.95"/>
<circle cx="11.3712" cy="11.3712" r="11.3712" transform="matrix(-0.828367 -0.560187 -0.560187 0.828367 122.867 378.961)" fill="#DEF5FF" fill-opacity="0.53"/>
<circle cx="3.24892" cy="3.24892" r="3.24892" transform="matrix(-0.47153 -0.88185 -0.88185 0.47153 116.58 378.883)" fill="white" fill-opacity="0.82"/>
<ellipse cx="1.68694" cy="1.62446" rx="1.68694" ry="1.62446" transform="matrix(-0.47153 -0.88185 -0.88185 0.47153 116.041 383.705)" fill="white" fill-opacity="0.82"/>
<circle cx="11.6836" cy="11.6836" r="11.6836" transform="matrix(-0.733115 0.680105 0.680105 0.733115 84.6853 384.569)" fill="#0115CB"/>
<circle cx="11.3926" cy="11.3926" r="11.3926" transform="matrix(-0.733115 0.680105 0.680105 0.733115 84.6853 384.569)" fill="#60CFFF" fill-opacity="0.95"/>
<circle cx="11.3712" cy="11.3712" r="11.3712" transform="matrix(-0.733115 0.680105 0.680105 0.733115 84.6853 384.569)" fill="#DEF5FF" fill-opacity="0.53"/>
<circle cx="3.24892" cy="3.24892" r="3.24892" transform="matrix(-0.965681 0.259733 0.259733 0.965681 83.1858 390.675)" fill="white" fill-opacity="0.82"/>
<ellipse cx="1.68694" cy="1.62446" rx="1.68694" ry="1.62446" transform="matrix(-0.965681 0.259733 0.259733 0.965681 87.7617 392.291)" fill="white" fill-opacity="0.82"/>
<circle cx="6.39816" cy="6.39816" r="6.39816" transform="matrix(-0.828367 -0.560187 -0.560187 0.828367 72.8857 458.333)" fill="#0115CB"/>
<circle cx="6.23878" cy="6.23878" r="6.23878" transform="matrix(-0.828367 -0.560187 -0.560187 0.828367 72.8857 458.333)" fill="#60CFFF" fill-opacity="0.95"/>
<circle cx="6.22709" cy="6.22709" r="6.22709" transform="matrix(-0.828367 -0.560187 -0.560187 0.828367 72.8857 458.333)" fill="#DEF5FF" fill-opacity="0.53"/>
<circle cx="1.77917" cy="1.77917" r="1.77917" transform="matrix(-0.47153 -0.88185 -0.88185 0.47153 69.4436 458.29)" fill="white" fill-opacity="0.82"/>
<ellipse cx="0.923799" cy="0.889584" rx="0.923799" ry="0.889584" transform="matrix(-0.47153 -0.88185 -0.88185 0.47153 69.1482 460.931)" fill="white" fill-opacity="0.82"/>
<circle cx="6.39816" cy="6.39816" r="6.39816" transform="matrix(-0.828367 -0.560187 -0.560187 0.828367 88.8782 361.686)" fill="#0115CB"/>
<circle cx="6.23878" cy="6.23878" r="6.23878" transform="matrix(-0.828367 -0.560187 -0.560187 0.828367 88.8782 361.686)" fill="#60CFFF" fill-opacity="0.95"/>
<circle cx="6.22709" cy="6.22709" r="6.22709" transform="matrix(-0.828367 -0.560187 -0.560187 0.828367 88.8782 361.686)" fill="#DEF5FF" fill-opacity="0.53"/>
<circle cx="1.77917" cy="1.77917" r="1.77917" transform="matrix(-0.47153 -0.88185 -0.88185 0.47153 85.4353 361.643)" fill="white" fill-opacity="0.82"/>
<ellipse cx="0.923799" cy="0.889584" rx="0.923799" ry="0.889584" transform="matrix(-0.47153 -0.88185 -0.88185 0.47153 85.1401 364.284)" fill="white" fill-opacity="0.82"/>
<circle cx="6.39816" cy="6.39816" r="6.39816" transform="matrix(-0.828367 -0.560187 -0.560187 0.828367 129.465 407.939)" fill="#0115CB"/>
<circle cx="6.23878" cy="6.23878" r="6.23878" transform="matrix(-0.828367 -0.560187 -0.560187 0.828367 129.465 407.939)" fill="#60CFFF" fill-opacity="0.95"/>
<circle cx="6.22709" cy="6.22709" r="6.22709" transform="matrix(-0.828367 -0.560187 -0.560187 0.828367 129.465 407.939)" fill="#DEF5FF" fill-opacity="0.53"/>
<circle cx="1.77917" cy="1.77917" r="1.77917" transform="matrix(-0.47153 -0.88185 -0.88185 0.47153 126.022 407.895)" fill="white" fill-opacity="0.82"/>
<ellipse cx="0.923799" cy="0.889584" rx="0.923799" ry="0.889584" transform="matrix(-0.47153 -0.88185 -0.88185 0.47153 125.727 410.536)" fill="white" fill-opacity="0.82"/>
<circle cx="11.6836" cy="11.6836" r="11.6836" transform="matrix(0.178758 -0.983893 -0.983893 -0.178758 83.8455 527.101)" fill="#0115CB"/>
<circle cx="11.3926" cy="11.3926" r="11.3926" transform="matrix(0.178758 -0.983893 -0.983893 -0.178758 83.8455 527.101)" fill="#60CFFF" fill-opacity="0.95"/>
<circle cx="11.3712" cy="11.3712" r="11.3712" transform="matrix(0.178758 -0.983893 -0.983893 -0.178758 83.8455 527.101)" fill="#DEF5FF" fill-opacity="0.53"/>
<circle cx="3.24892" cy="3.24892" r="3.24892" transform="matrix(0.616968 -0.786988 -0.786988 -0.616968 81.3831 521.315)" fill="white" fill-opacity="0.82"/>
<ellipse cx="1.68694" cy="1.62446" rx="1.68694" ry="1.62446" transform="matrix(0.616968 -0.786988 -0.786988 -0.616968 76.752 522.766)" fill="white" fill-opacity="0.82"/>
<circle cx="11.6836" cy="11.6836" r="11.6836" transform="matrix(-0.917915 -0.396777 -0.396777 0.917915 63.3235 494.418)" fill="#0115CB"/>
<circle cx="11.3926" cy="11.3926" r="11.3926" transform="matrix(-0.917915 -0.396777 -0.396777 0.917915 63.3235 494.418)" fill="#60CFFF" fill-opacity="0.95"/>
<circle cx="11.3712" cy="11.3712" r="11.3712" transform="matrix(-0.917915 -0.396777 -0.396777 0.917915 63.3235 494.418)" fill="#DEF5FF" fill-opacity="0.53"/>
<circle cx="3.24892" cy="3.24892" r="3.24892" transform="matrix(-0.62695 -0.779059 -0.779059 0.62695 57.1313 495.508)" fill="white" fill-opacity="0.82"/>
<ellipse cx="1.68694" cy="1.62446" rx="1.68694" ry="1.62446" transform="matrix(-0.62695 -0.779059 -0.779059 0.62695 57.4961 500.346)" fill="white" fill-opacity="0.82"/>
<circle cx="6.39816" cy="6.39816" r="6.39816" transform="matrix(0.178758 -0.983893 -0.983893 -0.178758 85.9556 489.032)" fill="#0115CB"/>
<circle cx="6.23878" cy="6.23878" r="6.23878" transform="matrix(0.178758 -0.983893 -0.983893 -0.178758 85.9556 489.032)" fill="#60CFFF" fill-opacity="0.95"/>
<circle cx="6.22709" cy="6.22709" r="6.22709" transform="matrix(0.178758 -0.983893 -0.983893 -0.178758 85.9556 489.032)" fill="#DEF5FF" fill-opacity="0.53"/>
<circle cx="1.77917" cy="1.77917" r="1.77917" transform="matrix(0.616968 -0.786988 -0.786988 -0.616968 84.6072 485.864)" fill="white" fill-opacity="0.82"/>
<ellipse cx="0.923799" cy="0.889584" rx="0.923799" ry="0.889584" transform="matrix(0.616968 -0.786988 -0.786988 -0.616968 82.071 486.658)" fill="white" fill-opacity="0.82"/>
<circle cx="6.39816" cy="6.39816" r="6.39816" transform="matrix(0.178758 -0.983893 -0.983893 -0.178758 59.9866 544.819)" fill="#0115CB"/>
<circle cx="6.23878" cy="6.23878" r="6.23878" transform="matrix(0.178758 -0.983893 -0.983893 -0.178758 59.9866 544.819)" fill="#60CFFF" fill-opacity="0.95"/>
<circle cx="6.22709" cy="6.22709" r="6.22709" transform="matrix(0.178758 -0.983893 -0.983893 -0.178758 59.9866 544.819)" fill="#DEF5FF" fill-opacity="0.53"/>
<circle cx="1.77917" cy="1.77917" r="1.77917" transform="matrix(0.616968 -0.786988 -0.786988 -0.616968 58.6377 541.651)" fill="white" fill-opacity="0.82"/>
<ellipse cx="0.923799" cy="0.889584" rx="0.923799" ry="0.889584" transform="matrix(0.616968 -0.786988 -0.786988 -0.616968 56.1021 542.445)" fill="white" fill-opacity="0.82"/>
</g>
</svg>
