<svg xmlns="http://www.w3.org/2000/svg" viewBox="0 0 256 256"><defs><style>.cls-1{fill:#f4e96c;}.cls-2{fill:#e862e8;}.cls-3{fill:#edafef;}.cls-4,.cls-5{fill:#fffb78;}.cls-5{opacity:0.37;}.cls-6{fill:#fff;}</style></defs><g id="фон"><rect class="cls-1" width="256" height="256"/></g><g id="осьми"><ellipse cx="127.69" cy="103.78" rx="75.24" ry="71.77" transform="translate(-2.34 2.95) rotate(-1.31)"/><path d="M98.37,163c4.58-7.22,4.38-14.71,4.25-18-.45-11.18-6.2-18.66-8.92-22.1-2.94-3.71-6.83-8.64-13.63-11-8-2.84-20.15-2.12-27.46,4.86-2.44,2.33-4.41,5.41-8.28,6s-7.18-1.75-7.78-2.17c-2.86-2-3.17-4.06-8.59-10.18a6.67,6.67,0,0,0-3.76-2.46,6.18,6.18,0,0,0-3.94.7c-4.1,2.11-5.27,8.66-5.63,10.68-2.28,12.72,4.12,25.31,5.11,27.2,8.67,16.61,23.27,23.17,28.2,25.3a54.78,54.78,0,0,0,18.73,4.45c5.5.3,12.28.67,19.82-3.09A27.81,27.81,0,0,0,98.37,163Z"/><path class="cls-2" d="M98.32,163.26c4.4-6.93,4.13-14.16,4-17.34-.55-10.79-6.23-18.08-8.91-21.42-2.9-3.62-6.75-8.42-13.4-10.8-7.88-2.83-19.67-2.27-26.73,4.38-2.36,2.23-4.25,5.18-8,5.69s-7-1.76-7.61-2.17c-2.82-2-3.14-4-8.48-9.92a6.73,6.73,0,0,0-3.69-2.42,6,6,0,0,0-3.84.63c-4,2-5.05,8.3-5.38,10.25-2.09,12.24,4.27,24.47,5.25,26.3,8.62,16.12,22.93,22.62,27.76,24.73a54.92,54.92,0,0,0,18.3,4.5c5.37.35,12,.78,19.3-2.76A26.33,26.33,0,0,0,98.32,163.26Z"/><path d="M157.63,163c-4.58-7.22-4.38-14.71-4.25-18,.45-11.18,6.2-18.66,8.92-22.1,2.94-3.71,6.83-8.64,13.63-11,8-2.84,20.15-2.12,27.46,4.86,2.44,2.33,4.41,5.41,8.28,6s7.18-1.75,7.78-2.17c2.86-2,3.17-4.06,8.59-10.18a6.67,6.67,0,0,1,3.76-2.46,6.18,6.18,0,0,1,3.94.7c4.1,2.11,5.27,8.66,5.63,10.68,2.28,12.72-4.12,25.31-5.11,27.2-8.67,16.61-23.27,23.17-28.2,25.3a54.78,54.78,0,0,1-18.73,4.45c-5.5.3-12.28.67-19.82-3.09A27.81,27.81,0,0,1,157.63,163Z"/><path class="cls-2" d="M157.68,163.26c-4.4-6.93-4.13-14.16-4-17.34.55-10.79,6.23-18.08,8.91-21.42,2.9-3.62,6.75-8.42,13.4-10.8,7.88-2.83,19.67-2.27,26.73,4.38,2.36,2.23,4.25,5.18,8,5.69s7-1.76,7.61-2.17c2.82-2,3.14-4,8.48-9.92a6.73,6.73,0,0,1,3.69-2.42,6,6,0,0,1,3.84.63c4,2,5.05,8.3,5.38,10.25,2.09,12.24-4.27,24.47-5.25,26.3-8.62,16.12-22.93,22.62-27.76,24.73a54.92,54.92,0,0,1-18.3,4.5c-5.37.35-12,.78-19.3-2.76A26.33,26.33,0,0,1,157.68,163.26Z"/><path class="cls-3" d="M98.72,160.55A28.29,28.29,0,0,1,90,169.43c-7.06,4.62-14.13,4.91-19.33,5.06a56.1,56.1,0,0,1-47.36-24.65,57.23,57.23,0,0,1-7.54-21.1c-.47-3.43-1.21-8,1.29-11.07.37-.46,1.51-1.88,2.67-1.67,2,.36,2.4,5.19,3.3,8.83,1.62,6.49,5.15,10.66,9.33,15.58,10.74,12.67,28.71,13.92,33.17,14.23,7.25.51,20.09,1.41,29.18-6.65,3.6-3.2,5.38-6.7,6.83-6.09C103.81,142.83,103.3,152.85,98.72,160.55Z"/><path d="M84.76,189.9a49.79,49.79,0,0,1-30.63,7.72A50.27,50.27,0,0,1,27.63,187c-6.55-5-17.76-15.81-15.35-22.71a11.13,11.13,0,0,1,3.94-4.86,12.27,12.27,0,0,1,7.56-2c7.83.15,12.51,3.42,19.17,5.22,3.68,1,12.35,3.33,20.24-.11,8.59-3.75,7.63-10.59,16.86-14.85C81.41,147,90.2,143,97.29,147s10.61,15.1,8.06,27.1"/><path class="cls-2" d="M79.56,188.21a45,45,0,0,1-27.65,7A45.29,45.29,0,0,1,28,185.56c-5.92-4.49-16-14.28-13.87-20.5a10.08,10.08,0,0,1,3.56-4.39,11.13,11.13,0,0,1,6.83-1.8c7.06.14,11.29,3.09,17.3,4.71,3.33.9,11.15,3,18.27-.09,7.75-3.39,6.89-9.57,15.22-13.41,1.23-.57,9.16-4.22,15.57-.59s9.57,13.64,7.27,24.47"/><path class="cls-3" d="M88.11,181.17C81.32,187.64,76.69,190,76.69,190a44.91,44.91,0,0,1-19.76,5.26,45,45,0,0,1-18.31-3.59A49.52,49.52,0,0,1,26,183.57a89.89,89.89,0,0,1-7.62-7.71c-2.24-2.4-4.05-4.47-3.94-7.12,0-.36.07-2,1-2.47,1.16-.56,3,1,3.44,1.38.07,0,5.32,2.33,15.82,6.87,11.33,4.91,24.13,2.9,25,2.76,2.59-.44,13.31-2.49,23.16-5.05,1.43-.37,5.18-1.36,6.87.46,1.48,1.58.75,4.6.69,4.82A7.65,7.65,0,0,1,88.11,181.17Z"/><path d="M125.25,155.76a25,25,0,0,0-7.7-10c-7.9-6-17.32-5.19-20.51-4.91a35.92,35.92,0,0,0-14.69,4.84,33.05,33.05,0,0,0-13.41,14.18c-1.49,3.11-4.33,9.06-2.93,16,1.13,5.58,4.15,7.58,3.67,13.09-.15,1.73-.46,5.3-3.11,7.75-2.18,2-4.06,1.53-12.87,4.3-3.88,1.21-5.05,1.79-5.77,3-1.71,2.92.6,6.95.91,7.46,1.41,2.38,3.92,4.49,10.24,6.51a46.39,46.39,0,0,0,21.17,2.46c11-1.41,18.39-6.52,22.92-9.67a56.93,56.93,0,0,0,14-13.8,55.7,55.7,0,0,0,3.19-5.14C123.18,186.63,131.88,170.62,125.25,155.76Z"/><path class="cls-2" d="M124.54,155.35a24.53,24.53,0,0,0-7.41-10c-7.64-6-16.79-5.08-19.89-4.78a34.61,34.61,0,0,0-14.3,4.92,33.18,33.18,0,0,0-13.12,14.24c-1.46,3.12-4.26,9.08-2.94,16,1.06,5.56,4,7.54,3.48,13.05-.16,1.72-.48,5.29-3.07,7.75-2.12,2-4,1.56-12.52,4.37-3.78,1.24-4.92,1.82-5.63,3.06-1.68,2.94.55,6.94.84,7.46,1.36,2.37,3.78,4.45,9.9,6.43,4.3,1.38,11.19,3.61,20.55,2.32,10.74-1.47,17.9-6.62,22.32-9.79a57.32,57.32,0,0,0,13.69-13.87,53.54,53.54,0,0,0,3.13-5.16C122.34,186.18,130.88,170.14,124.54,155.35Z"/><path class="cls-3" d="M123.69,182c-3.4,7.69-5.89,13.3-11.54,19.75a52.61,52.61,0,0,1-19.22,14.59,49.65,49.65,0,0,1-20.07,4s-10.91-.16-19.6-5.91c-1.53-1-2.93-2.24-2.85-3.64s1.93-2.59,2.72-3c6.34-3.51,15.63,0,23.8-2.15,10-2.59,15.35-12.76,16.19-14.36,5.19-9.86.18-14.88,5.67-22.84,3.85-5.58,11.77-11,19.06-8.92a13.43,13.43,0,0,1,8.89,8.55C127.43,170.15,127.62,173.09,123.69,182Z"/><path class="cls-3" d="M157.66,160.27a28.21,28.21,0,0,0,8.7,8.88c7.06,4.62,14.13,4.91,19.33,5.06a56.06,56.06,0,0,0,47.36-24.65,57.14,57.14,0,0,0,7.54-21.1c.47-3.42,1.21-8-1.28-11.07-.37-.46-1.51-1.88-2.68-1.67-2,.36-2.39,5.19-3.3,8.84-1.61,6.48-5.15,10.65-9.32,15.57-10.75,12.67-28.71,13.92-33.18,14.23-7.24.51-20.09,1.41-29.18-6.65-3.6-3.2-5.37-6.7-6.83-6.09C152.56,142.55,153.07,152.57,157.66,160.27Z"/><path d="M171.24,189.9A48.59,48.59,0,0,0,228.37,187c6.55-5,17.76-15.81,15.35-22.71a11.13,11.13,0,0,0-3.94-4.86,12.27,12.27,0,0,0-7.56-2c-7.83.15-12.51,3.42-19.17,5.22-3.68,1-12.35,3.33-20.24-.11-8.59-3.75-7.63-10.59-16.86-14.85-1.36-.63-10.15-4.68-17.24-.65s-10.61,15.1-8.06,27.1"/><path class="cls-2" d="M176.44,188.21A43.85,43.85,0,0,0,228,185.56c5.92-4.49,16-14.28,13.87-20.5a10.08,10.08,0,0,0-3.56-4.39,11.13,11.13,0,0,0-6.83-1.8c-7.06.14-11.29,3.09-17.3,4.71-3.33.9-11.15,3-18.27-.09-7.75-3.39-6.89-9.57-15.22-13.41-1.23-.57-9.16-4.22-15.57-.59s-9.57,13.64-7.27,24.47"/><path class="cls-3" d="M168.26,180.89c6.8,6.47,11.42,8.78,11.42,8.78a43.47,43.47,0,0,0,38.07,1.67,49.6,49.6,0,0,0,12.67-8.05,88.75,88.75,0,0,0,7.61-7.71c2.24-2.4,4.05-4.47,3.95-7.12,0-.35-.08-2-1-2.47-1.15-.56-3,1-3.44,1.38-.07,0-5.32,2.33-15.82,6.88-11.32,4.9-24.13,2.89-25,2.75-2.59-.44-13.32-2.49-23.16-5.05-1.44-.37-5.18-1.36-6.88.46-1.48,1.59-.74,4.6-.69,4.82A7.81,7.81,0,0,0,168.26,180.89Z"/><path d="M130.75,155.76a25,25,0,0,1,7.7-10c7.9-6,17.32-5.19,20.51-4.91a35.92,35.92,0,0,1,14.69,4.84,33.05,33.05,0,0,1,13.41,14.18c1.49,3.11,4.33,9.06,2.93,16-1.13,5.58-4.15,7.58-3.67,13.09.15,1.73.46,5.3,3.11,7.75,2.18,2,4.06,1.53,12.87,4.3,3.88,1.21,5,1.79,5.77,3,1.71,2.92-.6,6.95-.91,7.46-1.41,2.38-3.92,4.49-10.24,6.51a46.39,46.39,0,0,1-21.17,2.46c-11.05-1.41-18.39-6.52-22.92-9.67a56.93,56.93,0,0,1-14-13.8,55.7,55.7,0,0,1-3.19-5.14C132.82,186.63,124.12,170.62,130.75,155.76Z"/><path class="cls-2" d="M131.46,155.35a24.53,24.53,0,0,1,7.41-10c7.64-6,16.79-5.08,19.89-4.78a34.61,34.61,0,0,1,14.3,4.92,33.18,33.18,0,0,1,13.12,14.24c1.46,3.12,4.26,9.08,2.94,16-1.06,5.56-4,7.54-3.48,13.05.16,1.72.48,5.29,3.07,7.75,2.12,2,3.95,1.56,12.52,4.37,3.78,1.24,4.92,1.82,5.63,3.06,1.68,2.94-.55,6.94-.84,7.46-1.36,2.37-3.78,4.45-9.9,6.43-4.3,1.38-11.19,3.61-20.55,2.32-10.74-1.47-17.9-6.62-22.32-9.79a57.32,57.32,0,0,1-13.69-13.87,53.54,53.54,0,0,1-3.13-5.16C133.66,186.18,125.12,170.14,131.46,155.35Z"/><path class="cls-3" d="M132.26,182.22c3.4,7.68,5.89,13.3,11.54,19.75A52.56,52.56,0,0,0,163,216.55a49.42,49.42,0,0,0,20.06,4s10.91-.15,19.6-5.9c1.53-1,2.93-2.24,2.85-3.64s-1.93-2.6-2.71-3c-6.34-3.52-15.64,0-23.81-2.15-10-2.59-15.34-12.77-16.18-14.36-5.2-9.86-.19-14.89-5.67-22.84-3.86-5.58-11.77-11-19.07-8.92a13.4,13.4,0,0,0-8.88,8.54C128.53,170.41,128.34,173.36,132.26,182.22Z"/><path d="M16,121.54c-.72-1.2-2-1.52-2.86-.74-1.42,1.26-1.52,5.15-.24,6.66a1.69,1.69,0,0,0,2.51.19C16.67,126.48,17,123.29,16,121.54Z"/><path class="cls-3" d="M17,121.56a1.84,1.84,0,0,0-2.82-.72c-1.41,1.22-1.5,5-.24,6.46a1.67,1.67,0,0,0,2.47.18C17.66,126.35,18,123.26,17,121.56Z"/><path d="M17.64,133a1.85,1.85,0,0,0-3,.14c-1,1.63,0,5.38,1.67,6.45a1.68,1.68,0,0,0,2.45-.56C19.71,137.49,19.15,134.33,17.64,133Z"/><path class="cls-3" d="M18.61,132.64a1.84,1.84,0,0,0-2.91.13c-1,1.57,0,5.21,1.64,6.25a1.67,1.67,0,0,0,2.42-.55C20.65,137,20.1,134,18.61,132.64Z"/><path d="M21.72,145.89a1.86,1.86,0,0,0-2.83.85c-.6,1.82,1.27,5.22,3.12,5.86a1.7,1.7,0,0,0,2.25-1.14C24.79,149.79,23.51,146.85,21.72,145.89Z"/><path class="cls-3" d="M22.64,145.17a1.84,1.84,0,0,0-2.8.82c-.58,1.76,1.26,5.06,3.09,5.68a1.67,1.67,0,0,0,2.22-1.11C25.67,149,24.4,146.1,22.64,145.17Z"/><path d="M18.35,176.58c-1.32-.43-2.49.16-2.64,1.32-.25,1.88,2.23,4.89,4.18,5.19a1.67,1.67,0,0,0,2-1.5C22.12,179.87,20.3,177.21,18.35,176.58Z"/><path class="cls-3" d="M19.12,176a1.85,1.85,0,0,0-2.61,1.31c-.26,1.84,2.14,4.76,4,5a1.68,1.68,0,0,0,2-1.49C22.77,179.13,21,176.55,19.12,176Z"/><path d="M27.09,184.14c-1.39,0-2.33.87-2.14,2,.3,1.89,3.53,4.06,5.48,3.79a1.68,1.68,0,0,0,1.48-2C31.62,186.21,29.13,184.18,27.09,184.14Z"/><path class="cls-3" d="M27.6,183.25c-1.36,0-2.29.88-2.11,2,.28,1.84,3.43,3.93,5.34,3.65a1.68,1.68,0,0,0,1.47-2C32,185.24,29.6,183.28,27.6,183.25Z"/><path d="M38.64,191.24a1.85,1.85,0,0,0-1.59,2.49c.74,1.77,4.38,3.12,6.2,2.39a1.7,1.7,0,0,0,1-2.34C43.51,192.18,40.61,190.79,38.64,191.24Z"/><path class="cls-3" d="M38.85,190.09a1.85,1.85,0,0,0-1.57,2.45c.71,1.72,4.26,3,6,2.28a1.67,1.67,0,0,0,1-2.29C43.62,191,40.8,189.64,38.85,190.09Z"/><path d="M239.51,124.32c.72-1.2,2-1.52,2.86-.74,1.42,1.26,1.52,5.15.24,6.66a1.68,1.68,0,0,1-2.5.19C238.82,129.26,238.45,126.07,239.51,124.32Z"/><path class="cls-3" d="M238.52,124.34a1.85,1.85,0,0,1,2.83-.72c1.4,1.22,1.49,5,.23,6.46a1.67,1.67,0,0,1-2.47.18C237.84,129.13,237.47,126,238.52,124.34Z"/><path d="M237.85,135.74c1-.93,2.34-.86,3,.14,1,1.63,0,5.38-1.67,6.45a1.68,1.68,0,0,1-2.45-.56C235.78,140.27,236.34,137.11,237.85,135.74Z"/><path class="cls-3" d="M236.88,135.41a1.85,1.85,0,0,1,2.92.14c1,1.57,0,5.21-1.65,6.25a1.68,1.68,0,0,1-2.42-.55C234.84,139.81,235.39,136.74,236.88,135.41Z"/><path d="M233.77,148.67a1.87,1.87,0,0,1,2.84.85c.59,1.82-1.28,5.22-3.13,5.86a1.7,1.7,0,0,1-2.25-1.14C230.7,152.57,232,149.63,233.77,148.67Z"/><path class="cls-3" d="M232.86,148a1.84,1.84,0,0,1,2.79.82c.59,1.76-1.26,5.06-3.08,5.68a1.67,1.67,0,0,1-2.22-1.11C229.82,151.73,231.09,148.88,232.86,148Z"/><path d="M237.3,175.46c1.31-.51,2.5,0,2.72,1.16.36,1.86-1.94,5-3.87,5.42a1.67,1.67,0,0,1-2.1-1.38C233.74,179,235.39,176.2,237.3,175.46Z"/><path class="cls-3" d="M236.51,174.87c1.27-.48,2.45,0,2.67,1.15.37,1.83-1.86,4.88-3.75,5.27a1.68,1.68,0,0,1-2.07-1.37C233,178.25,234.64,175.58,236.51,174.87Z"/><path d="M229,183.5c1.38-.11,2.38.74,2.25,1.91-.2,1.9-3.3,4.25-5.25,4.09a1.68,1.68,0,0,1-1.6-1.94C224.61,185.83,227,183.66,229,183.5Z"/><path class="cls-3" d="M228.45,182.65c1.36-.09,2.34.74,2.23,1.88-.18,1.85-3.2,4.12-5.12,3.95a1.68,1.68,0,0,1-1.59-1.91C224.15,184.88,226.46,182.78,228.45,182.65Z"/><path d="M217.9,191.25c1.36.23,2.12,1.29,1.73,2.4-.65,1.81-4.2,3.36-6.06,2.74a1.69,1.69,0,0,1-1.08-2.28C213.09,192.47,215.9,190.92,217.9,191.25Z"/><path class="cls-3" d="M217.61,190.12c1.34.23,2.1,1.28,1.72,2.36-.62,1.75-4.09,3.24-5.91,2.61a1.67,1.67,0,0,1-1.09-2.23C212.91,191.26,215.65,189.78,217.61,190.12Z"/><path d="M120,189.33c1.15-.79,2.43-.57,2.91.5.78,1.73-.73,5.32-2.51,6.17a1.67,1.67,0,0,1-2.36-.85C117.29,193.56,118.26,190.49,120,189.33Z"/><path class="cls-3" d="M119,188.94a1.85,1.85,0,0,1,2.87.5c.78,1.69-.69,5.18-2.43,6a1.68,1.68,0,0,1-2.33-.85C116.45,193,117.39,190.06,119,188.94Z"/><path d="M113.75,199.07c1.33-.42,2.49.17,2.64,1.34.25,1.89-2.22,4.9-4.16,5.2a1.69,1.69,0,0,1-2-1.52C110,202.36,111.81,199.7,113.75,199.07Z"/><path class="cls-3" d="M113,198.38a1.85,1.85,0,0,1,2.61,1.31c.25,1.84-2.15,4.75-4.07,5a1.67,1.67,0,0,1-2-1.49C109.34,201.55,111.1,199,113,198.38Z"/><path d="M104.74,209.19c1.38-.09,2.36.77,2.23,1.94-.2,1.9-3.3,4.24-5.25,4.06a1.68,1.68,0,0,1-1.58-2C100.34,211.49,102.71,209.34,104.74,209.19Z"/><path class="cls-3" d="M104.2,208.16c1.35-.09,2.33.75,2.21,1.89-.19,1.85-3.22,4.11-5.14,3.92a1.67,1.67,0,0,1-1.57-1.92C99.88,210.37,102.21,208.28,104.2,208.16Z"/><path d="M92.54,216.52c1.38.22,2.15,1.27,1.76,2.38-.64,1.78-4.21,3.33-6.09,2.72a1.68,1.68,0,0,1-1.11-2.26C87.69,217.73,90.52,216.19,92.54,216.52Z"/><path class="cls-3" d="M92.15,215.61c1.34.23,2.1,1.27,1.72,2.35-.6,1.76-4.07,3.26-5.9,2.64a1.67,1.67,0,0,1-1.09-2.22C87.45,216.77,90.18,215.28,92.15,215.61Z"/><path d="M81.32,219.27c1.25.61,1.68,1.84,1,2.79-1.13,1.53-5,2-6.6.87a1.67,1.67,0,0,1-.4-2.48C76.35,219.05,79.49,218.38,81.32,219.27Z"/><path class="cls-3" d="M81.27,218.25a1.85,1.85,0,0,1,1,2.75c-1.1,1.5-4.85,1.94-6.42.82a1.68,1.68,0,0,1-.4-2.45C76.43,218,79.48,217.36,81.27,218.25Z"/><path d="M67.81,220.34a1.86,1.86,0,0,1,.28,2.94c-1.47,1.23-5.32.78-6.61-.7a1.69,1.69,0,0,1,.22-2.51C63,219,66.25,219,67.81,220.34Z"/><path class="cls-3" d="M68.14,219.22a1.85,1.85,0,0,1,.29,2.9c-1.42,1.2-5.17.73-6.43-.73a1.69,1.69,0,0,1,.19-2.48C63.5,217.82,66.61,217.93,68.14,219.22Z"/><path d="M134.55,187.9c-1.15-.79-2.44-.57-2.92.5-.78,1.73.73,5.32,2.51,6.17a1.67,1.67,0,0,0,2.36-.85C137.2,192.13,136.23,189.06,134.55,187.9Z"/><path class="cls-3" d="M135.46,187.51c-1.13-.76-2.4-.54-2.88.5-.77,1.69.69,5.18,2.44,6a1.67,1.67,0,0,0,2.33-.84C138,191.61,137.11,188.63,135.46,187.51Z"/><path d="M140.74,197.64A1.86,1.86,0,0,0,138.1,199c-.24,1.89,2.22,4.9,4.17,5.2a1.68,1.68,0,0,0,2-1.52C144.48,200.93,142.68,198.27,140.74,197.64Z"/><path class="cls-3" d="M141.49,197a1.84,1.84,0,0,0-2.6,1.31c-.26,1.84,2.15,4.75,4.06,5a1.67,1.67,0,0,0,2-1.49C145.15,200.12,143.39,197.54,141.49,197Z"/><path d="M149.76,207.76c-1.38-.09-2.37.77-2.24,1.94.21,1.9,3.3,4.24,5.25,4.06a1.68,1.68,0,0,0,1.59-2C154.15,210.06,151.78,207.91,149.76,207.76Z"/><path class="cls-3" d="M150.3,206.73c-1.36-.09-2.34.75-2.22,1.89.19,1.85,3.22,4.11,5.15,3.92a1.68,1.68,0,0,0,1.57-1.92C154.61,208.94,152.29,206.85,150.3,206.73Z"/><path d="M193,218.82c1.33.42,1.94,1.58,1.39,2.61-.89,1.68-4.65,2.69-6.42,1.81a1.69,1.69,0,0,1-.77-2.4C188,219.32,191,218.21,193,218.82Z"/><path class="cls-3" d="M192.7,217.87c1.3.42,1.9,1.56,1.37,2.57-.86,1.65-4.51,2.64-6.22,1.76a1.67,1.67,0,0,1-.76-2.36C187.88,218.33,190.81,217.25,192.7,217.87Z"/><path d="M181.46,219.91a1.86,1.86,0,0,1,.57,2.9c-1.35,1.36-5.24,1.25-6.67-.1a1.68,1.68,0,0,1,0-2.51C176.57,219,179.78,218.76,181.46,219.91Z"/><path class="cls-3" d="M181.55,218.89a1.84,1.84,0,0,1,.56,2.86c-1.3,1.33-5.07,1.22-6.46-.12a1.67,1.67,0,0,1,0-2.48C176.8,217.94,179.91,217.75,181.55,218.89Z"/><path d="M167.94,219a1.85,1.85,0,0,1-.16,2.95c-1.63,1-5.37,0-6.43-1.66a1.68,1.68,0,0,1,.58-2.45C163.42,216.93,166.58,217.48,167.94,219Z"/><path class="cls-3" d="M168.42,217.94a1.85,1.85,0,0,1-.13,2.91c-1.58,1-5.22,0-6.25-1.66a1.68,1.68,0,0,1,.55-2.42C164,215.88,167.1,216.44,168.42,217.94Z"/><ellipse class="cls-2" cx="128" cy="106.39" rx="72.47" ry="69.13" transform="translate(-2.4 2.96) rotate(-1.31)"/><path class="cls-4" d="M74,84.55c-.36.36-6.53,6.54-10,4.5-2.73-1.62-2.39-7.6-.47-11.47.47-.93,3.28-6.6,8-6.08a7.18,7.18,0,0,1,6,6.27C77.82,80.68,75.79,82.75,74,84.55Z"/><path class="cls-4" d="M142.54,44.52c.89-2,3.84-2.48,5.72-2.3,4,.4,7.92,4.43,7.12,7.14-.7,2.39-5.07,3.81-8.36,2.53C143.93,50.69,141.43,47,142.54,44.52Z"/><path class="cls-4" d="M162.57,61.6c-.21-1.59,4.2-4.62,8.6-4.1,5,.59,9.79,5.75,8.72,9.11-1,3.09-6.94,4.75-9.34,2.91-1.22-.94-.65-2.12-2.06-4C166.2,62.49,162.74,63,162.57,61.6Z"/><path class="cls-4" d="M82.92,56.51c-.23,2.64,3.6,6.17,7.36,5.84,5.39-.48,7.74-8.61,6-10.77C94.05,48.94,83.29,52.31,82.92,56.51Z"/><path class="cls-4" d="M178.62,78.56c1,5.07,8.4,8,11.67,5.56,2.53-1.88,2.71-7,.41-10.3-1.47-2.08-4.66-4.43-7.92-3.31S178,75.64,178.62,78.56Z"/><path class="cls-4" d="M73.28,62.16c.71-1.56,3-2,4.52-1.81,3.19.31,6.26,3.5,5.63,5.64-.56,1.89-4,3-6.61,2C74.38,67,72.41,64.1,73.28,62.16Z"/><path class="cls-4" d="M78,72.5c-.1,1.22,1.66,2.84,3.39,2.69,2.48-.22,3.56-4,2.74-5C83.17,69,78.21,70.57,78,72.5Z"/><path class="cls-4" d="M165.84,50.53c-1,.72-1,3.14.27,4.34,1.81,1.73,5.29.05,5.48-1.23C171.82,52.07,167.38,49.37,165.84,50.53Z"/><path class="cls-4" d="M175.22,72.49c-.06.66.89,1.53,1.82,1.45a2.07,2.07,0,0,0,1.47-2.66C178,70.62,175.31,71.46,175.22,72.49Z"/><path class="cls-4" d="M85.24,63.17c.4-.36,2.08.32,2.76,1.67.79,1.53.26,3.87-.88,4.2a2.45,2.45,0,0,1-2.58-2.1c0-.52.47-.58.72-1.34C85.68,64.37,84.89,63.48,85.24,63.17Z"/><path class="cls-4" d="M160.73,58.74c-.24,0-4.38.37-5-1.44-.51-1.45,1.44-3.54,3.32-4.36.45-.2,3.21-1.41,4.77.24a3.47,3.47,0,0,1,.31,4.17C163.3,58.5,161.93,58.63,160.73,58.74Z"/><path class="cls-4" d="M94.43,47c-.11-.82,2.16-2.37,4.42-2.11,2.57.31,5,3,4.48,4.69s-3.57,2.44-4.8,1.49C97.9,50.58,98.2,50,97.47,49,96.29,47.45,94.52,47.69,94.43,47Z"/><path class="cls-4" d="M130.59,42.17c.26-1.65-2-4.05-4.38-4-3.41.05-5.26,5.06-4.23,6.51C123.24,46.43,130.17,44.8,130.59,42.17Z"/><path class="cls-4" d="M138.14,39.28c1.65.4,2.49,2.62,2.64,4.13.31,3.21-2.19,6.88-4.39,6.67-1.94-.18-3.7-3.38-3.22-6.16C133.62,41.32,136.09,38.79,138.14,39.28Z"/><path class="cls-4" d="M129,46c-1.2.13-2.43,2.2-2,3.89.69,2.41,4.54,2.75,5.35,1.74C133.4,50.41,130.93,45.8,129,46Z"/><path class="cls-4" d="M139.48,51.32c.43.33.09,2.12-1.08,3.07-1.34,1.07-3.71,1-4.26-.06a2.48,2.48,0,0,1,1.54-3c.52-.07.66.35,1.45.45C138.4,52,139.11,51,139.48,51.32Z"/><path class="cls-4" d="M122.91,47.64c0,.52-1.46,1.4-2.88,1.12-1.6-.3-3-2.09-2.61-3.15a2.32,2.32,0,0,1,3.09-.72c.37.33.16.7.58,1.34C121.76,47.26,122.89,47.2,122.91,47.64Z"/><path class="cls-4" d="M103.37,61.06c3.66.79,7.74-3.38,7.08-6.29-.51-2.25-3.87-3.87-6.72-3.25-1.81.39-4.29,1.86-4.49,4.4S101.26,60.62,103.37,61.06Z"/><path class="cls-4" d="M104.15,45c-.15,1.78,2.43,4.16,5,3.93,3.64-.32,5.22-5.8,4-7.25C111.65,39.87,104.4,42.14,104.15,45Z"/><path class="cls-4" d="M109.87,50.79c-.06.65.89,1.52,1.82,1.44a2.06,2.06,0,0,0,1.47-2.66C112.62,48.92,110,49.75,109.87,50.79Z"/><path class="cls-4" d="M115.78,41.56c-.06.65.89,1.52,1.82,1.44a2.07,2.07,0,0,0,1.47-2.66C118.53,39.68,115.87,40.52,115.78,41.56Z"/><path class="cls-4" d="M96.2,61.11a1.72,1.72,0,0,0,2.32,0,2.08,2.08,0,0,0-.4-3C97.3,58,95.66,60.22,96.2,61.11Z"/><path class="cls-4" d="M118.61,54.76c-.13.13-2.46,2.46-3.75,1.69-1-.61-.9-2.86-.18-4.31.17-.36,1.23-2.49,3-2.29A2.7,2.7,0,0,1,120,52.21,3.37,3.37,0,0,1,118.61,54.76Z"/><path class="cls-4" d="M143.31,56.69c-.11-.17-1.9-3.1-1-4.19.69-.87,2.71-.15,3.93,1,.3.26,2.09,1.88,1.67,3.59a2.16,2.16,0,0,1-2.44,1.65C144.44,58.51,143.83,57.54,143.31,56.69Z"/><path class="cls-4" d="M150.1,55.67c0,.65.89,1.52,1.82,1.44a2.06,2.06,0,0,0,1.47-2.66C152.86,53.79,150.2,54.63,150.1,55.67Z"/><path class="cls-4" d="M68.51,68.59c-.06.65.89,1.52,1.82,1.44a2.07,2.07,0,0,0,1.47-2.66C71.26,66.72,68.6,67.55,68.51,68.59Z"/><path class="cls-4" d="M183.83,66.51a2.93,2.93,0,0,0,2,2.23c1.24.11,1.41-2.4.89-3.18C186.09,64.6,183.72,65.17,183.83,66.51Z"/><path class="cls-4" d="M157.15,49.58a2.93,2.93,0,0,0,2,2.24c1.24.11,1.41-2.4.89-3.18C159.41,47.68,157,48.25,157.15,49.58Z"/><path class="cls-5" d="M74.81,85.82c-.36.36-6.53,6.54-10,4.5-2.74-1.61-2.39-7.6-.47-11.47.46-.93,3.27-6.6,8-6.08a7.18,7.18,0,0,1,6,6.27C78.61,82,76.58,84,74.81,85.82Z"/><path class="cls-5" d="M143.33,45.79c.89-2,3.84-2.48,5.72-2.3,4,.4,7.93,4.43,7.12,7.15-.7,2.39-5.07,3.81-8.36,2.53C144.72,52,142.22,48.24,143.33,45.79Z"/><path class="cls-5" d="M163.36,62.87c-.21-1.59,4.2-4.62,8.6-4.1,5,.59,9.79,5.75,8.72,9.11-1,3.09-6.94,4.75-9.34,2.91-1.22-.94-.64-2.12-2.06-4C167,63.76,163.54,64.23,163.36,62.87Z"/><path class="cls-5" d="M83.71,57.78c-.23,2.64,3.6,6.17,7.36,5.84,5.39-.48,7.74-8.61,6-10.77C94.84,50.21,84.08,53.58,83.71,57.78Z"/><path class="cls-5" d="M179.41,79.83c1,5.07,8.41,8,11.67,5.56,2.53-1.87,2.71-7,.41-10.3-1.47-2.08-4.66-4.43-7.92-3.31S178.83,76.91,179.41,79.83Z"/><path class="cls-5" d="M74.08,63.43c.7-1.56,3-2,4.52-1.81,3.18.31,6.25,3.5,5.62,5.64-.56,1.89-4,3-6.61,2C75.18,68.31,73.2,65.37,74.08,63.43Z"/><path class="cls-5" d="M78.83,73.77c-.1,1.22,1.66,2.84,3.39,2.69,2.48-.22,3.56-4,2.74-5C84,70.29,79,71.84,78.83,73.77Z"/><path class="cls-5" d="M166.63,51.8c-1,.72-1,3.14.27,4.34,1.81,1.73,5.29,0,5.48-1.23C172.61,53.34,168.17,50.64,166.63,51.8Z"/><path class="cls-5" d="M176,73.76c0,.66.89,1.53,1.82,1.45a2.07,2.07,0,0,0,1.47-2.66C178.76,71.89,176.1,72.73,176,73.76Z"/><path class="cls-5" d="M86,64.44c.4-.36,2.08.32,2.77,1.67.78,1.53.25,3.87-.89,4.2s-2.63-1.07-2.58-2.1c0-.52.47-.58.73-1.34C86.47,65.64,85.68,64.75,86,64.44Z"/><path class="cls-5" d="M161.52,60c-.24,0-4.38.37-5-1.44-.51-1.45,1.44-3.54,3.32-4.36.45-.2,3.21-1.41,4.77.24a3.49,3.49,0,0,1,.31,4.18C164.1,59.77,162.72,59.9,161.52,60Z"/><path class="cls-5" d="M95.22,48.26c-.11-.82,2.16-2.37,4.42-2.11,2.57.31,5,3,4.48,4.69-.51,1.58-3.57,2.44-4.8,1.49-.63-.48-.33-1.09-1.06-2C97.09,48.72,95.31,49,95.22,48.26Z"/><path class="cls-5" d="M131.38,43.44c.26-1.65-2-4-4.38-4-3.41,0-5.25,5.06-4.23,6.51C124,47.7,131,46.07,131.38,43.44Z"/><path class="cls-5" d="M138.93,40.55c1.65.4,2.49,2.63,2.64,4.13.31,3.21-2.19,6.88-4.39,6.67-1.94-.18-3.7-3.38-3.22-6.15C134.41,42.59,136.88,40.06,138.93,40.55Z"/><path class="cls-5" d="M129.81,47.28c-1.19.14-2.43,2.2-2,3.89.7,2.41,4.54,2.75,5.35,1.74C134.19,51.68,131.72,47.07,129.81,47.28Z"/><path class="cls-5" d="M140.27,52.59c.43.33.09,2.13-1.08,3.07-1.34,1.07-3.71,1-4.25-.06a2.47,2.47,0,0,1,1.53-3c.52-.07.66.35,1.45.45C139.19,53.26,139.9,52.31,140.27,52.59Z"/><path class="cls-5" d="M123.7,48.91c0,.52-1.46,1.4-2.87,1.12-1.61-.3-3-2.09-2.62-3.15a2.33,2.33,0,0,1,3.09-.72c.38.33.16.7.58,1.34C122.55,48.54,123.68,48.47,123.7,48.91Z"/><path class="cls-5" d="M104.16,62.34c3.66.78,7.74-3.38,7.08-6.3-.51-2.25-3.87-3.87-6.71-3.25-1.81.39-4.3,1.86-4.5,4.4S102.05,61.89,104.16,62.34Z"/><path class="cls-5" d="M104.94,46.24c-.15,1.78,2.43,4.16,5,3.93,3.63-.32,5.21-5.8,4-7.25C112.44,41.14,105.19,43.41,104.94,46.24Z"/><path class="cls-5" d="M110.66,52.06a1.72,1.72,0,0,0,1.82,1.44A2.06,2.06,0,0,0,114,50.84C113.41,50.19,110.75,51,110.66,52.06Z"/><path class="cls-5" d="M116.57,42.83c-.06.65.89,1.52,1.82,1.44a2.07,2.07,0,0,0,1.47-2.66C119.32,41,116.66,41.79,116.57,42.83Z"/><path class="cls-5" d="M97,62.38a1.72,1.72,0,0,0,2.32,0,2.07,2.07,0,0,0-.4-3C98.09,59.22,96.45,61.49,97,62.38Z"/><path class="cls-5" d="M119.4,56c-.13.14-2.46,2.46-3.75,1.69-1-.61-.9-2.86-.18-4.31.18-.36,1.23-2.49,3-2.29a2.7,2.7,0,0,1,2.27,2.36A3.37,3.37,0,0,1,119.4,56Z"/><path class="cls-5" d="M144.1,58c-.11-.17-1.9-3.1-1-4.19.69-.87,2.71-.15,3.93,1,.3.26,2.09,1.88,1.67,3.6A2.18,2.18,0,0,1,146.23,60C145.23,59.78,144.62,58.81,144.1,58Z"/><path class="cls-5" d="M150.9,56.94c-.06.65.89,1.52,1.82,1.44a2.07,2.07,0,0,0,1.47-2.66C153.65,55.06,151,55.9,150.9,56.94Z"/><path class="cls-5" d="M69.3,69.86c0,.65.89,1.52,1.82,1.44a2.07,2.07,0,0,0,1.47-2.66C72.05,68,69.39,68.82,69.3,69.86Z"/><path class="cls-5" d="M184.62,67.78a2.92,2.92,0,0,0,2,2.23c1.24.11,1.41-2.4.89-3.18C186.88,65.87,184.51,66.44,184.62,67.78Z"/><path class="cls-5" d="M158,50.86a2.9,2.9,0,0,0,2,2.23c1.24.11,1.41-2.4.89-3.18C160.2,49,157.83,49.52,158,50.86Z"/><path class="cls-4" d="M106.66,136.92c-.19,1.6,2.06,3.81,4.35,3.69,3.28-.19,4.86-5.08,3.82-6.42C113.55,132.54,107,134.39,106.66,136.92Z"/><path class="cls-4" d="M113.82,131.37c0-.5,1.35-1.4,2.72-1.19,1.55.23,3,1.88,2.63,2.92a2.24,2.24,0,0,1-2.94.82c-.37-.31-.18-.67-.6-1.27C114.94,131.68,113.86,131.8,113.82,131.37Z"/><path class="cls-4" d="M136.7,134.94c.57-.84,0-2.73-1.38-3.33-1.89-.85-4.19,1.43-4,2.49C131.56,135.39,135.79,136.28,136.7,134.94Z"/><path class="cls-4" d="M141.59,135.3c.81.64.7,2.08.39,2.94-.65,1.85-3,3.22-4.13,2.54s-1.16-2.81-.19-4.21S140.59,134.5,141.59,135.3Z"/><path class="cls-4" d="M134.85,136.65c-.69-.23-1.91.58-2.07,1.63-.24,1.51,1.78,2.69,2.49,2.34S136,137,134.85,136.65Z"/><path class="cls-4" d="M131.07,136c-.12.29-1.16.39-1.87-.13s-1.13-1.93-.62-2.4a1.41,1.41,0,0,1,1.88.39c.12.28-.09.43,0,.89C130.53,135.47,131.17,135.72,131.07,136Z"/><path class="cls-4" d="M119,140.08c2.2.54,4.75-1.91,4.41-3.69-.27-1.37-2.27-2.41-4-2.1a3.3,3.3,0,0,0-2.81,2.59A3.18,3.18,0,0,0,119,140.08Z"/><path class="cls-4" d="M119.76,130.33c-.13,1.07,1.39,2.57,2.93,2.48,2.21-.13,3.27-3.42,2.57-4.32C124.4,127.38,120,128.62,119.76,130.33Z"/><path class="cls-4" d="M123.11,134c0,.39.51.94,1.08.91a1.26,1.26,0,0,0,.94-1.59C124.82,132.89,123.19,133.34,123.11,134Z"/><path class="cls-4" d="M126.6,130.66a1.06,1.06,0,0,0,.63,1.26,1.26,1.26,0,0,0,1.5-1.08C128.6,130.34,126.92,130.11,126.6,130.66Z"/><path class="cls-4" d="M114.63,140a1,1,0,0,0,1.4.07,1.25,1.25,0,0,0-.18-1.83C115.35,138.07,114.32,139.42,114.63,140Z"/><path class="cls-4" d="M126.88,138.78c-.11,0-2,.72-2.5,0-.41-.6.24-1.81,1-2.42.19-.15,1.32-1.05,2.24-.49a1.65,1.65,0,0,1,.64,1.88A2,2,0,0,1,126.88,138.78Z"/><path class="cls-5" d="M107.11,137.71c-.19,1.6,2.07,3.81,4.36,3.68,3.28-.18,4.86-5.07,3.81-6.42C114,133.33,107.42,135.17,107.11,137.71Z"/><path class="cls-5" d="M114.27,132.16c0-.5,1.36-1.4,2.73-1.2,1.55.24,3,1.89,2.62,2.93a2.22,2.22,0,0,1-2.93.81c-.38-.3-.19-.66-.61-1.26C115.4,132.47,114.32,132.58,114.27,132.16Z"/><path class="cls-5" d="M136.8,135.85c.57-.84-.05-2.74-1.37-3.34-1.89-.85-4.19,1.44-4,2.49C131.67,136.3,135.9,137.18,136.8,135.85Z"/><path class="cls-5" d="M135,137.55c-.7-.23-1.91.58-2.07,1.64-.24,1.5,1.78,2.68,2.48,2.33C136.23,141.1,136.06,137.93,135,137.55Z"/><path class="cls-5" d="M131.18,136.88c-.12.29-1.17.39-1.87-.12s-1.13-1.94-.63-2.41a1.41,1.41,0,0,1,1.89.4c.12.28-.09.42,0,.88C130.64,136.37,131.28,136.63,131.18,136.88Z"/><path class="cls-5" d="M119.43,140.86c2.21.55,4.76-1.9,4.42-3.68-.27-1.38-2.28-2.42-4-2.1a3.31,3.31,0,0,0-2.81,2.58A3.18,3.18,0,0,0,119.43,140.86Z"/><path class="cls-5" d="M120.21,131.12c-.13,1.07,1.39,2.56,2.94,2.48,2.21-.13,3.27-3.42,2.57-4.33C124.86,128.16,120.41,129.4,120.21,131.12Z"/><path class="cls-5" d="M123.57,134.75c0,.4.51.95,1.08.91a1.24,1.24,0,0,0,.94-1.58C125.27,133.67,123.64,134.13,123.57,134.75Z"/><path class="cls-5" d="M126.71,131.56a1,1,0,0,0,.63,1.26,1.25,1.25,0,0,0,1.49-1.08C128.71,131.24,127,131,126.71,131.56Z"/><path class="cls-5" d="M115.08,140.75a1,1,0,0,0,1.41.08,1.26,1.26,0,0,0-.19-1.84C115.81,138.86,114.77,140.2,115.08,140.75Z"/><path class="cls-5" d="M127,139.68c-.1,0-2,.72-2.49,0-.41-.6.24-1.8,1-2.42.18-.15,1.31-1,2.23-.49a1.65,1.65,0,0,1,.65,1.89A2.05,2.05,0,0,1,127,139.68Z"/><path class="cls-4" d="M55.76,131.6c.7-1.45-.72-4.28-2.93-4.89-3.16-.89-6.23,3.23-5.68,4.84C47.82,133.52,54.66,133.9,55.76,131.6Z"/><path class="cls-4" d="M47.19,134.54c-.11.49-1.73.89-3,.25-1.39-.72-2.22-2.75-1.54-3.62a2.24,2.24,0,0,1,3,.18c.26.41,0,.69.17,1.39C46.23,133.88,47.29,134.12,47.19,134.54Z"/><path class="cls-4" d="M25.92,120.12c-1,.19-1.9,2-1.39,3.33.73,1.94,4,2,4.59,1.08C29.86,123.45,27.51,119.82,25.92,120.12Z"/><path class="cls-4" d="M22.72,116.41c-.12-1,1-2,1.81-2.36,1.77-.84,4.38-.16,4.71,1.14.3,1.14-1.17,2.81-2.85,3.1S22.86,117.68,22.72,116.41Z"/><path class="cls-4" d="M28.44,120.23a2,2,0,0,0,2.62.32c1.23-.9.64-3.16-.11-3.42S27.92,119.18,28.44,120.23Z"/><path class="cls-4" d="M30.62,123.38c.29-.12,1.1.55,1.24,1.42s-.57,2.16-1.27,2.14a1.42,1.42,0,0,1-1.05-1.62c.12-.28.37-.24.65-.6C30.65,124.12,30.37,123.49,30.62,123.38Z"/><path class="cls-4" d="M45.12,124.63c-1.91-1.22-5.11.27-5.36,2.06-.2,1.39,1.37,3,3.12,3.29a3.31,3.31,0,0,0,3.49-1.54A3.18,3.18,0,0,0,45.12,124.63Z"/><path class="cls-4" d="M41.24,133.61c.47-1-.49-2.88-2-3.3-2.13-.59-4.2,2.18-3.83,3.26C35.89,134.9,40.49,135.16,41.24,133.61Z"/><path class="cls-4" d="M39.24,129.08a1,1,0,0,0-.73-1.21c-.78-.22-1.54.8-1.4,1.2S39,129.65,39.24,129.08Z"/><path class="cls-4" d="M28.62,128.71a1.06,1.06,0,0,0,.45-1.34,1.27,1.27,0,0,0-1.83-.29C27,127.52,28,128.87,28.62,128.71Z"/><path class="cls-4" d="M49.2,126.14a1,1,0,0,0-1.3-.52,1.26,1.26,0,0,0-.42,1.8C47.9,127.7,49.32,126.76,49.2,126.14Z"/><path class="cls-4" d="M35.12,125c.11,0,1.92-.87,2.5-.15.45.56-.11,1.81-.83,2.49-.17.16-1.23,1.14-2.19.65a1.64,1.64,0,0,1-.79-1.82A2.11,2.11,0,0,1,35.12,125Z"/><path class="cls-5" d="M55.59,130.71c.69-1.45-.73-4.28-2.94-4.89-3.16-.89-6.23,3.23-5.68,4.84C47.65,132.62,54.48,133,55.59,130.71Z"/><path class="cls-5" d="M47,133.65c-.11.49-1.73.88-3,.25-1.39-.72-2.22-2.75-1.54-3.62a2.25,2.25,0,0,1,3.05.18c.25.41-.05.69.16,1.39C46.05,133,47.11,133.23,47,133.65Z"/><path class="cls-5" d="M26.48,119.41c-1,.19-1.9,2-1.39,3.33.73,1.94,4,2,4.59,1.07C30.43,122.73,28.07,119.11,26.48,119.41Z"/><path class="cls-5" d="M29,119.52a2,2,0,0,0,2.62.31c1.23-.89.64-3.16-.1-3.41C30.61,116.11,28.49,118.47,29,119.52Z"/><path class="cls-5" d="M31.18,122.67c.29-.12,1.1.55,1.24,1.41s-.57,2.17-1.27,2.14a1.41,1.41,0,0,1-1-1.61c.11-.28.36-.24.64-.61C31.21,123.41,30.94,122.78,31.18,122.67Z"/><path class="cls-5" d="M45,123.74c-1.92-1.22-5.12.27-5.37,2.06-.19,1.39,1.37,3,3.12,3.29a3.31,3.31,0,0,0,3.49-1.54A3.17,3.17,0,0,0,45,123.74Z"/><path class="cls-5" d="M41.06,132.72c.47-1-.49-2.88-2-3.3-2.13-.6-4.2,2.18-3.83,3.26C35.71,134,40.32,134.27,41.06,132.72Z"/><path class="cls-5" d="M39.06,128.19a1,1,0,0,0-.73-1.21c-.78-.22-1.54.8-1.4,1.19S38.78,128.76,39.06,128.19Z"/><path class="cls-5" d="M29.18,128a1.06,1.06,0,0,0,.45-1.34,1.25,1.25,0,0,0-1.82-.29C27.54,126.81,28.57,128.16,29.18,128Z"/><path class="cls-5" d="M49,125.25a1,1,0,0,0-1.3-.52,1.27,1.27,0,0,0-.43,1.8C47.73,126.81,49.14,125.87,49,125.25Z"/><path class="cls-5" d="M36.13,123.66c.11,0,1.91.9,1.74,1.8-.13.71-1.45,1.1-2.43,1-.23,0-1.67-.2-1.92-1.24a1.66,1.66,0,0,1,.88-1.79A2.06,2.06,0,0,1,36.13,123.66Z"/><path class="cls-4" d="M201.77,132c-.73-1.43.63-4.29,2.82-4.95,3.14-1,6.31,3.08,5.79,4.71C209.75,133.72,202.93,134.26,201.77,132Z"/><path class="cls-4" d="M210.41,134.73c.12.48,1.75.84,3,.18,1.38-.75,2.17-2.8,1.46-3.65a2.23,2.23,0,0,0-3,.25c-.24.41.06.68-.13,1.39C211.35,134.05,210.3,134.31,210.41,134.73Z"/><path class="cls-4" d="M231.34,119.83c1,.17,1.95,1.92,1.47,3.29-.69,2-3.93,2-4.56,1.18C227.48,123.24,229.75,119.57,231.34,119.83Z"/><path class="cls-4" d="M234.46,116c.09-1-1-1.94-1.86-2.31-1.79-.8-4.39-.07-4.69,1.24-.27,1.15,1.23,2.78,2.92,3S234.35,117.32,234.46,116Z"/><path class="cls-4" d="M228.83,120a2,2,0,0,1-2.61.38c-1.26-.87-.71-3.14,0-3.41C227.14,116.63,229.32,118.93,228.83,120Z"/><path class="cls-4" d="M226.72,123.2c-.29-.12-1.09.57-1.2,1.44s.62,2.15,1.31,2.11a1.41,1.41,0,0,0,1-1.64c-.12-.28-.37-.23-.66-.59C226.71,123.93,227,123.3,226.72,123.2Z"/><path class="cls-4" d="M212.25,124.78c1.88-1.27,5.12.14,5.41,1.93.23,1.39-1.3,3.06-3,3.36a3.32,3.32,0,0,1-3.53-1.46A3.17,3.17,0,0,1,212.25,124.78Z"/><path class="cls-4" d="M216.34,133.66c-.49-1,.42-2.89,1.9-3.34,2.12-.64,4.25,2.08,3.9,3.17C221.72,134.83,217.12,135.19,216.34,133.66Z"/><path class="cls-4" d="M218.24,129.09a1,1,0,0,1,.7-1.23,1.26,1.26,0,0,1,1.43,1.16C220.21,129.51,218.52,129.65,218.24,129.09Z"/><path class="cls-4" d="M228.85,128.47a1,1,0,0,1-.48-1.32,1.25,1.25,0,0,1,1.81-.34C230.45,127.25,229.46,128.62,228.85,128.47Z"/><path class="cls-4" d="M208.2,126.38a1,1,0,0,1,1.29-.56,1.26,1.26,0,0,1,.47,1.79C209.54,127.91,208.1,127,208.2,126.38Z"/><path class="cls-4" d="M222.26,124.87c-.11-.05-1.94-.83-2.5-.1-.44.57.14,1.81.88,2.47.18.16,1.26,1.12,2.21.61a1.65,1.65,0,0,0,.74-1.85A2,2,0,0,0,222.26,124.87Z"/><path class="cls-5" d="M201.93,131.09c-.73-1.44.62-4.29,2.82-5,3.14-.95,6.31,3.09,5.79,4.71C209.91,132.82,203.09,133.37,201.93,131.09Z"/><path class="cls-5" d="M210.57,133.83c.12.49,1.75.85,3,.19,1.38-.76,2.16-2.81,1.46-3.66a2.25,2.25,0,0,0-3,.25c-.24.42.06.69-.13,1.4C211.51,133.15,210.46,133.42,210.57,133.83Z"/><path class="cls-5" d="M230.76,119.13c1,.17,2,1.92,1.47,3.29-.68,2-3.92,2-4.56,1.18C226.9,122.54,229.17,118.87,230.76,119.13Z"/><path class="cls-5" d="M228.25,119.29a2,2,0,0,1-2.61.38c-1.25-.87-.71-3.14,0-3.41C226.57,115.93,228.74,118.23,228.25,119.29Z"/><path class="cls-5" d="M226.14,122.5c-.29-.12-1.09.57-1.2,1.44s.62,2.15,1.31,2.11a1.41,1.41,0,0,0,1-1.64c-.12-.28-.37-.23-.66-.59C226.13,123.23,226.39,122.6,226.14,122.5Z"/><path class="cls-5" d="M212.41,123.88c1.88-1.27,5.12.15,5.41,1.94.22,1.38-1.3,3.05-3,3.35a3.29,3.29,0,0,1-3.53-1.45A3.17,3.17,0,0,1,212.41,123.88Z"/><path class="cls-5" d="M216.5,132.76c-.49-1,.42-2.89,1.9-3.34,2.11-.64,4.25,2.09,3.9,3.18C221.88,133.93,217.28,134.3,216.5,132.76Z"/><path class="cls-5" d="M218.4,128.19a1,1,0,0,1,.69-1.22,1.25,1.25,0,0,1,1.43,1.16C220.37,128.62,218.68,128.75,218.4,128.19Z"/><path class="cls-5" d="M228.27,127.77a1,1,0,0,1-.48-1.32,1.25,1.25,0,0,1,1.81-.34C229.87,126.55,228.88,127.92,228.27,127.77Z"/><path class="cls-5" d="M208.36,125.49a1,1,0,0,1,1.29-.56,1.26,1.26,0,0,1,.46,1.79C209.7,127,208.26,126.11,208.36,125.49Z"/><path class="cls-5" d="M221.22,123.6c-.11.05-1.89.94-1.7,1.84.15.71,1.47,1.06,2.45.93.23,0,1.67-.23,1.89-1.29a1.63,1.63,0,0,0-.92-1.76A2,2,0,0,0,221.22,123.6Z"/><path class="cls-4" d="M195.39,171.21c-.34-1.57,1.71-4,4-4.05,3.29-.11,5.29,4.62,4.38,6.05C202.64,175,195.91,173.71,195.39,171.21Z"/><path class="cls-4" d="M203,176.11c0,.5,1.48,1.27,2.82.94,1.53-.37,2.82-2.15,2.36-3.15a2.24,2.24,0,0,0-3-.55c-.34.34-.12.68-.49,1.32C204.11,175.69,203,175.68,203,176.11Z"/><path class="cls-4" d="M227.1,167.15c.92.42,1.38,2.36.56,3.56-1.17,1.71-4.32,1-4.71,0C222.48,169.44,225.63,166.48,227.1,167.15Z"/><path class="cls-4" d="M231.09,164.3c.35-1-.49-2.14-1.2-2.72-1.52-1.24-4.22-1.2-4.85,0s.47,3,2,3.7S230.65,165.5,231.09,164.3Z"/><path class="cls-4" d="M224.63,166.65a2,2,0,0,1-2.62-.31c-1-1.16.13-3.22.91-3.29C223.87,163,225.38,165.76,224.63,166.65Z"/><path class="cls-4" d="M221.76,169.2c-.25-.19-1.2.27-1.54,1.08s0,2.23.73,2.38a1.42,1.42,0,0,0,1.4-1.32c0-.31-.3-.32-.49-.75C221.56,169.91,222,169.36,221.76,169.2Z"/><path class="cls-4" d="M207.37,167c2.15-.74,4.91,1.47,4.73,3.28-.14,1.39-2,2.61-3.81,2.45a3.31,3.31,0,0,1-3-2.33A3.19,3.19,0,0,1,207.37,167Z"/><path class="cls-4" d="M209,176.61c-.22-1.06,1.16-2.68,2.7-2.73,2.21-.07,3.57,3.11,2.95,4.08C213.91,179.14,209.38,178.3,209,176.61Z"/><path class="cls-4" d="M212,172.69c-.08-.39.42-1,1-1a1.26,1.26,0,0,1,1.08,1.5C213.83,173.61,212.17,173.3,212,172.69Z"/><path class="cls-4" d="M222.44,174.85a1.07,1.07,0,0,1-.12-1.41,1.26,1.26,0,0,1,1.84.15C224.31,174.08,223,175.15,222.44,174.85Z"/><path class="cls-4" d="M203.05,167.47a1,1,0,0,1,1.39-.2,1.26,1.26,0,0,1,0,1.85C203.94,169.3,202.79,168.05,203.05,167.47Z"/><path class="cls-4" d="M217,169.66c-.09-.08-1.66-1.3-2.38-.75s-.33,1.79.21,2.61c.13.2.92,1.41,2,1.16a1.64,1.64,0,0,0,1.2-1.58A2,2,0,0,0,217,169.66Z"/><path class="cls-5" d="M195.77,170.39c-.33-1.57,1.72-4,4-4,3.28-.11,5.29,4.61,4.37,6C203,174.14,196.3,172.89,195.77,170.39Z"/><path class="cls-5" d="M203.4,175.28c0,.5,1.47,1.27,2.81.95,1.53-.37,2.82-2.15,2.36-3.15a2.24,2.24,0,0,0-3-.55c-.34.34-.12.68-.49,1.31C204.49,174.87,203.4,174.85,203.4,175.28Z"/><path class="cls-5" d="M226.72,166.32c.92.42,1.38,2.36.56,3.56-1.17,1.71-4.32,1-4.71,0C222.1,168.61,225.25,165.65,226.72,166.32Z"/><path class="cls-5" d="M224.25,165.83a2,2,0,0,1-2.62-.32c-1-1.16.13-3.22.91-3.29C223.5,162.14,225,164.93,224.25,165.83Z"/><path class="cls-5" d="M221.38,168.37c-.25-.19-1.2.28-1.53,1.08s0,2.24.72,2.38a1.42,1.42,0,0,0,1.4-1.32c0-.3-.3-.32-.49-.74C221.18,169.08,221.6,168.53,221.38,168.37Z"/><path class="cls-5" d="M207.76,166.15c2.15-.74,4.9,1.47,4.72,3.27-.14,1.4-2,2.62-3.81,2.45a3.32,3.32,0,0,1-3-2.32A3.18,3.18,0,0,1,207.76,166.15Z"/><path class="cls-5" d="M209.4,175.79c-.22-1.06,1.16-2.68,2.71-2.73,2.21-.08,3.56,3.11,2.94,4.07C214.3,178.31,209.76,177.47,209.4,175.79Z"/><path class="cls-5" d="M212.42,171.86c-.08-.39.43-1,1-1a1.26,1.26,0,0,1,1.09,1.5C214.22,172.79,212.55,172.48,212.42,171.86Z"/><path class="cls-5" d="M222.07,174a1,1,0,0,1-.12-1.4,1.26,1.26,0,0,1,1.84.14C223.94,173.26,222.62,174.32,222.07,174Z"/><path class="cls-5" d="M203.44,166.65a1,1,0,0,1,1.38-.2,1.25,1.25,0,0,1,0,1.84C204.33,168.47,203.17,167.22,203.44,166.65Z"/><path class="cls-5" d="M216.34,168.16c-.12,0-2.07.42-2.12,1.33,0,.73,1.15,1.42,2.13,1.54.23,0,1.67.21,2.16-.75a1.64,1.64,0,0,0-.43-1.94A2.06,2.06,0,0,0,216.34,168.16Z"/><path class="cls-4" d="M61.05,169.5c.33-1.57-1.71-4-4-4.05-3.28-.11-5.29,4.62-4.37,6.05C53.79,173.25,60.52,172,61.05,169.5Z"/><path class="cls-4" d="M53.42,174.4c0,.5-1.47,1.27-2.81.94-1.53-.37-2.82-2.15-2.36-3.15a2.24,2.24,0,0,1,3-.55c.34.34.12.68.49,1.32C52.33,174,53.42,174,53.42,174.4Z"/><path class="cls-4" d="M29.34,165.44c-.92.42-1.38,2.36-.56,3.56,1.17,1.71,4.32,1,4.71,0C34,167.73,30.81,164.77,29.34,165.44Z"/><path class="cls-4" d="M25.35,162.59c-.36-1,.49-2.14,1.2-2.72,1.52-1.23,4.21-1.2,4.85,0s-.47,3-2,3.7S25.79,163.79,25.35,162.59Z"/><path class="cls-4" d="M31.81,164.94a2,2,0,0,0,2.62-.31c1-1.16-.13-3.22-.91-3.29C32.57,161.25,31.06,164.05,31.81,164.94Z"/><path class="cls-4" d="M34.68,167.49c.25-.19,1.2.27,1.53,1.08s0,2.24-.72,2.38a1.42,1.42,0,0,1-1.4-1.32c0-.3.3-.32.49-.74C34.88,168.2,34.46,167.65,34.68,167.49Z"/><path class="cls-4" d="M49.06,165.26c-2.14-.73-4.9,1.47-4.72,3.28.14,1.39,2,2.61,3.81,2.45a3.31,3.31,0,0,0,3-2.32A3.19,3.19,0,0,0,49.06,165.26Z"/><path class="cls-4" d="M47.42,174.9c.22-1.06-1.16-2.68-2.7-2.73-2.22-.07-3.57,3.11-2.95,4.08C42.53,177.43,47.06,176.59,47.42,174.9Z"/><path class="cls-4" d="M44.4,171c.08-.39-.43-1-1-1a1.25,1.25,0,0,0-1.08,1.49C42.6,171.9,44.27,171.6,44.4,171Z"/><path class="cls-4" d="M34,173.14a1,1,0,0,0,.12-1.41,1.26,1.26,0,0,0-1.84.15C32.13,172.37,33.44,173.44,34,173.14Z"/><path class="cls-4" d="M53.39,165.76a1,1,0,0,0-1.39-.2,1.25,1.25,0,0,0,0,1.85C52.49,167.59,53.65,166.34,53.39,165.76Z"/><path class="cls-4" d="M39.42,168c.09-.07,1.66-1.3,2.39-.75.57.44.33,1.79-.21,2.62-.13.2-.92,1.4-2,1.16a1.65,1.65,0,0,1-1.2-1.59A2,2,0,0,1,39.42,168Z"/><path class="cls-5" d="M60.67,168.68c.33-1.57-1.72-4-4-4.05-3.28-.11-5.29,4.61-4.37,6.05C53.41,172.43,60.14,171.18,60.67,168.68Z"/><path class="cls-5" d="M53,173.57c0,.5-1.47,1.28-2.82,1-1.52-.37-2.81-2.15-2.35-3.15a2.24,2.24,0,0,1,3-.55c.34.34.12.68.48,1.32C52,173.16,53,173.15,53,173.57Z"/><path class="cls-5" d="M29.72,164.61c-.92.42-1.38,2.37-.57,3.56,1.18,1.71,4.33,1,4.72,0C34.34,166.9,31.19,163.94,29.72,164.61Z"/><path class="cls-5" d="M32.19,164.12a2,2,0,0,0,2.61-.32c1-1.16-.12-3.22-.9-3.29C32.94,160.43,31.44,163.22,32.19,164.12Z"/><path class="cls-5" d="M35.06,166.66c.25-.19,1.2.28,1.53,1.08s0,2.24-.72,2.38a1.42,1.42,0,0,1-1.4-1.32c0-.3.3-.32.49-.74C35.25,167.37,34.84,166.82,35.06,166.66Z"/><path class="cls-5" d="M48.68,164.44c-2.15-.74-4.91,1.47-4.72,3.28.14,1.39,2,2.61,3.8,2.45a3.33,3.33,0,0,0,3-2.33A3.19,3.19,0,0,0,48.68,164.44Z"/><path class="cls-5" d="M47,174.08c.23-1.06-1.15-2.68-2.7-2.73-2.21-.08-3.56,3.11-2.94,4.07C42.14,176.6,46.68,175.77,47,174.08Z"/><path class="cls-5" d="M44,170.15c.09-.38-.42-1-1-1a1.26,1.26,0,0,0-1.08,1.5C42.22,171.08,43.88,170.77,44,170.15Z"/><path class="cls-5" d="M34.37,172.31a1,1,0,0,0,.12-1.4,1.25,1.25,0,0,0-1.84.15C32.5,171.55,33.82,172.61,34.37,172.31Z"/><path class="cls-5" d="M53,164.94a1,1,0,0,0-1.39-.2,1.26,1.26,0,0,0,0,1.84C52.11,166.76,53.26,165.51,53,164.94Z"/><path class="cls-5" d="M40.1,166.45c.11,0,2.07.42,2.12,1.34,0,.72-1.15,1.41-2.13,1.53-.24,0-1.67.21-2.16-.75a1.65,1.65,0,0,1,.43-1.94A2.05,2.05,0,0,1,40.1,166.45Z"/><ellipse class="cls-6" cx="96.16" cy="117.65" rx="17.02" ry="19.29"/><ellipse class="cls-6" cx="150.75" cy="116.87" rx="17.02" ry="19.29"/><ellipse cx="98.91" cy="120.18" rx="12.44" ry="14.1" transform="translate(-2.72 2.29) rotate(-1.31)"/><ellipse cx="147.94" cy="120.18" rx="12.44" ry="14.1" transform="translate(-2.71 3.41) rotate(-1.31)"/><circle cx="158.19" cy="110.81" r="6.16"/><circle class="cls-6" cx="158.44" cy="110.55" r="5.26"/><circle cx="104.44" cy="110.81" r="6.16"/><circle class="cls-6" cx="104.7" cy="110.55" r="5.26"/></g></svg>