<svg xmlns="http://www.w3.org/2000/svg" viewBox="0 0 256 256"><defs><style>.cls-1{fill:#51ffae;}.cls-2{fill:#f2c050;}.cls-3{fill:#e4e3e1;}.cls-4{fill:#ae49c5;}.cls-5{fill:#fff;}.cls-6{fill:#600071;}</style></defs><g id="фон"><rect class="cls-1" width="256" height="256"/></g><g id="Слой_16" data-name="Слой 16"><path d="M40.69,160.6c-7.54,1.16-17,4.63-17,8.61,0,3.17,5.93,3.43,7.07,7.76,1.84,7-11.79,13.45-10.08,18.66,1.51,4.56,12.33.66,21.08,8.2,5.29,4.57,3.57,7.93,9.84,13.26,2.12,1.8,8.17,6.94,15.62,6.53,8.55-.46,11.46-7.84,17.08-6.24,3.88,1.1,3.09,4.79,7.91,8.7,6.66,5.42,17,5.59,24.3,2.86,7-2.62,5.69-5.9,12.31-8.09,8.06-2.67,10.91,1.9,22.26-.15,4.49-.81,10.69-1.93,13.1-6.49,1.91-3.62,0-6.62,2.34-9s4.78-.23,10.35-1.79c1.2-.33,7.85-2.18,10.71-7.53,1.9-3.55.42-5.44,2.47-7.38,2.69-2.54,6,.05,10.14-2,3.67-1.81,4.95-2.9,7.32-10.19,1.57-4.81-.46-5.7,4.34-9.59,2.69-2.19,8-4.06,8.23-6.25.81-6.72-6.24-11.93-6.57-12.17C208.78,145,203.49,145,201,145c-11,0-22-3.12-33-2.86-55.19,1.31-61.86-8.34-78.88,1.47-12.16,7-19.33,18-33.13,17.2C52.25,160.6,47.81,159.5,40.69,160.6Z"/><path d="M47.85,158.11C41,159.17,32.34,162.34,32.28,166c0,2.9,5.43,3.14,6.47,7.09,1.67,6.36-10.77,12.29-9.2,17,1.37,4.17,11.25.61,19.24,7.49,4.83,4.17,3.26,7.24,9,12.11,1.93,1.64,7.46,6.33,14.26,6,7.81-.42,10.47-7.16,15.6-5.7,3.54,1,2.82,4.37,7.22,7.95,6.09,5,15.57,5.1,22.19,2.61,6.39-2.39,5.2-5.39,11.24-7.39,7.36-2.44,10,1.74,20.33-.14,4.09-.74,9.76-1.76,12-5.93,1.74-3.3-.05-6,2.14-8.16s4.36-.22,9.45-1.64c1.09-.3,7.17-2,9.78-6.87,1.74-3.24.39-5,2.26-6.75,2.45-2.32,5.42.05,9.26-1.84,3.35-1.65,4.52-2.65,6.68-9.3,1.43-4.4-.42-5.21,4-8.77,2.46-2,7.28-3.7,7.52-5.7.74-6.14-5.7-10.89-6-11.11-4.28-3.07-9.11-3-11.37-3-10.08,0-20.06-2.85-30.14-2.61-50.39,1.19-56.48-7.62-72,1.33C81,149,74.43,159.06,61.83,158.31,58.41,158.11,54.35,157.1,47.85,158.11Z"/><path d="M94.82,212.38a91.15,91.15,0,0,0,24,.3c18.41-2.3,30.71-9.8,49.43-21.5,16.87-10.55,25.31-15.82,29.09-23.67,6.53-13.57,4.93-31.95-5.2-44.68-8.84-11.11-21.07-14-28.38-15.76-23.71-5.64-44.55,4.12-48.46,6-9.11,4.47-11.44,8.1-23.73,12.92s-13.23,2.52-21.76,6.17c-1.79.76-28,12.43-31,36A32.41,32.41,0,0,0,40.7,184.7C49.63,206.69,82.73,210.86,94.82,212.38Z"/><path d="M154.55,104.53c-3-.62-16.57-3.47-16.59-7.68,0-2.71,5.61-3.42,5.76-6.62.19-4.09-8.81-5.88-8.72-9.87.08-3.75,8.14-4.18,9.25-9.06,1.2-5.28-7.31-8.88-6.15-13.69,1-4.2,7.79-2.83,14.92-9,6.8-5.92,7.36-13,10.15-12.67,3.2.38,1.67,9.65,7.48,13.78,7.1,5,19.7-9.33,20,4.32.2,11.07-8.5,4.12-13.41,15-4,8.78,4.41,14.88.17,17-3.45,1.73-6.45-1-8.4.8-3.46,3.27,4.73,13.34,1.22,17.71C168,107.34,162.21,106.14,154.55,104.53Z"/><path d="M188.47,115.3c2.24,2,12.45,11.43,15.9,9,2.22-1.56-.46-6.53,2.07-8.52,3.23-2.52,9.92,3.75,13.12,1.36,3-2.24-1.3-9,2-12.77,3.61-4,11.49.78,14.76-3,2.84-3.25-2.21-8-1.28-17.36.89-9,6.35-13.52,4.46-15.59-2.17-2.38-8.85,4.24-15.59,1.93-8.25-2.84-3.82-21.42-15.12-13.7-9.16,6.25,1.56,9.29-4.48,19.6-4.87,8.3-14.72,5-14,9.73.58,3.81,4.59,4.64,4.21,7.28-.66,4.71-13.64,3.91-15.17,9.29C178.4,106.05,182.71,110,188.47,115.3Z"/><ellipse cx="68.88" cy="166.48" rx="9.8" ry="7.82" transform="translate(-110.02 145.17) rotate(-60.73)"/><ellipse cx="86.28" cy="172" rx="7.83" ry="9.79" transform="translate(-8.8 4.7) rotate(-2.97)"/><ellipse cx="70.04" cy="167.69" rx="7.47" ry="5.96" transform="translate(-110.48 146.79) rotate(-60.73)"/><ellipse cx="85.35" cy="172.53" rx="5.97" ry="7.46" transform="translate(-8.83 4.66) rotate(-2.97)"/><ellipse cx="74.25" cy="162.88" rx="2.55" ry="2.55" transform="translate(-92.98 226.74) rotate(-86.39)"/><ellipse cx="73.83" cy="162.85" rx="2.17" ry="2.18" transform="translate(-93.34 226.29) rotate(-86.39)"/><ellipse cx="90.32" cy="167.83" rx="2.55" ry="2.55" transform="translate(-82.86 247.42) rotate(-86.39)"/><ellipse cx="89.9" cy="167.81" rx="2.17" ry="2.18" transform="matrix(0.06, -1, 1, 0.06, -83.23, 246.97)"/><path d="M70.82,135.7a46.91,46.91,0,0,1-.17-15.81c.83-5,2.66-10.63,1.64-18-.23-1.66-.66-3.81-2.36-5-2.33-1.59-5.62-.37-7.19.21A16.87,16.87,0,0,0,54.06,105c-1.63,3.1-1.82,5.71-2.11,9.68-.44,6,.45,10.13,2.06,17.59,1.29,5.95,2.25,8.14,4.22,9.91.71.64,2.87,2.59,5.53,2.35C67,144.27,70.05,140.72,70.82,135.7Z"/><path d="M134,154.26a46.63,46.63,0,0,1,5.77-14.73c2.62-4.29,6.44-8.88,8.27-16.11.41-1.63.81-3.78-.33-5.49-1.56-2.34-5.08-2.44-6.75-2.48a16.92,16.92,0,0,0-11,4.13c-2.67,2.28-3.83,4.63-5.58,8.2-2.66,5.4-3.38,9.57-4.68,17.08-1,6-1,8.39.2,10.77.42.85,1.7,3.46,4.25,4.23C127.23,160.8,131.36,158.63,134,154.26Z"/><path d="M154.61,108.34c-2.6.16-6.73-12.62-6.1-25.21.21-4.22,1.05-21,11.39-25.93,3.72-1.77,9.06-2.2,10.83.13,1.54,2-.45,5-3.45,12.29-4.08,9.89-6.88,20.08-9.21,28.59C156,105.89,155.72,108.28,154.61,108.34Z"/><path d="M182.57,117.45c1.23,2.28,14.31-.9,24.74-8,3.5-2.39,17.41-11.89,16.2-23.25-.43-4.08-2.86-8.85-5.78-9.13-2.54-.25-4.06,3-8.7,9.37-6.32,8.64-13.56,16.35-19.61,22.79C184,115,182,116.47,182.57,117.45Z"/><path class="cls-2" d="M42.2,161.81c-7.39,1.15-16.65,4.56-16.7,8.47-.05,3.12,5.81,3.38,6.93,7.63,1.79,6.85-11.56,13.23-9.88,18.34,1.47,4.49,12.08.65,20.64,8.06,5.19,4.49,3.5,7.8,9.64,13,2.08,1.76,8,6.81,15.3,6.41,8.38-.46,11.23-7.71,16.73-6.14,3.8,1.08,3,4.7,7.75,8.55,6.52,5.33,16.69,5.49,23.8,2.81,6.85-2.58,5.58-5.81,12.06-8,7.89-2.62,10.68,1.87,21.8-.15,4.4-.8,10.48-1.9,12.83-6.39,1.87-3.56,0-6.5,2.3-8.79s4.68-.23,10.14-1.76c1.17-.33,7.69-2.15,10.49-7.4,1.87-3.49.42-5.36,2.42-7.26,2.63-2.5,5.83,0,9.94-2,3.59-1.78,4.85-2.85,7.17-10,1.53-4.72-.45-5.6,4.25-9.43,2.64-2.15,7.81-4,8.07-6.14.79-6.61-6.12-11.72-6.44-12-4.6-3.3-9.77-3.26-12.2-3.27-10.82,0-21.52-3.06-32.33-2.8-54.06,1.29-60.59-8.19-77.26,1.45C77.73,152,70.71,162.83,57.19,162,53.52,161.81,49.17,160.73,42.2,161.81Z"/><path class="cls-3" d="M49.21,159.37c-6.74,1-15.2,4.16-15.25,7.73,0,2.85,5.31,3.08,6.33,7,1.64,6.25-10.55,12.07-9,16.75,1.35,4.09,11,.59,18.85,7.36,4.73,4.09,3.19,7.11,8.8,11.9,1.9,1.61,7.31,6.22,14,5.85,7.65-.42,10.26-7,15.28-5.6,3.47,1,2.77,4.29,7.07,7.81,6,4.86,15.25,5,21.74,2.56,6.25-2.35,5.09-5.3,11-7.27,7.21-2.39,9.76,1.71,19.91-.14,4-.72,9.57-1.73,11.72-5.83,1.71-3.25,0-5.93,2.1-8s4.27-.21,9.26-1.6c1.07-.3,7-2,9.58-6.76,1.7-3.19.38-4.89,2.21-6.63,2.4-2.29,5.31,0,9.07-1.82,3.28-1.62,4.43-2.6,6.55-9.14,1.4-4.32-.41-5.13,3.88-8.62,2.41-2,7.13-3.64,7.37-5.61.72-6-5.58-10.7-5.88-10.92-4.2-3-8.93-3-11.14-3-9.88,0-19.65-2.79-29.52-2.55-49.37,1.18-55.33-7.48-70.56,1.32-10.88,6.29-17.29,16.18-29.64,15.45C59.55,159.37,55.58,158.38,49.21,159.37Z"/><path class="cls-4" d="M95.21,212.71a89.72,89.72,0,0,0,23.52.29c18-2.27,30.08-9.64,48.42-21.15,16.53-10.37,24.79-15.56,28.49-23.28,6.41-13.34,4.84-31.4-5.08-43.92-8.65-10.91-20.63-13.77-27.8-15.48-23.22-5.54-43.63,4.06-47.46,6-8.92,4.39-11.21,8-23.25,12.7s-13,2.49-21.31,6.07c-1.76.75-27.47,12.23-30.35,35.37A31.81,31.81,0,0,0,42.2,185.5C50.94,207.12,83.36,211.21,95.21,212.71Z"/><path class="cls-2" d="M153.73,106.68c-2.91-.62-16.22-3.41-16.24-7.55,0-2.66,5.5-3.36,5.64-6.51.19-4-8.63-5.78-8.54-9.69.08-3.7,8-4.12,9.06-8.92,1.18-5.18-7.15-8.72-6-13.46,1-4.12,7.63-2.78,14.62-8.88,6.66-5.82,7.21-12.78,9.94-12.46,3.14.37,1.64,9.48,7.32,13.54,7,5,19.31-9.17,19.56,4.25.19,10.87-8.33,4-13.14,14.76-3.88,8.62,4.32,14.62.16,16.72-3.37,1.71-6.32-1-8.22.79-3.39,3.22,4.62,13.12,1.19,17.41C166.86,109.43,161.24,108.25,153.73,106.68Z"/><path class="cls-2" d="M187,117.25c2.19,2,12.19,11.24,15.57,8.85,2.18-1.54-.45-6.43,2-8.37,3.16-2.49,9.72,3.67,12.85,1.33,3-2.21-1.27-8.88,2-12.55,3.54-4,11.26.76,14.46-2.91,2.78-3.2-2.16-7.83-1.25-17.07.88-8.79,6.23-13.28,4.38-15.32-2.13-2.34-8.67,4.17-15.28,1.9-8.08-2.79-3.73-21-14.8-13.46-9,6.15,1.52,9.13-4.4,19.26-4.77,8.17-14.42,5-13.72,9.57.58,3.74,4.5,4.56,4.13,7.16-.65,4.63-13.36,3.84-14.86,9.13C177.1,108.16,181.32,112.05,187,117.25Z"/><ellipse class="cls-5" cx="69.81" cy="167.59" rx="9.63" ry="7.67" transform="translate(-110.64 147.67) rotate(-61.08)"/><ellipse class="cls-5" cx="86.85" cy="173.01" rx="7.67" ry="9.63" transform="translate(-8.55 4.56) rotate(-2.87)"/><ellipse cx="70.94" cy="168.78" rx="7.34" ry="5.84" transform="translate(-111.1 149.27) rotate(-61.08)"/><ellipse cx="85.94" cy="173.54" rx="5.84" ry="7.34" transform="translate(-8.57 4.52) rotate(-2.87)"/><circle cx="75.07" cy="164.05" r="2.5"/><circle class="cls-5" cx="74.65" cy="164.02" r="2.14"/><circle cx="90.81" cy="168.92" r="2.5"/><circle class="cls-5" cx="90.39" cy="168.89" r="2.14"/><path class="cls-6" d="M71.72,137.33a46.12,46.12,0,0,1-.17-15.54c.81-4.87,2.61-10.45,1.61-17.72-.22-1.63-.64-3.75-2.31-4.89-2.28-1.56-5.51-.36-7,.21a16.64,16.64,0,0,0-8.51,7.8c-1.59,3.06-1.78,5.62-2.07,9.52-.43,5.9.44,10,2,17.29,1.26,5.85,2.2,8,4.13,9.75.69.62,2.81,2.54,5.41,2.3C68,145.76,71,142.27,71.72,137.33Z"/><path class="cls-6" d="M133.55,155.56a46,46,0,0,1,5.65-14.48c2.56-4.21,6.31-8.72,8.1-15.84.4-1.59.8-3.71-.31-5.39-1.54-2.31-5-2.4-6.62-2.44a16.52,16.52,0,0,0-10.8,4.07c-2.62,2.24-3.75,4.54-5.47,8-2.61,5.32-3.31,9.41-4.58,16.8-1,5.89-1,8.25.19,10.58.41.84,1.66,3.41,4.16,4.16C127,162,131,159.86,133.55,155.56Z"/><path class="cls-6" d="M153.79,110.42c-2.54.15-6.58-12.4-6-24.78.2-4.15,1-20.65,11.16-25.49,3.64-1.74,8.87-2.17,10.61.12,1.51,2-.45,4.95-3.38,12.09-4,9.72-6.75,19.74-9,28.1C155.11,108,154.88,110.36,153.79,110.42Z"/><path class="cls-6" d="M181.18,119.37c1.2,2.24,14-.89,24.23-7.9,3.43-2.35,17.06-11.69,15.88-22.86-.43-4-2.8-8.69-5.66-9-2.49-.25-4,3-8.53,9.21-6.19,8.49-13.28,16.08-19.21,22.41C182.54,117,180.66,118.41,181.18,119.37Z"/></g></svg>