<svg xmlns="http://www.w3.org/2000/svg" viewBox="0 0 256 256"><defs><style>.cls-1{fill:#ff6cf8;}.cls-2{fill:#4680eb;}.cls-3{fill:#97c4e5;}.cls-4{fill:#fff;}.cls-5{fill:#9fe4eb;}</style></defs><g id="фон"><rect class="cls-1" width="256" height="256"/></g><g id="Слой_22" data-name="Слой 22"><path d="M91.25,173.28a147.55,147.55,0,0,1-8.13,27A35.38,35.38,0,0,0,79.56,213a32.6,32.6,0,0,0,2,13.78c7.25,17.61,42.19,17,47.25,17,12-.2,22.75-.37,32-8.48,9.51-8.33,11.76-20.06,13.21-27.56,1.73-9,1.94-19.31-5.59-50.35-8.73-36-11.13-30.92-12.19-45-1.21-16,.15-45.41.5-53,.46-10,1-17.21-2-18.55-4.14-1.83-13,8.36-18.29,17.49-2.1,3.62-6.76,12.46-15.24,50.88-1.65,7.46-2.86,13.43-5.59,13.78-3.22.41-5.67-7.39-11.68-17.49-1.23-2.06-16.35-27.18-23-25-6.09,2-6.13,27-1.36,47.77C85.2,152.81,94.42,157.93,91.25,173.28Z"/><path d="M173.05,195.87c5.9-5.59-3.07-14.09.76-29.93,2.93-12.15,9.64-13.07,15.62-30.83.9-2.68,5.63-16.72,2.32-18.47-2.34-1.23-6.95,4.61-18.09,14.53-16.83,15-19.06,13-23.87,19.83-8.55,12.1-11.89,33-1.07,42.4C155.46,199.26,167.84,200.81,173.05,195.87Z"/><path d="M87.6,187.06C81,185,82.84,176.29,73.85,166.39c-8-8.86-16.53-9.56-15.95-12.19.77-3.54,17.15-6.4,29.7.53,9.36,5.17,19,17.11,14.86,25.44C100,185.06,92.87,188.69,87.6,187.06Z"/><path class="cls-2" d="M93.33,173a146.4,146.4,0,0,1-7.59,26.2,35,35,0,0,0-3.32,12.32,32.58,32.58,0,0,0,1.89,13.36c6.77,17.07,39.39,16.52,44.12,16.44,11.18-.19,21.24-.36,29.88-8.22,8.88-8.07,11-19.44,12.34-26.71,1.62-8.76,1.81-18.72-5.22-48.8-8.15-34.86-10.39-30-11.39-43.66-1.12-15.51.15-44,.48-51.37.43-9.66.91-16.69-1.9-18-3.86-1.77-12.13,8.1-17.08,17-2,3.51-6.31,12.08-14.23,49.32-1.53,7.22-2.67,13-5.21,13.35-3,.4-5.3-7.16-10.91-17C104,105.24,89.93,80.89,83.68,83,78,85,78,109.18,82.42,129.33,87.68,153.15,96.29,158.1,93.33,173Z"/><path class="cls-2" d="M169.71,194.88c5.51-5.42-2.87-13.66.71-29,2.74-11.77,9-12.67,14.58-29.88.84-2.6,5.26-16.21,2.17-17.9-2.19-1.19-6.49,4.47-16.9,14.08-15.71,14.53-17.79,12.62-22.28,19.22-8,11.72-11.1,32-1,41.1C153.28,198.17,164.84,199.67,169.71,194.88Z"/><path class="cls-2" d="M89.92,186.34c-6.19-2-4.45-10.43-12.84-20-7.51-8.59-15.43-9.27-14.89-11.81.72-3.44,16-6.21,27.73.51,8.74,5,17.74,16.58,13.87,24.66C101.53,184.4,94.84,187.92,89.92,186.34Z"/><path d="M104.78,117.37C100,121.52,85.14,114.3,77,103.88c-6.12-7.83-10.78-20.52-6.55-24.46,4.46-4.16,18.32,1.87,26.31,10.75S109.3,113.41,104.78,117.37Z"/><path d="M66.68,83.27c-1.49-6.13,11.8-16,24.8-18.4,9.77-1.8,23.18-.07,24.72,5.5,1.62,5.88-10.12,15.39-21.69,18.36S68.11,89.1,66.68,83.27Z"/><path d="M77.1,88.36c4.32-4.6-2.39-19.74-12.52-28.22C57,53.76,44.44,48.66,40.36,52.75c-4.31,4.31,1.23,18.38,9.83,26.67S73,92.73,77.1,88.36Z"/><path d="M76.84,81.75c-3-5.52-19.52-3.8-30.71,3.24C37.72,90.28,29,100.62,31.65,105.77c2.78,5.42,17.87,4.47,28.4-1.17S79.74,87,76.84,81.75Z"/><path d="M70.93,129.37c6.3,0,12.67-15.32,11.85-28.51-.62-9.92-5.54-22.51-11.32-22.66C65.37,78.05,59,91.75,58.89,103.69S64.92,129.4,70.93,129.37Z"/><path d="M71,91.65c6.06,1.75,16.48-11.12,19.41-24,2.2-9.69,1-23.15-4.47-24.92-5.8-1.87-15.79,9.47-19.24,20.91S65.23,90,71,91.65Z"/><path d="M145.88,59.58c-6.21-2.14-7.4-19.36-2.19-32.12,3.92-9.59,13-20.38,18.74-18.6,6.07,1.88,7.81,17.54,3.91,29.38S151.8,61.61,145.88,59.58Z"/><path d="M140.75,51.39c1.47-6.4,18.47-9.39,31.7-5.55,10,2.89,21.64,10.77,20.47,16.68-1.23,6.24-16.63,9.61-28.8,7S139.34,57.49,140.75,51.39Z"/><path d="M160.31,97.43c-6.33,1.78-17.09-11.72-20-25.18-2.23-10.12-.9-24.15,4.85-26,6.06-1.9,16.39,10,19.9,22S166.34,95.74,160.31,97.43Z"/><path d="M144.57,59.12c6.21,2.14,17.74-10.71,21.47-24,2.81-10,2.3-24.06-3.33-26.2-6-2.25-17,9-21.15,20.76S138.64,57.08,144.57,59.12Z"/><path d="M153.65,55.83c2.78-6-8.79-18.77-21.59-23.88-9.62-3.84-23.68-4.82-26.39.57-2.87,5.67,7.2,17.79,18.42,23.21S151,61.5,153.65,55.83Z"/><path d="M109.91,80.1c3.9,5.29,20.68,1.26,31.29-7.53,8-6.62,15.56-18.5,12.14-23.45-3.62-5.23-19.08-2.19-29.2,5.07S106.19,75.06,109.91,80.1Z"/><path d="M66.12,158.62c-5.27-1.81-6.27-16.39-1.86-27.19,3.32-8.12,11-17.26,15.87-15.75,5.14,1.59,6.61,14.85,3.31,24.87S71.13,160.35,66.12,158.62Z"/><path d="M61.77,151.69c1.24-5.42,15.64-7.95,26.85-4.7,8.42,2.45,18.32,9.12,17.33,14.13-1,5.28-14.08,8.13-24.39,5.9S60.58,156.86,61.77,151.69Z"/><path d="M78.33,190.68c-5.36,1.5-14.47-9.93-17-21.33-1.88-8.57-.76-20.45,4.11-22,5.14-1.61,13.88,8.47,16.85,18.59S83.44,189.25,78.33,190.68Z"/><path d="M65,158.24c5.26,1.81,15-9.07,18.19-20.31,2.37-8.44,2-20.37-2.83-22.17-5-1.91-14.34,7.64-17.9,17.57S60,156.51,65,158.24Z"/><path d="M72.69,155.45c2.36-5-7.44-15.9-18.28-20.22-8.15-3.25-20-4.08-22.35.48-2.42,4.8,6.1,15.07,15.6,19.65S70.45,160.25,72.69,155.45Z"/><path d="M35.65,176c3.31,4.48,17.52,1.07,26.5-6.38C68.91,164,75.33,154,72.43,149.77c-3.06-4.43-16.15-1.86-24.72,4.29S32.51,171.73,35.65,176Z"/><path d="M235.84,124.05c-.88,6.76-18.13,11.54-32.18,8.89-10.56-2-23.41-9-22.79-15.19.65-6.56,16.21-11.57,29-10.06S236.68,117.61,235.84,124.05Z"/><path d="M180.55,123.57c-5.59-3.91-1.85-21.42,7-32.65,6.65-8.44,18.77-16.61,24-13.19,5.52,3.61,2.77,19.73-4.5,30.41S185.87,127.29,180.55,123.57Z"/><path d="M192.65,120.26c.22-6.81-16-14.32-30.33-14-10.74.26-24.55,5.06-24.94,11.3-.42,6.58,14.12,14,27,14.63S192.44,126.75,192.65,120.26Z"/><path d="M187.71,115.09c-6.41-2.31-18.55,10.85-22.62,24.55-3.05,10.31-2.73,24.92,3.08,27.22,6.13,2.42,17.71-9.13,22.24-21.23S193.82,117.28,187.71,115.09Z"/><path d="M216.92,158c5.1-4.53-.65-21.48-10.74-31.61C198.6,118.75,185.61,112,180.81,116c-5.06,4.23-.46,19.92,8,29.68S212.07,162.29,216.92,158Z"/><path d="M190.05,127.29c6.16-2.9,5.43-20.79-1.39-33.36-5.13-9.44-15.69-19.54-21.43-17.05-6,2.63-6.06,19-.7,30.73S184.17,130.06,190.05,127.29Z"/><path d="M150.09,162.4c-3.6,4-14.88-2.94-21-12.93-4.64-7.52-8.17-19.69-5-23.47,3.38-4,13.88,1.79,19.94,10.31S153.51,158.6,150.09,162.4Z"/><path d="M121.22,129.69c-1.13-5.87,8.94-15.34,18.79-17.64,7.4-1.73,17.56-.07,18.73,5.27,1.23,5.64-7.67,14.76-16.44,17.62S122.3,135.29,121.22,129.69Z"/><path d="M129.12,134.57c3.27-4.4-1.81-18.92-9.49-27.06-5.77-6.12-15.26-11-18.35-7.09-3.27,4.14.93,17.63,7.45,25.58S126,138.77,129.12,134.57Z"/><path d="M128.91,128.24c-2.3-5.3-14.78-3.64-23.26,3.1-6.37,5.08-13,15-11,19.93,2.11,5.21,13.54,4.3,21.52-1.11S131.11,133.28,128.91,128.24Z"/><path d="M124.44,173.91c4.78,0,9.6-14.69,9-27.35-.46-9.51-4.19-21.59-8.57-21.73-4.62-.14-9.45,13-9.52,24.46S119.89,173.94,124.44,173.91Z"/><path d="M124.49,137.73c4.59,1.68,12.49-10.66,14.71-23,1.67-9.3.78-22.22-3.38-23.91-4.4-1.8-12,9.08-14.59,20S120.12,136.14,124.49,137.73Z"/><path class="cls-3" d="M107.28,116.2c-4.69,4.11-19.42-3-27.47-13.34-6-7.75-10.67-20.3-6.48-24.2,4.41-4.11,18.12,1.84,26,10.63S111.75,112.28,107.28,116.2Z"/><path class="cls-3" d="M69.59,82.46C68.12,76.4,81.27,66.64,94.13,64.27c9.66-1.78,22.93-.07,24.45,5.44,1.61,5.81-10,15.22-21.46,18.16S71,88.23,69.59,82.46Z"/><path class="cls-3" d="M79.9,87.5C84.17,83,77.54,68,67.51,59.58c-7.53-6.31-19.92-11.35-24-7.31-4.26,4.27,1.22,18.18,9.73,26.38S75.83,91.83,79.9,87.5Z"/><path class="cls-3" d="M79.64,81c-3-5.46-19.3-3.75-30.38,3.21-8.32,5.23-16.93,15.46-14.32,20.55,2.75,5.37,17.67,4.43,28.1-1.15S82.51,86.17,79.64,81Z"/><path class="cls-3" d="M73.8,128.07c6.23,0,12.53-15.15,11.71-28.2C84.9,90.05,80,77.6,74.32,77.45c-6-.15-12.34,13.4-12.43,25.22S67.85,128.1,73.8,128.07Z"/><path class="cls-3" d="M73.87,90.76c6,1.73,16.3-11,19.2-23.75,2.18-9.59,1-22.91-4.42-24.66C82.91,40.5,73,51.72,69.61,63S68.16,89.11,73.87,90.76Z"/><path class="cls-3" d="M148,59c-6.15-2.12-7.33-19.15-2.17-31.77,3.88-9.49,12.84-20.17,18.54-18.4,6,1.86,7.72,17.35,3.86,29.05S153.8,61,148,59Z"/><path class="cls-3" d="M142.87,50.93c1.45-6.34,18.27-9.29,31.36-5.49,9.84,2.86,21.41,10.65,20.25,16.5-1.22,6.17-16.45,9.5-28.49,6.9S141.48,57,142.87,50.93Z"/><path class="cls-3" d="M162.22,96.48c-6.26,1.75-16.91-11.6-19.83-24.92-2.2-10-.89-23.89,4.8-25.67,6-1.88,16.21,9.89,19.69,21.72S168.18,94.81,162.22,96.48Z"/><path class="cls-3" d="M146.64,58.58c6.15,2.11,17.56-10.6,21.25-23.72,2.78-9.87,2.28-23.8-3.3-25.91-5.88-2.23-16.76,8.93-20.92,20.53S140.79,56.56,146.64,58.58Z"/><path class="cls-3" d="M155.63,55.32c2.75-5.9-8.69-18.57-21.36-23.62-9.52-3.8-23.43-4.77-26.11.56-2.83,5.61,7.13,17.6,18.23,23S153,60.93,155.63,55.32Z"/><path class="cls-3" d="M112.36,79.33c3.86,5.23,20.46,1.25,31-7.45,7.89-6.54,15.39-18.3,12-23.2-3.57-5.17-18.87-2.17-28.88,5S108.68,74.34,112.36,79.33Z"/><path class="cls-3" d="M67.67,158.31c-5.2-1.79-6.2-16.21-1.83-26.9,3.29-8,10.88-17.08,15.7-15.59,5.08,1.58,6.54,14.7,3.27,24.61S72.64,160,67.67,158.31Z"/><path class="cls-3" d="M63.37,151.45c1.23-5.36,15.48-7.87,26.56-4.64,8.34,2.42,18.13,9,17.15,14-1,5.22-13.93,8-24.13,5.84S62.2,156.57,63.37,151.45Z"/><path class="cls-3" d="M79.76,190c-5.3,1.48-14.31-9.83-16.79-21.11-1.86-8.47-.75-20.23,4.07-21.74,5.08-1.59,13.73,8.38,16.67,18.4S84.81,188.61,79.76,190Z"/><path class="cls-3" d="M66.57,157.93c5.21,1.79,14.86-9,18-20.09,2.35-8.35,1.93-20.15-2.79-21.94-5-1.88-14.19,7.57-17.72,17.39S61.61,156.22,66.57,157.93Z"/><path class="cls-3" d="M74.18,155.17c2.33-5-7.36-15.72-18.08-20-8.06-3.22-19.84-4-22.12.47-2.4,4.75,6,14.91,15.44,19.44S72,159.92,74.18,155.17Z"/><path class="cls-3" d="M37.54,175.5c3.26,4.44,17.33,1.06,26.21-6.31,6.69-5.54,13-15.49,10.17-19.64-3-4.38-16-1.84-24.46,4.25S34.42,171.28,37.54,175.5Z"/><path class="cls-3" d="M237,122.81c-.88,6.69-17.95,11.42-31.85,8.79-10.44-2-23.15-8.87-22.54-15,.64-6.49,16-11.45,28.73-10S237.78,116.44,237,122.81Z"/><path class="cls-3" d="M182.24,122.33c-5.52-3.86-1.82-21.19,6.93-32.29,6.58-8.35,18.57-16.44,23.75-13.05,5.45,3.57,2.73,19.51-4.46,30.08S187.51,126,182.24,122.33Z"/><path class="cls-3" d="M194.21,119.06c.22-6.74-15.86-14.16-30-13.82-10.63.26-24.29,5-24.68,11.18-.41,6.51,14,13.89,26.75,14.47S194,125.48,194.21,119.06Z"/><path class="cls-3" d="M189.33,113.94C183,111.66,171,124.68,167,138.24c-3,10.19-2.71,24.65,3.05,26.92,6.06,2.39,17.51-9,22-21S195.38,116.12,189.33,113.94Z"/><path class="cls-3" d="M218.23,156.37c5-4.48-.65-21.26-10.63-31.27-7.5-7.53-20.35-14.18-25.1-10.21-5,4.18-.45,19.7,7.92,29.36S213.42,160.64,218.23,156.37Z"/><path class="cls-3" d="M191.64,126c6.1-2.88,5.38-20.58-1.37-33-5.08-9.34-15.53-19.34-21.2-16.87-6,2.6-6,18.76-.69,30.4S185.83,128.76,191.64,126Z"/><path class="cls-3" d="M152.11,160.75c-3.56,3.94-14.72-2.91-20.82-12.8-4.58-7.43-8.08-19.47-4.91-23.21,3.34-3.94,13.73,1.77,19.72,10.2S155.49,157,152.11,160.75Z"/><path class="cls-3" d="M123.55,128.39c-1.12-5.81,8.84-15.18,18.59-17.45,7.32-1.71,17.37-.07,18.52,5.22,1.22,5.57-7.58,14.59-16.26,17.42S124.62,133.93,123.55,128.39Z"/><path class="cls-3" d="M131.36,133.22c3.23-4.36-1.79-18.72-9.39-26.78-5.71-6-15.09-10.89-18.15-7-3.23,4.1.92,17.44,7.37,25.31S128.28,137.38,131.36,133.22Z"/><path class="cls-3" d="M131.16,127c-2.28-5.24-14.62-3.6-23,3.08-6.31,5-12.83,14.83-10.85,19.71,2.08,5.15,13.38,4.25,21.28-1.1S133.33,131.94,131.16,127Z"/><path class="cls-3" d="M126.73,172.14c4.73,0,9.5-14.54,8.88-27.06-.46-9.41-4.15-21.36-8.48-21.49-4.57-.15-9.35,12.85-9.42,24.19S122.23,172.17,126.73,172.14Z"/><path class="cls-3" d="M126.79,136.35c4.54,1.66,12.35-10.55,14.54-22.78,1.66-9.2.78-22-3.34-23.66-4.35-1.77-11.84,9-14.43,19.84S122.46,134.77,126.79,136.35Z"/><path class="cls-4" d="M97.59,108.6c-3.48,3.05-14.42-2.25-20.39-9.89-4.48-5.75-7.91-15.06-4.8-18,3.27-3,13.44,1.37,19.31,7.89S100.9,105.7,97.59,108.6Z"/><path class="cls-4" d="M69.63,83.58c-1.1-4.5,8.65-11.74,18.19-13.5,7.18-1.32,17,0,18.15,4C107.16,78.43,98.54,85.4,90,87.59S70.67,87.86,69.63,83.58Z"/><path class="cls-4" d="M77.27,87.31c3.17-3.37-1.75-14.48-9.19-20.71-5.59-4.68-14.78-8.42-17.77-5.42-3.17,3.17.9,13.49,7.22,19.57S74.26,90.53,77.27,87.31Z"/><path class="cls-4" d="M77.08,82.46c-2.24-4-14.32-2.78-22.54,2.38C48.37,88.72,42,96.31,43.92,100.09c2,4,13.11,3.28,20.84-.85S79.21,86.32,77.08,82.46Z"/><path class="cls-4" d="M72.74,117.41c4.63,0,9.3-11.24,8.7-20.92C81,89.21,77.37,80,73.13,79.86c-4.47-.11-9.16,9.94-9.22,18.71S68.34,117.43,72.74,117.41Z"/><path class="cls-4" d="M72.8,89.73C77.24,91,84.89,81.57,87,72.11c1.62-7.11.76-17-3.28-18.29-4.26-1.37-11.59,7-14.12,15.34S68.56,88.51,72.8,89.73Z"/><path class="cls-4" d="M148.2,56.49c-4.88-1.67-5.91-14.8-1.9-24.5,3-7.28,10.07-15.46,14.59-14.07,4.77,1.47,6.22,13.42,3.24,22.42S152.86,58.07,148.2,56.49Z"/><path class="cls-4" d="M144.13,50.22c1.12-4.88,14.43-7.06,24.83-4,7.82,2.26,17,8.33,16.15,12.83-.93,4.74-13,7.23-22.55,5.15S143.06,54.86,144.13,50.22Z"/><path class="cls-4" d="M159.73,85.43c-4.95,1.31-13.47-9-15.86-19.32-1.8-7.72-.84-18.41,3.66-19.75,4.74-1.42,12.91,7.72,15.73,16.85S164.45,84.17,159.73,85.43Z"/><path class="cls-4" d="M147.17,56.13C152.05,57.8,161,48.07,163.87,38c2.15-7.59,1.67-18.33-2.76-20-4.67-1.75-13.24,6.79-16.47,15.71S142.51,54.55,147.17,56.13Z"/><path class="cls-4" d="M154.27,53.67c2.15-4.52-7-14.36-17.06-18.32-7.57-3-18.6-3.81-20.7.28-2.21,4.31,5.75,13.61,14.58,17.8S152.23,58,154.27,53.67Z"/><path class="cls-4" d="M120.11,71.93c3.09,4,16.23,1.08,24.5-5.57,6.21-5,12.1-14,9.38-17.8-2.86-4-15-1.78-22.87,3.7S117.16,68.06,120.11,71.93Z"/><path class="cls-4" d="M66.58,157.54c-4.14-1.41-5-12.53-1.61-20.74,2.56-6.18,8.53-13.1,12.36-11.92,4,1.24,5.27,11.36,2.73,19S70.52,158.88,66.58,157.54Z"/><path class="cls-4" d="M63.13,152.23c.95-4.13,12.22-6,21-3.43,6.62,1.91,14.42,7,13.67,10.86-.78,4-11,6.12-19.09,4.36S62.23,156.16,63.13,152.23Z"/><path class="cls-4" d="M76.34,182c-4.19,1.12-11.4-7.65-13.43-16.35-1.52-6.55-.71-15.6,3.1-16.73,4-1.2,10.93,6.53,13.32,14.27S80.34,181,76.34,182Z"/><path class="cls-4" d="M65.7,157.24c4.14,1.41,11.74-6.83,14.15-15.38,1.82-6.42,1.41-15.52-2.34-16.92-4-1.48-11.21,5.75-13.94,13.3S61.76,155.89,65.7,157.24Z"/><path class="cls-4" d="M71.72,155.15c1.82-3.83-5.93-12.16-14.45-15.51-6.41-2.53-15.75-3.23-17.53.23-1.87,3.65,4.87,11.53,12.35,15.07S70,158.8,71.72,155.15Z"/><path class="cls-4" d="M42.79,170.61c2.61,3.43,13.74.92,20.75-4.71,5.26-4.23,10.24-11.86,7.94-15.08-2.42-3.39-12.68-1.51-19.36,3.13S40.3,167.34,42.79,170.61Z"/><path class="cls-4" d="M225.44,122.94c-.65,5-13.31,8.47-23.62,6.52-7.75-1.46-17.18-6.58-16.72-11.14.47-4.81,11.89-8.49,21.31-7.39S226.06,118.22,225.44,122.94Z"/><path class="cls-4" d="M184.86,122.59c-4.1-2.87-1.35-15.72,5.14-24,4.88-6.19,13.78-12.19,17.62-9.68,4,2.65,2,14.48-3.31,22.32S188.77,125.32,184.86,122.59Z"/><path class="cls-4" d="M193.74,120.16c.16-5-11.77-10.51-22.26-10.25-7.88.19-18,3.71-18.3,8.29-.31,4.83,10.36,10.3,19.84,10.74S193.58,124.93,193.74,120.16Z"/><path class="cls-4" d="M190.12,116.36c-4.71-1.69-13.62,8-16.6,18-2.24,7.56-2,18.28,2.26,20,4.5,1.77,13-6.7,16.31-15.58S194.6,118,190.12,116.36Z"/><path class="cls-4" d="M211.56,147.84c3.73-3.33-.48-15.77-7.89-23.2-5.56-5.59-15.1-10.51-18.62-7.57-3.71,3.1-.33,14.61,5.88,21.78S208,151,211.56,147.84Z"/><path class="cls-4" d="M191.83,125.32c4.53-2.13,4-15.26-1-24.48-3.76-6.93-11.51-14.34-15.72-12.51-4.44,1.92-4.45,13.92-.51,22.55S187.52,127.36,191.83,125.32Z"/><path class="cls-4" d="M145.35,154.06c-2.64,2.93-10.92-2.15-15.44-9.49-3.4-5.51-6-14.44-3.65-17.22s10.19,1.31,14.63,7.57S147.86,151.28,145.35,154.06Z"/><path class="cls-4" d="M124.17,130.06c-.83-4.31,6.55-11.26,13.78-13,5.44-1.27,12.89,0,13.75,3.87.9,4.14-5.63,10.83-12.06,12.93S125,134.17,124.17,130.06Z"/><path class="cls-4" d="M130,133.64c2.4-3.23-1.33-13.89-7-19.86-4.24-4.49-11.2-8.08-13.47-5.2-2.4,3,.68,12.93,5.47,18.77S127.67,136.72,130,133.64Z"/><path class="cls-4" d="M129.81,129c-1.69-3.88-10.85-2.67-17.07,2.28-4.68,3.72-9.52,11-8,14.63,1.54,3.82,9.93,3.15,15.79-.82S131.42,132.69,129.81,129Z"/><path class="cls-4" d="M126.53,162.51c3.5,0,7-10.78,6.58-20.07-.34-7-3.08-15.84-6.29-16-3.39-.1-6.94,9.54-7,18S123.19,162.53,126.53,162.51Z"/><path class="cls-4" d="M126.57,136c3.36,1.23,9.16-7.83,10.79-16.9,1.22-6.82.57-16.3-2.48-17.55-3.23-1.31-8.79,6.67-10.71,14.72S123.36,134.79,126.57,136Z"/><path class="cls-5" d="M98.68,107.49c-3.37,3-14-2.19-19.77-9.61-4.35-5.57-7.68-14.61-4.67-17.41,3.18-3,13.05,1.32,18.74,7.65S101.9,104.67,98.68,107.49Z"/><path class="cls-5" d="M71.56,83.2C70.49,78.84,80,71.81,89.21,70.11c7-1.28,16.51,0,17.61,3.91C108,78.21,99.61,85,91.37,87.1S72.57,87.36,71.56,83.2Z"/><path class="cls-5" d="M79,86.83c3.07-3.27-1.7-14-8.92-20.09-5.43-4.55-14.34-8.18-17.25-5.26-3.07,3.07.88,13.08,7,19S76.05,90,79,86.83Z"/><path class="cls-5" d="M78.79,82.13c-2.17-3.94-13.9-2.71-21.87,2.3-6,3.77-12.18,11.13-10.3,14.8,2,3.86,12.72,3.18,20.22-.83S80.85,85.87,78.79,82.13Z"/><path class="cls-5" d="M74.58,116c4.49,0,9-10.91,8.44-20.3-.44-7.06-4-16-8.06-16.13-4.34-.11-8.89,9.64-8.95,18.15S70.3,116.05,74.58,116Z"/><path class="cls-5" d="M74.63,89.18c4.32,1.24,11.73-7.92,13.82-17.1,1.57-6.9.74-16.49-3.18-17.75C81.14,53,74,61.08,71.57,69.22S70.52,88,74.63,89.18Z"/><path class="cls-5" d="M148.36,57.72c-4.74-1.61-5.74-14.36-1.84-23.76,2.93-7.07,9.76-15,14.15-13.66,4.63,1.43,6,13,3.14,21.75S152.88,59.26,148.36,57.72Z"/><path class="cls-5" d="M144.41,51.64c1.08-4.73,14-6.85,24.09-3.93,7.59,2.19,16.52,8.08,15.67,12.45-.91,4.6-12.6,7-21.88,5S143.37,56.14,144.41,51.64Z"/><path class="cls-5" d="M159.55,85.8c-4.81,1.27-13.07-8.77-15.39-18.74-1.75-7.5-.82-17.87,3.55-19.17,4.6-1.37,12.52,7.49,15.26,16.35S164.12,84.58,159.55,85.8Z"/><path class="cls-5" d="M147.36,57.38c4.74,1.61,13.44-7.83,16.2-17.62,2.09-7.36,1.62-17.78-2.68-19.39-4.53-1.7-12.84,6.59-16,15.24S142.84,55.84,147.36,57.38Z"/><path class="cls-5" d="M154.25,55c2.08-4.39-6.79-13.93-16.56-17.78-7.34-2.89-18-3.69-20.08.27-2.15,4.18,5.58,13.21,14.14,17.27S152.27,59.17,154.25,55Z"/><path class="cls-5" d="M121.1,72.7c3,3.93,15.75,1,23.77-5.4,6-4.85,11.74-13.59,9.1-17.28-2.77-3.88-14.52-1.72-22.18,3.59S118.24,69,121.1,72.7Z"/><path class="cls-5" d="M68,157.2c-4-1.36-4.86-12.15-1.56-20.12,2.49-6,8.27-12.71,12-11.56,3.92,1.2,5.11,11,2.66,18.41S71.85,158.51,68,157.2Z"/><path class="cls-5" d="M64.68,152.05c.92-4,11.86-5.79,20.4-3.32,6.43,1.85,14,6.84,13.27,10.54-.77,3.9-10.67,5.94-18.53,4.23S63.8,155.87,64.68,152.05Z"/><path class="cls-5" d="M77.5,181c-4.07,1.08-11.07-7.42-13-15.87-1.47-6.35-.69-15.13,3-16.23,3.9-1.16,10.61,6.34,12.93,13.84S81.37,180,77.5,181Z"/><path class="cls-5" d="M67.17,156.91c4,1.37,11.39-6.62,13.73-14.91,1.76-6.24,1.37-15.06-2.27-16.42-3.84-1.44-10.88,5.57-13.53,12.9S63.35,155.61,67.17,156.91Z"/><path class="cls-5" d="M73,154.89c1.77-3.72-5.75-11.8-14-15-6.22-2.45-15.28-3.13-17,.23-1.81,3.54,4.73,11.18,12,14.62S71.33,158.43,73,154.89Z"/><path class="cls-5" d="M44.94,169.89c2.54,3.33,13.34.89,20.13-4.57,5.11-4.11,9.94-11.51,7.71-14.63-2.35-3.29-12.3-1.46-18.79,3S42.52,166.71,44.94,169.89Z"/><path class="cls-5" d="M223.3,122.2c-.63,4.81-12.92,8.21-22.92,6.32-7.52-1.42-16.67-6.38-16.23-10.81.47-4.67,11.55-8.24,20.68-7.16S223.9,117.61,223.3,122.2Z"/><path class="cls-5" d="M183.93,121.85c-4-2.78-1.32-15.25,5-23.24,4.74-6,13.37-11.83,17.09-9.39,3.93,2.57,2,14-3.2,21.65S187.72,124.5,183.93,121.85Z"/><path class="cls-5" d="M192.54,119.5c.16-4.85-11.42-10.2-21.59-10-7.65.19-17.48,3.6-17.76,8-.3,4.68,10.05,10,19.24,10.41S192.39,124.12,192.54,119.5Z"/><path class="cls-5" d="M189,115.81c-4.57-1.64-13.22,7.73-16.11,17.49-2.18,7.34-1.95,17.74,2.19,19.38,4.37,1.72,12.61-6.5,15.83-15.12S193.38,117.38,189,115.81Z"/><path class="cls-5" d="M209.83,146.35c3.62-3.22-.47-15.3-7.65-22.51-5.4-5.42-14.65-10.2-18.07-7.34-3.6,3-.32,14.17,5.7,21.13S206.37,149.42,209.83,146.35Z"/><path class="cls-5" d="M190.69,124.51c4.39-2.07,3.87-14.81-1-23.76-3.65-6.72-11.17-13.91-15.26-12.14-4.3,1.87-4.31,13.51-.49,21.88S186.51,126.48,190.69,124.51Z"/><path class="cls-5" d="M145.59,152.39c-2.56,2.84-10.59-2.09-15-9.21-3.3-5.35-5.82-14-3.54-16.7,2.41-2.84,9.89,1.27,14.2,7.34S148,149.69,145.59,152.39Z"/><path class="cls-5" d="M125,129.1c-.81-4.18,6.36-10.92,13.37-12.56,5.28-1.23,12.51-.05,13.34,3.76.88,4-5.46,10.5-11.7,12.54S125.81,133.09,125,129.1Z"/><path class="cls-5" d="M130.66,132.58c2.33-3.14-1.29-13.48-6.76-19.27-4.11-4.36-10.86-7.84-13.07-5-2.32,2.95.67,12.55,5.31,18.21S128.44,135.57,130.66,132.58Z"/><path class="cls-5" d="M130.51,128.07c-1.64-3.77-10.52-2.6-16.56,2.21-4.54,3.61-9.23,10.68-7.81,14.19,1.5,3.7,9.64,3.06,15.32-.79S132.08,131.66,130.51,128.07Z"/><path class="cls-5" d="M127.33,160.59c3.4,0,6.83-10.46,6.39-19.47-.33-6.78-3-15.38-6.11-15.48-3.28-.1-6.73,9.25-6.78,17.41S124.09,160.61,127.33,160.59Z"/><path class="cls-5" d="M127.37,134.83c3.26,1.19,8.88-7.6,10.47-16.4,1.19-6.62.56-15.81-2.41-17-3.13-1.28-8.52,6.47-10.39,14.28S124.25,133.69,127.37,134.83Z"/><circle class="cls-4" cx="76.15" cy="83.44" r="6.8"/><circle class="cls-4" cx="128.05" cy="130.01" r="6.8"/><circle class="cls-4" cx="189.41" cy="119.43" r="6.8"/><circle class="cls-4" cx="149.19" cy="54.19" r="6.8"/><circle class="cls-4" cx="68.83" cy="154.6" r="6.8"/><circle class="cls-5" cx="76.15" cy="82.47" r="6.49"/><circle class="cls-5" cx="128.62" cy="128.71" r="6.49"/><circle class="cls-5" cx="189.41" cy="118.56" r="6.49"/><circle class="cls-5" cx="149.19" cy="52.44" r="6.49"/><circle class="cls-5" cx="69.36" cy="153.21" r="6.49"/><circle class="cls-4" cx="109.47" cy="197.21" r="9.84"/><circle class="cls-4" cx="142.92" cy="199.58" r="9.84"/><circle cx="110.94" cy="197.21" r="7.72"/><circle cx="141.46" cy="199.58" r="7.72"/><circle cx="114.21" cy="192.31" r="3.28"/><circle class="cls-4" cx="113.73" cy="192.51" r="2.8"/><circle cx="146.35" cy="193.93" r="3.28"/><circle class="cls-4" cx="145.87" cy="194.14" r="2.8"/></g></svg>