<?xml version="1.0" encoding="utf-8"?>
<!-- Generator: Adobe Illustrator 26.0.2, SVG Export Plug-In . SVG Version: 6.00 Build 0)  -->
<svg version="1.2" baseProfile="tiny" id="Layer_1" xmlns="http://www.w3.org/2000/svg" xmlns:xlink="http://www.w3.org/1999/xlink"
	 x="0px" y="0px" viewBox="0 0 504.7 137.2" overflow="visible" xml:space="preserve">
<g id="Слой_2">
	<g id="Слой_1-2">
		<path d="M145.5,111.7V26H159c7.8,0,13.5,0.5,17.2,1.5c4.8,1.2,9.1,3.8,12.3,7.6c3,3.7,4.7,8.3,4.6,13c0,3.1-0.7,6.1-2.1,8.9
			c-1.7,3-4,5.5-6.7,7.5c5.2,2.5,9,5.5,11.4,9.2c2.5,3.9,3.7,8.4,3.6,13c0,4.7-1.3,9.2-3.7,13.2c-2.3,3.8-5.7,6.9-9.6,8.9
			c-3.9,2-9.3,3-16.3,2.9L145.5,111.7z M161.8,41.5v18.1h3.6c4,0,6.9-0.8,8.9-2.5c2-1.7,3-4.2,2.9-6.8c0.1-2.4-0.9-4.8-2.8-6.4
			c-1.8-1.6-4.6-2.4-8.4-2.4H161.8z M161.8,74.2v22h4.1c6.8,0,11.3-0.9,13.7-2.6c2.4-1.7,3.7-4.5,3.5-7.5c0.1-3.4-1.4-6.7-4.2-8.8
			c-2.8-2.1-7.4-3.2-13.8-3.2H161.8z"/>
		<path d="M207,48.3h16.1v30.5c0,5.9,0.4,10.1,1.2,12.4c0.7,2.2,2.1,4.1,3.9,5.4c2,1.3,4.3,2,6.7,1.9c2.4,0.1,4.7-0.6,6.8-1.9
			c1.9-1.4,3.4-3.3,4.1-5.6c0.7-1.8,1-5.7,1-11.7V48.3h15.9v26.9c0,11.1-0.9,18.7-2.6,22.7c-1.9,4.7-5.2,8.7-9.4,11.5
			c-4.2,2.7-9.4,4-15.9,4c-7,0-12.6-1.6-16.9-4.7c-4.4-3.2-7.6-7.8-9.1-13c-1.2-3.8-1.9-10.8-1.9-21L207,48.3z"/>
		<path d="M288.5,23.8v31.5c2.7-2.7,5.8-4.9,9.3-6.5c3.4-1.4,7-2.2,10.7-2.2c8.1-0.1,15.8,3.3,21.1,9.4c5.8,6.3,8.7,14.3,8.7,24.1
			c0,9.4-3,17.3-9,23.7s-13.1,9.5-21.3,9.5c-3.5,0-7-0.7-10.2-2c-3.5-1.5-6.7-3.7-9.4-6.4v6.7h-15.8V23.8H288.5z M305.3,61.4
			c-4.7-0.1-9.2,1.7-12.5,5.1c-3.3,3.4-5,7.9-5,13.4c0,5.6,1.7,10.2,5,13.7c3.2,3.4,7.8,5.3,12.5,5.2c4.7,0.1,9.1-1.9,12.3-5.3
			c3.3-3.5,5-8,5-13.5s-1.6-9.9-4.9-13.4C314.5,63.1,310,61.2,305.3,61.4L305.3,61.4z"/>
		<path d="M361.4,23.8v31.5c2.7-2.7,5.8-4.9,9.3-6.5c3.4-1.4,7-2.2,10.7-2.2c8.1-0.1,15.8,3.3,21.1,9.4c5.8,6.3,8.7,14.3,8.7,24.1
			c0,9.4-3,17.3-9,23.7s-13.1,9.5-21.2,9.5c-3.5,0-7-0.7-10.2-2c-3.5-1.5-6.7-3.7-9.4-6.4v6.7h-15.8V23.8H361.4z M378.1,61.4
			c-4.7-0.1-9.2,1.7-12.5,5.1c-3.3,3.4-5,7.9-5,13.4c0,5.6,1.7,10.2,5,13.7c3.2,3.4,7.8,5.3,12.5,5.2c4.7,0.1,9.1-1.9,12.3-5.3
			c3.3-3.5,5-8,5-13.5s-1.6-9.9-4.9-13.4C387.3,63.1,382.8,61.2,378.1,61.4L378.1,61.4z"/>
		<path d="M416.7,23.8h15.9v87.9h-15.9V23.8z"/>
		<path d="M504.6,84.6h-51.1c0.6,4.2,2.7,8,5.9,10.8c3.2,2.7,7.3,4,12.3,4c5.7,0.1,11.2-2.2,15.3-6.2l13.4,6.3
			c-3,4.5-7.2,8.1-12,10.5c-5.2,2.4-10.9,3.6-16.6,3.4c-10,0-18.1-3.1-24.3-9.4c-6.3-6.3-9.4-14.1-9.4-23.6c0-9.7,3.1-17.7,9.4-24.1
			s14.1-9.6,23.5-9.6c10,0,18.1,3.2,24.4,9.6s9.4,14.8,9.4,25.3L504.6,84.6z M488.7,72.1c-1-3.5-3.2-6.5-6.2-8.6
			c-3.1-2.2-6.9-3.4-10.8-3.3c-4.2-0.1-8.3,1.2-11.7,3.7c-2.1,1.6-4,4.3-5.8,8.2H488.7z"/>
	</g>
</g>
<g id="Layer_1_00000136393029504507829780000017083668538269938313_">
	<g id="Слой_2_00000033341821101523535490000002277478941174640301_">
		<g id="Слой_1-2_00000116204705801402078860000011707496330900131481_">
			<path fill="none" stroke="#000000" stroke-width="8" stroke-linejoin="round" stroke-miterlimit="10" d="M115,90.2l8,13
				l-15.9-1.6c-3.1,3.3-6.6,6.2-10.5,8.6l-0.5,15.4l-12.2-10c-4,1.1-8.1,1.6-12.5,1.6c-1.7,0-3.4-0.1-5.1-0.3l-11.7,13.7l-3.9-18.1
				c-3.7-1.7-7.1-3.9-10.2-6.5l0,0l-16.6,4.9l6.4-16.5c-2.6-4.1-4.5-8.5-5.8-13.3l-17.1-7l15.6-9c0.3-4.4,1.2-8.6,2.6-12.5
				L15.5,37.8l17.6,1c3.4-4.4,7.5-8.1,12.2-11.1l1.2-15.9L57.9,22c4.3-1.2,8.8-1.9,13.5-1.9c0.4,0,0.7,0,1.1,0l10-12.9l4.1,15.3
				c6.7,2.2,12.8,5.8,17.9,10.5l13.6-3.3l-5.7,12.8c2.7,4.2,4.8,8.9,6.1,13.9l13.9,5l-12.4,8C119.9,76.8,118.1,83.9,115,90.2z"/>
		</g>
	</g>
	<ellipse display="none" fill="none" stroke="#000000" stroke-miterlimit="10" cx="86.1" cy="54.1" rx="12.2" ry="18.1"/>
	<ellipse display="none" fill="none" stroke="#000000" stroke-miterlimit="10" cx="53.7" cy="54.1" rx="12.2" ry="18.1"/>
	
		<path display="none" stroke="#000000" stroke-width="2" stroke-linecap="round" stroke-linejoin="round" stroke-miterlimit="10" d="
		M71.9,81h-2.1c-3.7,0-6.1,1.7-6.1,3.9s1.9,3.5,4.6,3.5c2,0,4-0.6,5.8-1.7l1.1,2.7c-2.4,1.5-5.2,2.2-8,2.2c-3.7,0-8.1-1.6-8.1-6.3
		c0-3,2.7-4.9,5.4-5.4v-0.1c-3.6-0.3-6.5-2.5-6.5-6c0-5.2,5.3-7.1,10.3-7.1c2.7,0,5.4,0.7,7.8,1.9L75,71.5c-1.9-1-4.1-1.6-6.3-1.6
		c-3.6,0-5.9,1.7-5.9,4.1c0,3.2,3.4,4.1,7,4.1H72L71.9,81z"/>
</g>
<g id="Layer_2_00000082363871387516482670000008001953619765040314_">
	<path fill="none" stroke="#000000" stroke-width="8" stroke-linecap="round" stroke-linejoin="round" stroke-miterlimit="10" d="
		M39.5,88.6c1.1-9.2,12.3-45.7,62.6-43.4"/>
</g>
</svg>
