<svg xmlns="http://www.w3.org/2000/svg" viewBox="0 0 138.77 137.19"><defs><style>.cls-1{fill:#fff;}.cls-2{fill:#969696;}</style></defs><g id="Слой_2" data-name="Слой 2"><g id="Слой_1-2" data-name="Слой 1"><polygon points="122.86 25.08 104.16 67.35 128.38 106.71 82.41 101.99 52.45 137.19 42.73 92.01 0 74.4 39.97 51.19 43.51 5.11 77.93 35.95 122.86 25.08"/><polygon points="138.77 60.25 99.94 85.32 98.58 131.51 62.73 102.33 18.38 115.31 35.06 72.21 9.01 34.03 55.15 36.57 83.41 0 95.25 44.68 138.77 60.25"/><circle cx="71.12" cy="68.29" r="56.78"/><polygon class="cls-1" points="119.09 28.23 101.72 67.49 124.22 104.05 81.52 99.67 53.69 132.37 44.66 90.39 4.97 74.04 42.1 52.48 45.39 9.68 77.36 38.33 119.09 28.23"/><polygon class="cls-1" points="133.87 60.89 97.8 84.18 96.53 127.09 63.24 99.98 22.04 112.04 37.53 72 13.33 36.54 56.2 38.9 82.45 4.93 93.45 46.43 133.87 60.89"/><circle class="cls-1" cx="71.03" cy="68.37" r="52.74"/><path class="cls-2" d="M69.11,68.29c-19.22,0-36.21,8.3-46.5,21A52.78,52.78,0,0,0,118,92.45C108.05,78,89.88,68.29,69.11,68.29Z"/><ellipse class="cls-2" cx="53.18" cy="53.8" rx="12.23" ry="18.09"/><ellipse cx="53.18" cy="53.8" rx="8.2" ry="14.15"/><circle class="cls-1" cx="58.35" cy="44.4" r="4.31"/><ellipse class="cls-2" cx="85.59" cy="53.8" rx="12.23" ry="18.09"/><ellipse cx="85.59" cy="53.8" rx="8.2" ry="14.15"/><circle class="cls-1" cx="90.76" cy="44.4" r="4.31"/><path d="M71.38,80.73H69.3c-3.66,0-6.13,1.68-6.13,3.91s1.93,3.46,4.65,3.46a11.5,11.5,0,0,0,5.78-1.68l1.09,2.67a15.21,15.21,0,0,1-8,2.17c-3.66,0-8.11-1.63-8.11-6.28,0-3,2.72-4.89,5.39-5.44v-.09c-3.56-.3-6.53-2.48-6.53-6,0-5.19,5.29-7.12,10.34-7.12a16.33,16.33,0,0,1,7.76,1.93l-1.14,2.92a13.78,13.78,0,0,0-6.33-1.63c-3.6,0-5.88,1.73-5.88,4.1,0,3.21,3.36,4.1,7,4.1h2.18Z"/></g></g></svg>