<svg width="110" height="103" viewBox="0 0 110 103" fill="none" xmlns="http://www.w3.org/2000/svg">
<g clip-path="url(#clip0_103_557)">
<path d="M97.3885 18.8297L82.5654 50.5653L101.764 80.1161L65.3246 76.5724L41.576 103L33.8712 69.0796L0 55.8583L31.6834 38.4326L34.4894 3.83652L61.7734 26.9907L97.3885 18.8297Z" fill="#FDC500"/>
<path d="M110 45.2347L79.2204 64.0569L78.1423 98.7355L49.7248 76.8277L14.5695 86.5729L27.7914 54.2141L7.14209 25.5492L43.7163 27.4562L66.1174 0L75.5027 33.545L110 45.2347Z" fill="#FDC500"/>
<path d="M56.3752 93.9005C81.2326 93.9005 101.384 74.8146 101.384 51.271C101.384 27.7274 81.2326 8.64151 56.3752 8.64151C31.5178 8.64151 11.3669 27.7274 11.3669 51.271C11.3669 74.8146 31.5178 93.9005 56.3752 93.9005Z" fill="#FDC500"/>
<path d="M94.4002 21.1946L80.6313 50.6704L98.4666 78.119L64.6192 74.8306L42.559 99.3812L35.4011 67.8633L3.9397 55.588L33.3718 39.4011L35.9798 7.26758L61.3217 28.7775L94.4002 21.1946Z" fill="#FFD500"/>
<path d="M106.116 45.7152L77.524 63.201L76.5173 95.4171L50.129 75.0633L17.4706 84.1178L29.7492 54.0564L10.5664 27.4336L44.5485 29.2055L65.3563 3.70135L74.0758 34.8589L106.116 45.7152Z" fill="#FFD500"/>
<path d="M56.3039 90.9274C79.3926 90.9274 98.1098 73.1995 98.1098 51.3311C98.1098 29.4626 79.3926 11.7347 56.3039 11.7347C33.2152 11.7347 14.498 29.4626 14.498 51.3311C14.498 73.1995 33.2152 90.9274 56.3039 90.9274Z" fill="#FFD500"/>
<path d="M54.7819 51.271C39.5466 51.271 26.079 57.5025 17.9224 67.0374C21.0701 73.9291 26.2204 79.8319 32.7733 84.0581C39.3263 88.2844 47.0122 90.6602 54.9357 90.9088C62.8593 91.1574 70.6943 89.2686 77.5283 85.4624C84.3622 81.6561 89.9136 76.0892 93.536 69.4099C85.6488 58.5611 71.2458 51.271 54.7819 51.271Z" fill="#FFE98A"/>
<path d="M42.1547 53.9738C47.5088 53.9738 51.8491 47.8931 51.8491 40.3922C51.8491 32.8912 47.5088 26.8105 42.1547 26.8105C36.8006 26.8105 32.4602 32.8912 32.4602 40.3922C32.4602 47.8931 36.8006 53.9738 42.1547 53.9738Z" fill="#FFE98A"/>
<path d="M42.1547 51.0157C45.7446 51.0157 48.6547 46.2594 48.6547 40.3921C48.6547 34.5249 45.7446 29.7686 42.1547 29.7686C38.5649 29.7686 35.6548 34.5249 35.6548 40.3921C35.6548 46.2594 38.5649 51.0157 42.1547 51.0157Z" fill="black"/>
<path d="M46.2529 36.5707C48.1397 36.5707 49.6693 35.1219 49.6693 33.3348C49.6693 31.5477 48.1397 30.0989 46.2529 30.0989C44.366 30.0989 42.8364 31.5477 42.8364 33.3348C42.8364 35.1219 44.366 36.5707 46.2529 36.5707Z" fill="white"/>
<path d="M67.8453 53.9738C73.1994 53.9738 77.5398 47.8931 77.5398 40.3922C77.5398 32.8912 73.1994 26.8105 67.8453 26.8105C62.4912 26.8105 58.1509 32.8912 58.1509 40.3922C58.1509 47.8931 62.4912 53.9738 67.8453 53.9738Z" fill="#FFE98A"/>
<path d="M67.8454 51.0157C71.4353 51.0157 74.3454 46.2594 74.3454 40.3921C74.3454 34.5249 71.4353 29.7686 67.8454 29.7686C64.2556 29.7686 61.3455 34.5249 61.3455 40.3921C61.3455 46.2594 64.2556 51.0157 67.8454 51.0157Z" fill="black"/>
<path d="M71.9435 36.5707C73.8304 36.5707 75.36 35.1219 75.36 33.3348C75.36 31.5477 73.8304 30.0989 71.9435 30.0989C70.0567 30.0989 68.5271 31.5477 68.5271 33.3348C68.5271 35.1219 70.0567 36.5707 71.9435 36.5707Z" fill="white"/>
<path d="M56.5814 60.6108H54.9327C52.0315 60.6108 50.0735 61.8721 50.0735 63.5463C50.0735 65.2206 51.6034 66.144 53.7595 66.144C55.3779 66.1163 56.9593 65.681 58.3412 64.8827L59.2052 66.8873C57.2914 67.976 55.0961 68.54 52.8638 68.5165C49.9626 68.5165 46.4352 67.2927 46.4352 63.8016C46.4352 61.5493 48.5912 60.1303 50.7077 59.7173V59.6498C47.8858 59.4245 45.5315 57.7878 45.5315 55.1451C45.5315 51.2485 49.7248 49.7995 53.7278 49.7995C55.8733 49.7922 57.9871 50.2901 59.879 51.2485L58.9753 53.4408C57.4306 52.6576 55.7096 52.2379 53.9577 52.217C51.104 52.217 49.2967 53.5159 49.2967 55.2952C49.2967 57.7052 51.9601 58.3734 54.8455 58.3734H56.5735L56.5814 60.6108Z" fill="black"/>
</g>
<defs>
<clipPath id="clip0_103_557">
<rect width="110" height="103" fill="white"/>
</clipPath>
</defs>
</svg>
